Chivo-BoldItalic.ufo
<glyph name="exclam" format="1">
  <advance width="290"/>
  <unicode hex="0021"/>
  <outline>
    <contour>
      <point x="281" y="686" type="line"/>
      <point x="172" y="202" type="line"/>
      <point x="75" y="202" type="line"/>
      <point x="104" y="686" type="line"/>
    </contour>
    <contour>
      <point x="190" y="147" type="line"/>
      <point x="169" y="0" type="line"/>
      <point x="23" y="0" type="line"/>
      <point x="44" y="147" type="line"/>
    </contour>
  </outline>
</glyph>
<glyph name="quotedbl" format="1">
  <advance width="461"/>
  <unicode hex="0022"/>
  <outline>
    <contour>
      <point x="102" y="686" type="line"/>
      <point x="220" y="686" type="line"/>
      <point x="199" y="539" type="line"/>
      <point x="181" y="492"/>
      <point x="164" y="447"/>
      <point x="145" y="401" type="curve"/>
      <point x="95" y="401" type="line"/>
      <point x="81" y="539" type="line"/>
    </contour>
    <contour>
      <point x="323" y="401" type="curve"/>
      <point x="273" y="401" type="line"/>
      <point x="269" y="447"/>
      <point x="264" y="492"/>
      <point x="259" y="539" type="curve"/>
      <point x="280" y="686" type="line"/>
      <point x="399" y="686" type="line"/>
      <point x="378" y="539" type="line"/>
      <point x="359" y="492"/>
      <point x="341" y="447"/>
    </contour>
  </outline>
</glyph>
<glyph name="numbersign" format="1">
  <advance width="600"/>
  <unicode hex="0023"/>
  <outline>
    <contour>
      <point x="65" y="494" type="line"/>
      <point x="198" y="494" type="line"/>
      <point x="222" y="561"/>
      <point x="247" y="628"/>
      <point x="271" y="696" type="curve"/>
      <point x="368" y="696" type="line"/>
      <point x="344" y="628"/>
      <point x="319" y="561"/>
      <point x="295" y="494" type="curve"/>
      <point x="425" y="494" type="line"/>
      <point x="449" y="561"/>
      <point x="474" y="628"/>
      <point x="498" y="696" type="curve"/>
      <point x="594" y="696" type="line"/>
      <point x="570" y="628"/>
      <point x="545" y="561"/>
      <point x="520" y="494" type="curve"/>
      <point x="618" y="494" type="line"/>
      <point x="605" y="402" type="line"/>
      <point x="489" y="402" type="line"/>
      <point x="440" y="264" type="line"/>
      <point x="550" y="264" type="line"/>
      <point x="537" y="172" type="line"/>
      <point x="405" y="172" type="line"/>
      <point x="385" y="115"/>
      <point x="364" y="57"/>
      <point x="343" y="0" type="curve"/>
      <point x="247" y="0" type="line"/>
      <point x="268" y="57"/>
      <point x="289" y="115"/>
      <point x="309" y="172" type="curve"/>
      <point x="178" y="172" type="line"/>
      <point x="117" y="0" type="line"/>
      <point x="20" y="0" type="line"/>
      <point x="82" y="172" type="line"/>
      <point x="-21" y="172" type="line"/>
      <point x="-8" y="264" type="line"/>
      <point x="116" y="264" type="line"/>
      <point x="166" y="402" type="line"/>
      <point x="52" y="402" type="line"/>
    </contour>
    <contour>
      <point x="343" y="263" type="line"/>
      <point x="393" y="401" type="line"/>
      <point x="261" y="401" type="line"/>
      <point x="212" y="263" type="line"/>
    </contour>
  </outline>
</glyph>
<glyph name="dollar" format="1">
  <advance width="586"/>
  <unicode hex="0024"/>
  <outline>
    <contour>
      <point x="551" y="476" type="curve"/>
      <point x="417" y="476" type="line"/>
      <point x="417" y="476"/>
      <point x="419" y="489"/>
      <point x="419" y="495" type="curve" smooth="yes"/>
      <point x="419" y="533"/>
      <point x="386" y="560"/>
      <point x="328" y="560" type="curve" smooth="yes"/>
      <point x="256" y="560"/>
      <point x="213" y="530"/>
      <point x="213" y="492" type="curve" smooth="yes"/>
      <point x="213" y="388"/>
      <point x="532" y="449"/>
      <point x="532" y="256" type="curve" smooth="yes"/>
      <point x="532" y="98"/>
      <point x="412" y="28"/>
      <point x="278" y="20" type="curve"/>
      <point x="278" y="-8"/>
      <point x="278" y="-37"/>
      <point x="279" y="-66" type="curve"/>
      <point x="178" y="-66" type="line"/>
      <point x="203" y="21" type="line"/>
      <point x="96" y="30"/>
      <point x="14" y="79"/>
      <point x="14" y="185" type="curve" smooth="yes"/>
      <point x="14" y="201"/>
      <point x="17" y="229"/>
      <point x="20" y="236" type="curve"/>
      <point x="155" y="236" type="line"/>
      <point x="155" y="230"/>
      <point x="151" y="217"/>
      <point x="151" y="208" type="curve" smooth="yes"/>
      <point x="151" y="164"/>
      <point x="185" y="137"/>
      <point x="253" y="137" type="curve" smooth="yes"/>
      <point x="351" y="137"/>
      <point x="382" y="175"/>
      <point x="382" y="213" type="curve" smooth="yes"/>
      <point x="382" y="319"/>
      <point x="67" y="254"/>
      <point x="67" y="454" type="curve" smooth="yes"/>
      <point x="67" y="585"/>
      <point x="170" y="657"/>
      <point x="294" y="671" type="curve"/>
      <point x="294" y="700"/>
      <point x="294" y="729"/>
      <point x="293" y="758" type="curve"/>
      <point x="394" y="758" type="line"/>
      <point x="385" y="729"/>
      <point x="377" y="701"/>
      <point x="369" y="672" type="curve"/>
      <point x="475" y="665"/>
      <point x="554" y="616"/>
      <point x="554" y="517" type="curve" smooth="yes"/>
      <point x="554" y="507"/>
      <point x="554" y="497"/>
    </contour>
  </outline>
</glyph>
<glyph name="percent" format="1">
  <advance width="739"/>
  <unicode hex="0025"/>
  <outline>
    <contour>
      <point x="70" y="0" type="line"/>
      <point x="586" y="686" type="line"/>
      <point x="666" y="686" type="line"/>
      <point x="153" y="0" type="line"/>
    </contour>
    <contour>
      <point x="319" y="458" type="curve" smooth="yes"/>
      <point x="309" y="391"/>
      <point x="250" y="336"/>
      <point x="180" y="336" type="curve" smooth="yes"/>
      <point x="165" y="336" type="line" smooth="yes"/>
      <point x="101" y="336"/>
      <point x="58" y="381"/>
      <point x="58" y="439" type="curve" smooth="yes"/>
      <point x="58" y="453"/>
      <point x="68" y="522"/>
      <point x="74" y="563" type="curve" smooth="yes"/>
      <point x="83" y="630"/>
      <point x="138" y="685"/>
      <point x="214" y="685" type="curve" smooth="yes"/>
      <point x="229" y="685" type="line" smooth="yes"/>
      <point x="292" y="685"/>
      <point x="334" y="640"/>
      <point x="334" y="582" type="curve" smooth="yes"/>
      <point x="334" y="576"/>
      <point x="334" y="569"/>
    </contour>
    <contour>
      <point x="236" y="449" type="curve" smooth="yes"/>
      <point x="236" y="449"/>
      <point x="254" y="562"/>
      <point x="254" y="573" type="curve" smooth="yes"/>
      <point x="254" y="600"/>
      <point x="247" y="622"/>
      <point x="213" y="622" type="curve" smooth="yes"/>
      <point x="184" y="622"/>
      <point x="161" y="600"/>
      <point x="157" y="573" type="curve" smooth="yes"/>
      <point x="157" y="573"/>
      <point x="139" y="458"/>
      <point x="139" y="449" type="curve" smooth="yes"/>
      <point x="139" y="421"/>
      <point x="148" y="400"/>
      <point x="182" y="400" type="curve" smooth="yes"/>
      <point x="211" y="400"/>
      <point x="233" y="421"/>
    </contour>
    <contour>
      <point x="662" y="121" type="curve" smooth="yes"/>
      <point x="652" y="54"/>
      <point x="593" y="-1"/>
      <point x="523" y="-1" type="curve" smooth="yes"/>
      <point x="508" y="-1" type="line" smooth="yes"/>
      <point x="444" y="-1"/>
      <point x="401" y="44"/>
      <point x="401" y="102" type="curve" smooth="yes"/>
      <point x="401" y="116"/>
      <point x="411" y="185"/>
      <point x="417" y="226" type="curve" smooth="yes"/>
      <point x="426" y="293"/>
      <point x="481" y="348"/>
      <point x="557" y="348" type="curve" smooth="yes"/>
      <point x="572" y="348" type="line" smooth="yes"/>
      <point x="635" y="348"/>
      <point x="677" y="303"/>
      <point x="677" y="245" type="curve" smooth="yes"/>
      <point x="677" y="239"/>
      <point x="677" y="232"/>
    </contour>
    <contour>
      <point x="579" y="112" type="curve" smooth="yes"/>
      <point x="579" y="112"/>
      <point x="597" y="225"/>
      <point x="597" y="236" type="curve" smooth="yes"/>
      <point x="597" y="263"/>
      <point x="590" y="285"/>
      <point x="556" y="285" type="curve" smooth="yes"/>
      <point x="527" y="285"/>
      <point x="504" y="263"/>
      <point x="500" y="236" type="curve" smooth="yes"/>
      <point x="500" y="236"/>
      <point x="482" y="121"/>
      <point x="482" y="112" type="curve" smooth="yes"/>
      <point x="482" y="84"/>
      <point x="491" y="63"/>
      <point x="525" y="63" type="curve" smooth="yes"/>
      <point x="554" y="63"/>
      <point x="576" y="84"/>
    </contour>
  </outline>
</glyph>
<glyph name="ampersand" format="1">
  <advance width="670"/>
  <unicode hex="0026"/>
  <outline>
    <contour>
      <point x="394" y="691" type="curve"/>
      <point x="377" y="570" type="line"/>
      <point x="370" y="573"/>
      <point x="346" y="577"/>
      <point x="336" y="577" type="curve" smooth="yes"/>
      <point x="265" y="577"/>
      <point x="219" y="547"/>
      <point x="219" y="487" type="curve" smooth="yes"/>
      <point x="219" y="451"/>
      <point x="248" y="408"/>
      <point x="308" y="408" type="curve" smooth="yes"/>
      <point x="430" y="408" type="line"/>
      <point x="449" y="452"/>
      <point x="469" y="495"/>
      <point x="489" y="539" type="curve"/>
      <point x="591" y="539" type="line"/>
      <point x="573" y="408" type="line"/>
      <point x="667" y="408" type="line"/>
      <point x="662" y="369"/>
      <point x="657" y="331"/>
      <point x="651" y="292" type="curve"/>
      <point x="557" y="292" type="line"/>
      <point x="544" y="195"/>
      <point x="530" y="97"/>
      <point x="516" y="0" type="curve"/>
      <point x="244" y="0" type="line" smooth="yes"/>
      <point x="120" y="0"/>
      <point x="12" y="44"/>
      <point x="12" y="164" type="curve" smooth="yes"/>
      <point x="12" y="271"/>
      <point x="77" y="331"/>
      <point x="163" y="357" type="curve"/>
      <point x="109" y="379"/>
      <point x="75" y="423"/>
      <point x="75" y="486" type="curve" smooth="yes"/>
      <point x="75" y="624"/>
      <point x="192" y="696"/>
      <point x="338" y="696" type="curve" smooth="yes"/>
      <point x="358" y="696"/>
      <point x="377" y="694"/>
    </contour>
    <contour>
      <point x="409" y="292" type="curve"/>
      <point x="314" y="292" type="line" smooth="yes"/>
      <point x="200" y="292"/>
      <point x="163" y="249"/>
      <point x="163" y="190" type="curve" smooth="yes"/>
      <point x="163" y="136"/>
      <point x="212" y="113"/>
      <point x="273" y="113" type="curve" smooth="yes"/>
      <point x="384" y="113" type="line"/>
      <point x="392" y="173"/>
      <point x="401" y="233"/>
    </contour>
  </outline>
</glyph>
<glyph name="quotesingle" format="1">
  <advance width="272"/>
  <unicode hex="0027"/>
  <outline>
    <contour>
      <point x="139" y="401" type="curve"/>
      <point x="89" y="401" type="line"/>
      <point x="85" y="447"/>
      <point x="80" y="492"/>
      <point x="75" y="539" type="curve"/>
      <point x="96" y="686" type="line"/>
      <point x="215" y="686" type="line"/>
      <point x="194" y="539" type="line"/>
      <point x="175" y="492"/>
      <point x="158" y="447"/>
    </contour>
  </outline>
</glyph>
<glyph name="parenright" format="1">
  <advance width="326"/>
  <unicode hex="0029"/>
  <outline>
    <contour>
      <point x="290" y="351" type="curve" smooth="yes"/>
      <point x="290" y="164"/>
      <point x="204" y="-18"/>
      <point x="65" y="-157" type="curve"/>
      <point x="-14" y="-157" type="line"/>
      <point x="94" y="-10"/>
      <point x="171" y="175"/>
      <point x="171" y="361" type="curve" smooth="yes"/>
      <point x="171" y="476"/>
      <point x="146" y="596"/>
      <point x="105" y="686" type="curve"/>
      <point x="184" y="686" type="line"/>
      <point x="254" y="592"/>
      <point x="290" y="474"/>
    </contour>
  </outline>
</glyph>
<glyph name="asterisk" format="1">
  <advance width="583"/>
  <unicode hex="002A"/>
  <outline>
    <contour>
      <point x="434" y="339" type="line"/>
      <point x="344" y="279" type="line"/>
      <point x="279" y="417" type="line"/>
      <point x="178" y="280" type="line"/>
      <point x="104" y="339" type="line"/>
      <point x="226" y="458" type="line"/>
      <point x="76" y="496" type="line"/>
      <point x="121" y="589" type="line"/>
      <point x="261" y="526" type="line"/>
      <point x="270" y="686" type="line"/>
      <point x="369" y="686" type="line"/>
      <point x="332" y="526" type="line"/>
      <point x="493" y="588" type="line"/>
      <point x="509" y="494" type="line"/>
      <point x="346" y="458" type="line"/>
    </contour>
  </outline>
</glyph>
<glyph name="plus" format="1">
  <advance width="600"/>
  <unicode hex="002B"/>
  <outline>
    <contour>
      <point x="563" y="308" type="line"/>
      <point x="548" y="202" type="line"/>
      <point x="344" y="202" type="line"/>
      <point x="316" y="0" type="line"/>
      <point x="211" y="0" type="line"/>
      <point x="239" y="202" type="line"/>
      <point x="36" y="202" type="line"/>
      <point x="51" y="308" type="line"/>
      <point x="254" y="308" type="line"/>
      <point x="282" y="511" type="line"/>
      <point x="387" y="511" type="line"/>
      <point x="359" y="308" type="line"/>
    </contour>
  </outline>
</glyph>
<glyph name="slash" format="1">
  <advance width="564"/>
  <unicode hex="002F"/>
  <outline>
    <contour>
      <point x="-25" y="-171" type="line"/>
      <point x="465" y="686" type="line"/>
      <point x="570" y="686" type="line"/>
      <point x="81" y="-171" type="line"/>
    </contour>
  </outline>
</glyph>
<glyph name="zero" format="1">
  <advance width="612"/>
  <unicode hex="0030"/>
  <outline>
    <contour>
      <point x="543" y="230" type="curve" smooth="yes"/>
      <point x="524" y="94"/>
      <point x="422" y="-10"/>
      <point x="270" y="-10" type="curve" smooth="yes"/>
      <point x="241" y="-10" type="line" smooth="yes"/>
      <point x="119" y="-10"/>
      <point x="32" y="76"/>
      <point x="32" y="194" type="curve" smooth="yes"/>
      <point x="32" y="226"/>
      <point x="47" y="324"/>
      <point x="66" y="455" type="curve" smooth="yes"/>
      <point x="86" y="598"/>
      <point x="199" y="696"/>
      <point x="340" y="696" type="curve" smooth="yes"/>
      <point x="369" y="696" type="line" smooth="yes"/>
      <point x="491" y="696"/>
      <point x="577" y="608"/>
      <point x="577" y="489" type="curve" smooth="yes"/>
      <point x="577" y="444"/>
      <point x="561" y="360"/>
    </contour>
    <contour>
      <point x="393" y="214" type="curve" smooth="yes"/>
      <point x="414" y="360"/>
      <point x="431" y="473"/>
      <point x="431" y="490" type="curve" smooth="yes"/>
      <point x="431" y="530"/>
      <point x="404" y="579"/>
      <point x="339" y="579" type="curve" smooth="yes"/>
      <point x="263" y="579"/>
      <point x="227" y="535"/>
      <point x="214" y="450" type="curve" smooth="yes"/>
      <point x="193" y="310"/>
      <point x="180" y="221"/>
      <point x="180" y="198" type="curve" smooth="yes"/>
      <point x="180" y="145"/>
      <point x="216" y="107"/>
      <point x="271" y="107" type="curve" smooth="yes"/>
      <point x="343" y="107"/>
      <point x="385" y="154"/>
    </contour>
  </outline>
</glyph>
<glyph name="one" format="1">
  <advance width="612"/>
  <unicode hex="0031"/>
  <outline>
    <contour>
      <point x="48" y="121" type="line"/>
      <point x="214" y="121" type="line"/>
      <point x="269" y="514" type="line"/>
      <point x="102" y="514" type="line"/>
      <point x="115" y="603" type="line"/>
      <point x="193" y="609"/>
      <point x="301" y="646"/>
      <point x="388" y="691" type="curve"/>
      <point x="441" y="691" type="line"/>
      <point x="361" y="121" type="line"/>
      <point x="524" y="121" type="line"/>
      <point x="507" y="0" type="line"/>
      <point x="31" y="0" type="line"/>
    </contour>
  </outline>
</glyph>
<glyph name="two" format="1">
  <advance width="612"/>
  <unicode hex="0032"/>
  <outline>
    <contour>
      <point x="577" y="502" type="curve" smooth="yes"/>
      <point x="577" y="287"/>
      <point x="272" y="198"/>
      <point x="226" y="129" type="curve"/>
      <point x="530" y="129" type="line"/>
      <point x="513" y="0" type="line"/>
      <point x="10" y="0" type="line"/>
      <point x="10" y="274"/>
      <point x="426" y="314"/>
      <point x="426" y="492" type="curve" smooth="yes"/>
      <point x="426" y="538"/>
      <point x="395" y="574"/>
      <point x="335" y="574" type="curve" smooth="yes"/>
      <point x="261" y="574"/>
      <point x="212" y="520"/>
      <point x="212" y="445" type="curve"/>
      <point x="74" y="445" type="line"/>
      <point x="75" y="459"/>
      <point x="79" y="696"/>
      <point x="359" y="696" type="curve" smooth="yes"/>
      <point x="512" y="696"/>
      <point x="577" y="603"/>
    </contour>
  </outline>
</glyph>
<glyph name="three" format="1">
  <advance width="612"/>
  <unicode hex="0033"/>
  <outline>
    <contour>
      <point x="18" y="205" type="curve"/>
      <point x="154" y="205" type="line"/>
      <point x="152" y="194"/>
      <point x="152" y="189"/>
      <point x="152" y="184" type="curve" smooth="yes"/>
      <point x="152" y="135"/>
      <point x="188" y="109"/>
      <point x="258" y="109" type="curve" smooth="yes"/>
      <point x="338" y="109"/>
      <point x="395" y="144"/>
      <point x="395" y="221" type="curve" smooth="yes"/>
      <point x="395" y="288"/>
      <point x="335" y="296"/>
      <point x="277" y="296" type="curve" smooth="yes"/>
      <point x="205" y="296" type="line"/>
      <point x="220" y="403" type="line"/>
      <point x="303" y="403" type="line" smooth="yes"/>
      <point x="362" y="403"/>
      <point x="418" y="437"/>
      <point x="418" y="505" type="curve" smooth="yes"/>
      <point x="418" y="554"/>
      <point x="379" y="577"/>
      <point x="324" y="577" type="curve" smooth="yes"/>
      <point x="267" y="577"/>
      <point x="217" y="546"/>
      <point x="208" y="488" type="curve"/>
      <point x="75" y="488" type="line"/>
      <point x="83" y="616"/>
      <point x="201" y="696"/>
      <point x="342" y="696" type="curve" smooth="yes"/>
      <point x="362" y="696" type="line" smooth="yes"/>
      <point x="486" y="696"/>
      <point x="569" y="628"/>
      <point x="569" y="534" type="curve" smooth="yes"/>
      <point x="569" y="446"/>
      <point x="513" y="388"/>
      <point x="445" y="359" type="curve"/>
      <point x="444" y="354" type="line"/>
      <point x="505" y="333"/>
      <point x="542" y="288"/>
      <point x="542" y="218" type="curve" smooth="yes"/>
      <point x="542" y="76"/>
      <point x="416" y="-10"/>
      <point x="263" y="-10" type="curve" smooth="yes"/>
      <point x="236" y="-10" type="line" smooth="yes"/>
      <point x="89" y="-10"/>
      <point x="13" y="61"/>
      <point x="13" y="160" type="curve" smooth="yes"/>
      <point x="13" y="176"/>
      <point x="16" y="195"/>
    </contour>
  </outline>
</glyph>
<glyph name="four" format="1">
  <advance width="612"/>
  <unicode hex="0034"/>
  <outline>
    <contour>
      <point x="325" y="278" type="line"/>
      <point x="346" y="428" type="line"/>
      <point x="388" y="480"/>
      <point x="429" y="559"/>
      <point x="451" y="612" type="curve"/>
      <point x="515" y="612" type="line"/>
      <point x="468" y="278" type="line"/>
      <point x="560" y="278" type="line"/>
      <point x="543" y="160" type="line"/>
      <point x="451" y="160" type="line"/>
      <point x="429" y="0" type="line"/>
      <point x="286" y="0" type="line"/>
      <point x="308" y="160" type="line"/>
      <point x="6" y="160" type="line"/>
      <point x="23" y="279" type="line"/>
      <point x="107" y="388"/>
      <point x="213" y="570"/>
      <point x="266" y="696" type="curve"/>
      <point x="407" y="696" type="line"/>
      <point x="354" y="551"/>
      <point x="203" y="347"/>
      <point x="135" y="278" type="curve"/>
    </contour>
  </outline>
</glyph>
<glyph name="five" format="1">
  <advance width="612"/>
  <unicode hex="0035"/>
  <outline>
    <contour>
      <point x="152" y="686" type="line"/>
      <point x="565" y="686" type="line"/>
      <point x="547" y="556" type="line"/>
      <point x="250" y="556" type="line"/>
      <point x="217" y="405" type="line"/>
      <point x="238" y="420"/>
      <point x="290" y="453"/>
      <point x="357" y="453" type="curve" smooth="yes"/>
      <point x="483" y="453"/>
      <point x="547" y="375"/>
      <point x="547" y="267" type="curve" smooth="yes"/>
      <point x="547" y="100"/>
      <point x="429" y="-10"/>
      <point x="263" y="-10" type="curve" smooth="yes"/>
      <point x="248" y="-10" type="line" smooth="yes"/>
      <point x="109" y="-10"/>
      <point x="29" y="75"/>
      <point x="29" y="186" type="curve" smooth="yes"/>
      <point x="29" y="197"/>
      <point x="29" y="208"/>
      <point x="31" y="219" type="curve"/>
      <point x="168" y="219" type="line"/>
      <point x="167" y="214"/>
      <point x="167" y="210"/>
      <point x="167" y="205" type="curve" smooth="yes"/>
      <point x="167" y="147"/>
      <point x="214" y="111"/>
      <point x="266" y="111" type="curve" smooth="yes"/>
      <point x="330" y="111"/>
      <point x="398" y="151"/>
      <point x="398" y="246" type="curve" smooth="yes"/>
      <point x="398" y="295"/>
      <point x="360" y="339"/>
      <point x="305" y="339" type="curve" smooth="yes"/>
      <point x="301" y="339" type="line" smooth="yes"/>
      <point x="247" y="339"/>
      <point x="212" y="311"/>
      <point x="190" y="287" type="curve"/>
      <point x="71" y="305" type="line"/>
    </contour>
  </outline>
</glyph>
<glyph name="seven" format="1">
  <advance width="612"/>
  <unicode hex="0037"/>
  <outline>
    <contour>
      <point x="610" y="686" type="line"/>
      <point x="600" y="614" type="line"/>
      <point x="462" y="464"/>
      <point x="310" y="267"/>
      <point x="280" y="55" type="curve" smooth="yes"/>
      <point x="279" y="45"/>
      <point x="274" y="12"/>
      <point x="273" y="0" type="curve"/>
      <point x="105" y="0" type="line"/>
      <point x="135" y="213"/>
      <point x="287" y="411"/>
      <point x="420" y="555" type="curve"/>
      <point x="95" y="555" type="line"/>
      <point x="114" y="686" type="line"/>
    </contour>
  </outline>
</glyph>
<glyph name="eight" format="1">
  <advance width="612"/>
  <unicode hex="0038"/>
  <outline>
    <contour>
      <point x="453" y="352" type="curve"/>
      <point x="452" y="348" type="line"/>
      <point x="505" y="318"/>
      <point x="541" y="283"/>
      <point x="541" y="216" type="curve" smooth="yes"/>
      <point x="541" y="72"/>
      <point x="422" y="-10"/>
      <point x="256" y="-10" type="curve" smooth="yes"/>
      <point x="118" y="-10"/>
      <point x="27" y="50"/>
      <point x="27" y="157" type="curve" smooth="yes"/>
      <point x="27" y="262"/>
      <point x="86" y="312"/>
      <point x="160" y="348" type="curve"/>
      <point x="161" y="352" type="line"/>
      <point x="122" y="380"/>
      <point x="93" y="410"/>
      <point x="93" y="468" type="curve" smooth="yes"/>
      <point x="93" y="613"/>
      <point x="213" y="696"/>
      <point x="355" y="696" type="curve" smooth="yes"/>
      <point x="476" y="696"/>
      <point x="562" y="636"/>
      <point x="562" y="529" type="curve" smooth="yes"/>
      <point x="562" y="430"/>
      <point x="509" y="387"/>
    </contour>
    <contour>
      <point x="340" y="586" type="curve" smooth="yes"/>
      <point x="275" y="586"/>
      <point x="230" y="539"/>
      <point x="230" y="474" type="curve" smooth="yes"/>
      <point x="230" y="431"/>
      <point x="262" y="399"/>
      <point x="313" y="399" type="curve" smooth="yes"/>
      <point x="379" y="399"/>
      <point x="423" y="447"/>
      <point x="423" y="511" type="curve" smooth="yes"/>
      <point x="423" y="553"/>
      <point x="391" y="586"/>
    </contour>
    <contour>
      <point x="299" y="300" type="curve" smooth="yes"/>
      <point x="226" y="300"/>
      <point x="177" y="251"/>
      <point x="177" y="178" type="curve" smooth="yes"/>
      <point x="177" y="129"/>
      <point x="217" y="100"/>
      <point x="271" y="100" type="curve" smooth="yes"/>
      <point x="345" y="100"/>
      <point x="394" y="149"/>
      <point x="394" y="221" type="curve" smooth="yes"/>
      <point x="394" y="271"/>
      <point x="353" y="300"/>
    </contour>
  </outline>
</glyph>
<glyph name="nine" format="1">
  <advance width="612"/>
  <unicode hex="0039"/>
  <outline>
    <contour>
      <point x="272" y="110" type="curve" smooth="yes"/>
      <point x="331" y="110"/>
      <point x="386" y="155"/>
      <point x="394" y="214" type="curve" smooth="yes"/>
      <point x="408" y="311" type="line"/>
      <point x="366" y="272"/>
      <point x="310" y="252"/>
      <point x="260" y="252" type="curve" smooth="yes"/>
      <point x="148" y="252"/>
      <point x="65" y="318"/>
      <point x="65" y="428" type="curve" smooth="yes"/>
      <point x="65" y="592"/>
      <point x="190" y="696"/>
      <point x="347" y="696" type="curve" smooth="yes"/>
      <point x="361" y="696" type="line" smooth="yes"/>
      <point x="486" y="696"/>
      <point x="578" y="616"/>
      <point x="578" y="492" type="curve" smooth="yes"/>
      <point x="578" y="476"/>
      <point x="577" y="468"/>
      <point x="544" y="231" type="curve" smooth="yes"/>
      <point x="525" y="95"/>
      <point x="401" y="-10"/>
      <point x="265" y="-10" type="curve" smooth="yes"/>
      <point x="251" y="-10" type="line" smooth="yes"/>
      <point x="132" y="-10"/>
      <point x="44" y="57"/>
      <point x="44" y="178" type="curve" smooth="yes"/>
      <point x="44" y="190"/>
      <point x="45" y="203"/>
      <point x="47" y="217" type="curve"/>
      <point x="185" y="217" type="line"/>
      <point x="184" y="211"/>
      <point x="184" y="206"/>
      <point x="184" y="200" type="curve" smooth="yes"/>
      <point x="184" y="151"/>
      <point x="216" y="110"/>
    </contour>
    <contour>
      <point x="214" y="478" type="curve" smooth="yes"/>
      <point x="211" y="453"/>
      <point x="211" y="447"/>
      <point x="211" y="442" type="curve" smooth="yes"/>
      <point x="211" y="390"/>
      <point x="251" y="354"/>
      <point x="307" y="354" type="curve" smooth="yes"/>
      <point x="364" y="354"/>
      <point x="423" y="397"/>
      <point x="429" y="458" type="curve" smooth="yes"/>
      <point x="432" y="484"/>
      <point x="432" y="489"/>
      <point x="432" y="494" type="curve" smooth="yes"/>
      <point x="432" y="547"/>
      <point x="392" y="582"/>
      <point x="336" y="582" type="curve" smooth="yes"/>
      <point x="279" y="582"/>
      <point x="220" y="539"/>
    </contour>
  </outline>
</glyph>
<glyph name="colon" format="1">
  <advance width="277"/>
  <unicode hex="003A"/>
  <outline>
    <contour>
      <point x="246" y="511" type="line"/>
      <point x="226" y="363" type="line"/>
      <point x="80" y="363" type="line"/>
      <point x="100" y="511" type="line"/>
    </contour>
    <contour>
      <point x="195" y="147" type="line"/>
      <point x="175" y="0" type="line"/>
      <point x="29" y="0" type="line"/>
      <point x="49" y="147" type="line"/>
    </contour>
  </outline>
</glyph>
<glyph name="semicolon" format="1">
  <advance width="277"/>
  <unicode hex="003B"/>
  <outline>
    <contour>
      <point x="257" y="511" type="line"/>
      <point x="236" y="363" type="line"/>
      <point x="90" y="363" type="line"/>
      <point x="111" y="511" type="line"/>
    </contour>
    <contour>
      <point x="122" y="-144" type="line"/>
      <point x="49" y="-144" type="line"/>
      <point x="66" y="-96"/>
      <point x="84" y="-48"/>
      <point x="102" y="0" type="curve"/>
      <point x="39" y="0" type="line"/>
      <point x="59" y="147" type="line"/>
      <point x="205" y="147" type="line"/>
      <point x="188" y="24" type="line"/>
    </contour>
  </outline>
</glyph>
<glyph name="less" format="1">
  <advance width="599"/>
  <unicode hex="003C"/>
  <outline>
    <contour>
      <point x="590" y="512" type="line"/>
      <point x="574" y="398" type="line"/>
      <point x="164" y="254" type="line"/>
      <point x="533" y="110" type="line"/>
      <point x="517" y="-3" type="line"/>
      <point x="356" y="61"/>
      <point x="197" y="127"/>
      <point x="36" y="192" type="curve"/>
      <point x="53" y="315" type="line"/>
    </contour>
  </outline>
</glyph>
<glyph name="equal" format="1">
  <advance width="600"/>
  <unicode hex="003D"/>
  <outline>
    <contour>
      <point x="68" y="415" type="line"/>
      <point x="576" y="415" type="line"/>
      <point x="561" y="309" type="line"/>
      <point x="53" y="309" type="line"/>
    </contour>
    <contour>
      <point x="38" y="199" type="line"/>
      <point x="546" y="199" type="line"/>
      <point x="531" y="93" type="line"/>
      <point x="23" y="93" type="line"/>
    </contour>
  </outline>
</glyph>
<glyph name="greater" format="1">
  <advance width="600"/>
  <unicode hex="003E"/>
  <outline>
    <contour>
      <point x="562" y="315" type="line"/>
      <point x="545" y="192" type="line"/>
      <point x="366" y="127"/>
      <point x="187" y="61"/>
      <point x="8" y="-3" type="curve"/>
      <point x="24" y="110" type="line"/>
      <point x="432" y="254" type="line"/>
      <point x="309" y="302"/>
      <point x="187" y="349"/>
      <point x="65" y="398" type="curve"/>
      <point x="81" y="512" type="line"/>
    </contour>
  </outline>
</glyph>
<glyph name="question" format="1">
  <advance width="572"/>
  <unicode hex="003F"/>
  <outline>
    <contour>
      <point x="198" y="201" type="line"/>
      <point x="207" y="263" type="line" smooth="yes"/>
      <point x="221" y="362"/>
      <point x="382" y="393"/>
      <point x="383" y="504" type="curve" smooth="yes"/>
      <point x="383" y="542"/>
      <point x="356" y="582"/>
      <point x="302" y="582" type="curve" smooth="yes"/>
      <point x="217" y="582"/>
      <point x="195" y="515"/>
      <point x="193" y="452" type="curve"/>
      <point x="52" y="452" type="line"/>
      <point x="52" y="599"/>
      <point x="165" y="696"/>
      <point x="318" y="696" type="curve" smooth="yes"/>
      <point x="340" y="696" type="line" smooth="yes"/>
      <point x="473" y="696"/>
      <point x="538" y="605"/>
      <point x="538" y="516" type="curve" smooth="yes"/>
      <point x="538" y="337"/>
      <point x="348" y="310"/>
      <point x="338" y="237" type="curve" smooth="yes"/>
      <point x="333" y="201" type="line"/>
    </contour>
    <contour>
      <point x="314" y="0" type="curve"/>
      <point x="166" y="0" type="line"/>
      <point x="173" y="49"/>
      <point x="180" y="98"/>
      <point x="186" y="147" type="curve"/>
      <point x="334" y="147" type="line"/>
      <point x="327" y="98"/>
      <point x="320" y="49"/>
    </contour>
  </outline>
</glyph>
<glyph name="at" format="1">
  <advance width="927"/>
  <unicode hex="0040"/>
  <outline>
    <contour>
      <point x="702" y="394" type="curve" smooth="yes"/>
      <point x="702" y="328"/>
      <point x="673" y="194"/>
      <point x="669" y="146" type="curve" smooth="yes"/>
      <point x="669" y="123"/>
      <point x="681" y="113"/>
      <point x="699" y="113" type="curve" smooth="yes"/>
      <point x="780" y="113"/>
      <point x="823" y="268"/>
      <point x="823" y="387" type="curve" smooth="yes"/>
      <point x="823" y="564"/>
      <point x="704" y="639"/>
      <point x="526" y="639" type="curve" smooth="yes"/>
      <point x="285" y="639"/>
      <point x="104" y="481"/>
      <point x="104" y="170" type="curve" smooth="yes"/>
      <point x="104" y="-6"/>
      <point x="195" y="-95"/>
      <point x="388" y="-95" type="curve" smooth="yes"/>
      <point x="434" y="-95"/>
      <point x="519" y="-81"/>
      <point x="558" y="-63" type="curve"/>
      <point x="549" y="-126" type="line"/>
      <point x="504" y="-142"/>
      <point x="423" y="-153"/>
      <point x="380" y="-153" type="curve" smooth="yes"/>
      <point x="167" y="-153"/>
      <point x="38" y="-55"/>
      <point x="38" y="165" type="curve" smooth="yes"/>
      <point x="38" y="503"/>
      <point x="242" y="697"/>
      <point x="534" y="697" type="curve" smooth="yes"/>
      <point x="742" y="697"/>
      <point x="890" y="608"/>
      <point x="890" y="396" type="curve" smooth="yes"/>
      <point x="890" y="176"/>
      <point x="780" y="22"/>
      <point x="639" y="22" type="curve" smooth="yes"/>
      <point x="577" y="22"/>
      <point x="542" y="47"/>
      <point x="536" y="104" type="curve"/>
      <point x="488" y="56"/>
      <point x="440" y="22"/>
      <point x="363" y="22" type="curve" smooth="yes"/>
      <point x="287" y="22"/>
      <point x="217" y="48"/>
      <point x="217" y="147" type="curve" smooth="yes"/>
      <point x="217" y="298"/>
      <point x="364" y="324"/>
      <point x="560" y="324" type="curve"/>
      <point x="563" y="349"/>
      <point x="566" y="366"/>
      <point x="566" y="375" type="curve" smooth="yes"/>
      <point x="566" y="406"/>
      <point x="546" y="431"/>
      <point x="489" y="431" type="curve" smooth="yes"/>
      <point x="415" y="431"/>
      <point x="396" y="379"/>
      <point x="396" y="364" type="curve"/>
      <point x="264" y="364" type="line"/>
      <point x="264" y="453"/>
      <point x="360" y="521"/>
      <point x="495" y="521" type="curve" smooth="yes"/>
      <point x="515" y="521" type="line" smooth="yes"/>
      <point x="642" y="521"/>
      <point x="702" y="471"/>
    </contour>
    <contour>
      <point x="545" y="217" type="curve" smooth="yes"/>
      <point x="547" y="227"/>
      <point x="549" y="247"/>
      <point x="549" y="247" type="curve"/>
      <point x="430" y="247"/>
      <point x="360" y="224"/>
      <point x="360" y="166" type="curve" smooth="yes"/>
      <point x="360" y="126"/>
      <point x="387" y="114"/>
      <point x="431" y="114" type="curve" smooth="yes"/>
      <point x="481" y="114"/>
      <point x="535" y="152"/>
    </contour>
  </outline>
</glyph>
<glyph name="B" format="1">
  <advance width="645"/>
  <unicode hex="0042"/>
  <outline>
    <contour>
      <point x="120" y="686" type="line"/>
      <point x="454" y="686" type="line" smooth="yes"/>
      <point x="547" y="686"/>
      <point x="617" y="626"/>
      <point x="617" y="540" type="curve" smooth="yes"/>
      <point x="617" y="424"/>
      <point x="537" y="375"/>
      <point x="476" y="359" type="curve"/>
      <point x="475" y="352" type="line"/>
      <point x="527" y="341"/>
      <point x="587" y="307"/>
      <point x="587" y="216" type="curve" smooth="yes"/>
      <point x="587" y="95"/>
      <point x="495" y="0"/>
      <point x="369" y="0" type="curve" smooth="yes"/>
      <point x="23" y="0" type="line"/>
    </contour>
    <contour>
      <point x="226" y="408" type="curve"/>
      <point x="377" y="408" type="line" smooth="yes"/>
      <point x="426" y="408"/>
      <point x="465" y="454"/>
      <point x="465" y="503" type="curve" smooth="yes"/>
      <point x="465" y="547"/>
      <point x="437" y="568"/>
      <point x="399" y="568" type="curve" smooth="yes"/>
      <point x="248" y="568" type="line"/>
      <point x="241" y="515"/>
      <point x="233" y="462"/>
    </contour>
    <contour>
      <point x="186" y="124" type="curve"/>
      <point x="348" y="124" type="line" smooth="yes"/>
      <point x="398" y="124"/>
      <point x="439" y="158"/>
      <point x="439" y="221" type="curve" smooth="yes"/>
      <point x="439" y="258"/>
      <point x="411" y="291"/>
      <point x="371" y="291" type="curve" smooth="yes"/>
      <point x="209" y="291" type="line"/>
      <point x="202" y="235"/>
      <point x="194" y="179"/>
    </contour>
  </outline>
</glyph>
<glyph name="D" format="1">
  <advance width="686"/>
  <unicode hex="0044"/>
  <outline>
    <contour>
      <point x="120" y="686" type="line"/>
      <point x="395" y="686" type="line" smooth="yes"/>
      <point x="541" y="686"/>
      <point x="648" y="593"/>
      <point x="648" y="443" type="curve" smooth="yes"/>
      <point x="648" y="416"/>
      <point x="647" y="409"/>
      <point x="630" y="294" type="curve" smooth="yes"/>
      <point x="602" y="98"/>
      <point x="478" y="0"/>
      <point x="268" y="0" type="curve" smooth="yes"/>
      <point x="23" y="0" type="line"/>
    </contour>
    <contour>
      <point x="196" y="123" type="line"/>
      <point x="301" y="123" type="line" smooth="yes"/>
      <point x="388" y="123"/>
      <point x="451" y="174"/>
      <point x="466" y="272" type="curve" smooth="yes"/>
      <point x="480" y="364"/>
      <point x="488" y="406"/>
      <point x="488" y="449" type="curve" smooth="yes"/>
      <point x="488" y="520"/>
      <point x="437" y="563"/>
      <point x="363" y="563" type="curve" smooth="yes"/>
      <point x="257" y="563" type="line"/>
    </contour>
  </outline>
</glyph>
<glyph name="F" format="1">
  <advance width="563"/>
  <unicode hex="0046"/>
  <outline>
    <contour>
      <point x="254" y="563" type="line"/>
      <point x="231" y="399" type="line"/>
      <point x="497" y="399" type="line"/>
      <point x="480" y="276" type="line"/>
      <point x="214" y="276" type="line"/>
      <point x="175" y="0" type="line"/>
      <point x="23" y="0" type="line"/>
      <point x="120" y="686" type="line"/>
      <point x="584" y="686" type="line"/>
      <point x="550" y="563" type="line"/>
    </contour>
  </outline>
</glyph>
<glyph name="H" format="1">
  <advance width="691"/>
  <unicode hex="0048"/>
  <outline>
    <contour>
      <point x="455" y="286" type="line"/>
      <point x="218" y="286" type="line"/>
      <point x="178" y="0" type="line"/>
      <point x="23" y="0" type="line"/>
      <point x="120" y="686" type="line"/>
      <point x="274" y="686" type="line"/>
      <point x="235" y="414" type="line"/>
      <point x="473" y="414" type="line"/>
      <point x="512" y="686" type="line"/>
      <point x="666" y="686" type="line"/>
      <point x="569" y="0" type="line"/>
      <point x="415" y="0" type="line"/>
    </contour>
  </outline>
</glyph>
<glyph name="I" format="1">
  <advance width="461"/>
  <unicode hex="0049"/>
  <outline>
    <contour>
      <point x="436" y="686" type="line"/>
      <point x="418" y="563" type="line"/>
      <point x="338" y="563" type="line"/>
      <point x="277" y="123" type="line"/>
      <point x="357" y="123" type="line"/>
      <point x="339" y="0" type="line"/>
      <point x="23" y="0" type="line"/>
      <point x="41" y="123" type="line"/>
      <point x="122" y="123" type="line"/>
      <point x="183" y="563" type="line"/>
      <point x="102" y="563" type="line"/>
      <point x="120" y="686" type="line"/>
    </contour>
  </outline>
</glyph>
<glyph name="J" format="1">
  <advance width="527"/>
  <unicode hex="004A"/>
  <outline>
    <contour>
      <point x="-5" y="228" type="curve"/>
      <point x="139" y="228" type="line"/>
      <point x="139" y="228"/>
      <point x="132" y="198"/>
      <point x="132" y="178" type="curve" smooth="yes"/>
      <point x="132" y="142"/>
      <point x="156" y="113"/>
      <point x="200" y="113" type="curve" smooth="yes"/>
      <point x="242" y="113"/>
      <point x="276" y="142"/>
      <point x="282" y="187" type="curve" smooth="yes"/>
      <point x="352" y="686" type="line"/>
      <point x="503" y="686" type="line"/>
      <point x="433" y="183" type="line" smooth="yes"/>
      <point x="416" y="56"/>
      <point x="318" y="-10"/>
      <point x="198" y="-10" type="curve" smooth="yes"/>
      <point x="178" y="-10" type="line" smooth="yes"/>
      <point x="77" y="-10"/>
      <point x="-14" y="44"/>
      <point x="-14" y="147" type="curve" smooth="yes"/>
      <point x="-14" y="158"/>
      <point x="-14" y="179"/>
    </contour>
  </outline>
</glyph>
<glyph name="M" format="1">
  <advance width="967"/>
  <unicode hex="004D"/>
  <outline>
    <contour>
      <point x="762" y="505" type="line"/>
      <point x="757" y="505" type="line"/>
      <point x="508" y="0" type="line"/>
      <point x="346" y="0" type="line"/>
      <point x="239" y="505" type="line"/>
      <point x="234" y="505" type="line"/>
      <point x="163" y="0" type="line"/>
      <point x="23" y="0" type="line"/>
      <point x="120" y="686" type="line"/>
      <point x="369" y="686" type="line"/>
      <point x="465" y="233" type="line"/>
      <point x="469" y="233" type="line"/>
      <point x="693" y="686" type="line"/>
      <point x="942" y="686" type="line"/>
      <point x="845" y="0" type="line"/>
      <point x="691" y="0" type="line"/>
    </contour>
  </outline>
</glyph>
<glyph name="N" format="1">
  <advance width="691"/>
  <unicode hex="004E"/>
  <outline>
    <contour>
      <point x="438" y="0" type="line"/>
      <point x="268" y="316" type="line" smooth="yes"/>
      <point x="254" y="342"/>
      <point x="225" y="405"/>
      <point x="225" y="405" type="curve"/>
      <point x="221" y="402" type="line"/>
      <point x="164" y="0" type="line"/>
      <point x="23" y="0" type="line"/>
      <point x="120" y="686" type="line"/>
      <point x="251" y="686" type="line"/>
      <point x="422" y="368" type="line" smooth="yes"/>
      <point x="437" y="340"/>
      <point x="450" y="309"/>
      <point x="465" y="280" type="curve"/>
      <point x="468" y="283" type="line"/>
      <point x="525" y="686" type="line"/>
      <point x="666" y="686" type="line"/>
      <point x="569" y="0" type="line"/>
    </contour>
    <contour>
      <point x="310" y="0" type="move" name="Bottom"/>
    </contour>
  </outline>
</glyph>
<glyph name="P" format="1">
  <advance width="629"/>
  <unicode hex="0050"/>
  <outline>
    <contour>
      <point x="177" y="0" type="line"/>
      <point x="23" y="0" type="line"/>
      <point x="120" y="686" type="line"/>
      <point x="450" y="686" type="line" smooth="yes"/>
      <point x="555" y="686"/>
      <point x="631" y="613"/>
      <point x="631" y="511" type="curve" smooth="yes"/>
      <point x="631" y="371"/>
      <point x="535" y="265"/>
      <point x="391" y="265" type="curve" smooth="yes"/>
      <point x="214" y="265" type="line"/>
    </contour>
    <contour>
      <point x="231" y="386" type="line"/>
      <point x="372" y="386" type="line" smooth="yes"/>
      <point x="437" y="386"/>
      <point x="470" y="440"/>
      <point x="474" y="489" type="curve" smooth="yes"/>
      <point x="474" y="529"/>
      <point x="445" y="563"/>
      <point x="397" y="563" type="curve" smooth="yes"/>
      <point x="256" y="563" type="line"/>
    </contour>
  </outline>
</glyph>
<glyph name="Q" format="1">
  <advance width="708"/>
  <unicode hex="0051"/>
  <outline>
    <contour>
      <point x="663" y="294" type="curve" smooth="yes"/>
      <point x="639" y="129"/>
      <point x="543" y="32"/>
      <point x="404" y="1" type="curve"/>
      <point x="411" y="-25"/>
      <point x="432" y="-54"/>
      <point x="487" y="-54" type="curve" smooth="yes"/>
      <point x="534" y="-54"/>
      <point x="612" y="-29"/>
      <point x="612" y="-28" type="curve" smooth="yes"/>
      <point x="600" y="-116" type="line"/>
      <point x="600" y="-116"/>
      <point x="530" y="-153"/>
      <point x="438" y="-153" type="curve" smooth="yes"/>
      <point x="302" y="-153"/>
      <point x="256" y="-72"/>
      <point x="251" y="-6" type="curve"/>
      <point x="130" y="13"/>
      <point x="47" y="104"/>
      <point x="47" y="241" type="curve" smooth="yes"/>
      <point x="47" y="271"/>
      <point x="49" y="276"/>
      <point x="65" y="391" type="curve" smooth="yes"/>
      <point x="93" y="592"/>
      <point x="232" y="695"/>
      <point x="427" y="695" type="curve" smooth="yes"/>
      <point x="573" y="695"/>
      <point x="680" y="599"/>
      <point x="680" y="443" type="curve" smooth="yes"/>
      <point x="680" y="416"/>
      <point x="679" y="409"/>
    </contour>
    <contour>
      <point x="498" y="272" type="curve" smooth="yes"/>
      <point x="512" y="364"/>
      <point x="520" y="406"/>
      <point x="520" y="449" type="curve" smooth="yes"/>
      <point x="520" y="526"/>
      <point x="469" y="573"/>
      <point x="395" y="573" type="curve" smooth="yes"/>
      <point x="295" y="573"/>
      <point x="241" y="506"/>
      <point x="226" y="390" type="curve" smooth="yes"/>
      <point x="214" y="304"/>
      <point x="208" y="271"/>
      <point x="208" y="236" type="curve" smooth="yes"/>
      <point x="208" y="159"/>
      <point x="258" y="113"/>
      <point x="333" y="113" type="curve" smooth="yes"/>
      <point x="420" y="113"/>
      <point x="483" y="167"/>
    </contour>
  </outline>
</glyph>
<glyph name="T" format="1">
  <advance width="557"/>
  <unicode hex="0054"/>
  <outline>
    <contour>
      <point x="306" y="0" type="line"/>
      <point x="153" y="0" type="line"/>
      <point x="232" y="562" type="line"/>
      <point x="37" y="562" type="line"/>
      <point x="55" y="686" type="line"/>
      <point x="597" y="686" type="line"/>
      <point x="579" y="562" type="line"/>
      <point x="385" y="562" type="line"/>
    </contour>
    <contour>
      <point x="230" y="0" type="move" name="Bottom"/>
    </contour>
  </outline>
</glyph>
<glyph name="V" format="1">
  <advance width="643"/>
  <unicode hex="0056"/>
  <outline>
    <contour>
      <point x="535" y="686" type="line"/>
      <point x="683" y="686" type="line"/>
      <point x="360" y="0" type="line"/>
      <point x="183" y="0" type="line"/>
      <point x="55" y="686" type="line"/>
      <point x="217" y="686" type="line"/>
      <point x="304" y="196" type="line"/>
      <point x="309" y="196" type="line"/>
    </contour>
  </outline>
</glyph>
<glyph name="W" format="1">
  <advance width="972"/>
  <unicode hex="0057"/>
  <outline>
    <contour>
      <point x="321" y="0" type="line"/>
      <point x="150" y="0" type="line"/>
      <point x="55" y="686" type="line"/>
      <point x="216" y="686" type="line"/>
      <point x="235" y="536"/>
      <point x="255" y="386"/>
      <point x="274" y="237" type="curve"/>
      <point x="279" y="237" type="line"/>
      <point x="341" y="386"/>
      <point x="402" y="536"/>
      <point x="464" y="686" type="curve"/>
      <point x="619" y="686" type="line"/>
      <point x="638" y="536"/>
      <point x="658" y="386"/>
      <point x="677" y="237" type="curve"/>
      <point x="682" y="237" type="line"/>
      <point x="743" y="386"/>
      <point x="805" y="536"/>
      <point x="866" y="686" type="curve"/>
      <point x="1012" y="686" type="line"/>
      <point x="722" y="0" type="line"/>
      <point x="553" y="0" type="line"/>
      <point x="499" y="412" type="line"/>
      <point x="493" y="412" type="line"/>
    </contour>
  </outline>
</glyph>
<glyph name="X" format="1">
  <advance width="658"/>
  <unicode hex="0058"/>
  <outline>
    <contour>
      <point x="234" y="360" type="line"/>
      <point x="70" y="686" type="line"/>
      <point x="251" y="686" type="line"/>
      <point x="351" y="476" type="line"/>
      <point x="355" y="476" type="line"/>
      <point x="432" y="571"/>
      <point x="498" y="657"/>
      <point x="518" y="686" type="curve"/>
      <point x="685" y="686" type="line"/>
      <point x="685" y="686"/>
      <point x="538" y="499"/>
      <point x="428" y="362" type="curve"/>
      <point x="489" y="242"/>
      <point x="609" y="0"/>
      <point x="609" y="0" type="curve"/>
      <point x="428" y="0" type="line"/>
      <point x="311" y="245" type="line"/>
      <point x="307" y="245" type="line"/>
      <point x="222" y="137"/>
      <point x="142" y="35"/>
      <point x="118" y="0" type="curve"/>
      <point x="-48" y="0" type="line"/>
    </contour>
  </outline>
</glyph>
<glyph name="Y" format="1">
  <advance width="637"/>
  <unicode hex="0059"/>
  <outline>
    <contour>
      <point x="347" y="0" type="line"/>
      <point x="193" y="0" type="line"/>
      <point x="230" y="263" type="line"/>
      <point x="55" y="686" type="line"/>
      <point x="229" y="686" type="line"/>
      <point x="333" y="414" type="line"/>
      <point x="338" y="414" type="line"/>
      <point x="520" y="686" type="line"/>
      <point x="678" y="686" type="line"/>
      <point x="384" y="263" type="line"/>
    </contour>
  </outline>
</glyph>
<glyph name="Z" format="1">
  <advance width="631"/>
  <unicode hex="005A"/>
  <outline>
    <contour>
      <point x="0" y="49" type="line"/>
      <point x="388" y="563" type="line"/>
      <point x="96" y="563" type="line"/>
      <point x="114" y="686" type="line"/>
      <point x="629" y="686" type="line"/>
      <point x="622" y="636" type="line"/>
      <point x="235" y="123" type="line"/>
      <point x="558" y="123" type="line"/>
      <point x="540" y="0" type="line"/>
      <point x="-6" y="0" type="line"/>
    </contour>
  </outline>
</glyph>
<glyph name="bracketleft" format="1">
  <advance width="338"/>
  <unicode hex="005B"/>
  <outline>
    <contour>
      <point x="121" y="686" type="line"/>
      <point x="324" y="686" type="line"/>
      <point x="314" y="617" type="line"/>
      <point x="226" y="617" type="line"/>
      <point x="127" y="-92" type="line"/>
      <point x="215" y="-92" type="line"/>
      <point x="205" y="-161" type="line"/>
      <point x="2" y="-161" type="line"/>
    </contour>
  </outline>
</glyph>
<glyph name="backslash" format="1">
  <advance width="560"/>
  <unicode hex="005C"/>
  <outline>
    <contour>
      <point x="155" y="686" type="line"/>
      <point x="524" y="-171" type="line"/>
      <point x="417" y="-171" type="line"/>
      <point x="49" y="686" type="line"/>
    </contour>
  </outline>
</glyph>
<glyph name="bracketright" format="1">
  <advance width="338"/>
  <unicode hex="005D"/>
  <outline>
    <contour>
      <point x="21" y="-92" type="line"/>
      <point x="109" y="-92" type="line"/>
      <point x="208" y="617" type="line"/>
      <point x="120" y="617" type="line"/>
      <point x="130" y="686" type="line"/>
      <point x="333" y="686" type="line"/>
      <point x="214" y="-161" type="line"/>
      <point x="11" y="-161" type="line"/>
    </contour>
  </outline>
</glyph>
<glyph name="asciicircum" format="1">
  <advance width="598"/>
  <unicode hex="005E"/>
  <outline>
    <contour>
      <point x="520" y="0" type="line"/>
      <point x="409" y="0" type="line"/>
      <point x="378" y="128"/>
      <point x="347" y="256"/>
      <point x="317" y="385" type="curve"/>
      <point x="250" y="256"/>
      <point x="184" y="128"/>
      <point x="117" y="0" type="curve"/>
      <point x="5" y="0" type="line"/>
      <point x="273" y="511" type="line"/>
      <point x="394" y="511" type="line"/>
    </contour>
  </outline>
</glyph>
<glyph name="grave" format="1">
  <advance width="333"/>
  <unicode hex="0060"/>
  <outline>
    <contour>
      <point x="60" y="717" type="line"/>
      <point x="62" y="720" type="line"/>
      <point x="190" y="720" type="line"/>
      <point x="262" y="575" type="line"/>
      <point x="160" y="575" type="line"/>
    </contour>
  </outline>
</glyph>
<glyph name="b" format="1">
  <advance width="595"/>
  <unicode hex="0062"/>
  <outline>
    <contour>
      <point x="263" y="720" type="line"/>
      <point x="225" y="452" type="line"/>
      <point x="255" y="485"/>
      <point x="308" y="521"/>
      <point x="378" y="521" type="curve" smooth="yes"/>
      <point x="473" y="521"/>
      <point x="543" y="455"/>
      <point x="543" y="324" type="curve" smooth="yes"/>
      <point x="543" y="167"/>
      <point x="468" y="-10"/>
      <point x="288" y="-10" type="curve" smooth="yes"/>
      <point x="214" y="-10"/>
      <point x="161" y="21"/>
      <point x="131" y="78" type="curve"/>
      <point x="69" y="0" type="line"/>
      <point x="16" y="0" type="line"/>
      <point x="117" y="720" type="line"/>
    </contour>
    <contour>
      <point x="383" y="211" type="curve" smooth="yes"/>
      <point x="396" y="304"/>
      <point x="397" y="313"/>
      <point x="397" y="322" type="curve" smooth="yes"/>
      <point x="397" y="384"/>
      <point x="363" y="415"/>
      <point x="316" y="415" type="curve" smooth="yes"/>
      <point x="261" y="415"/>
      <point x="215" y="375"/>
      <point x="203" y="294" type="curve" smooth="yes"/>
      <point x="190" y="201"/>
      <point x="189" y="192"/>
      <point x="189" y="183" type="curve" smooth="yes"/>
      <point x="189" y="121"/>
      <point x="222" y="90"/>
      <point x="270" y="90" type="curve" smooth="yes"/>
      <point x="324" y="90"/>
      <point x="371" y="130"/>
    </contour>
  </outline>
</glyph>
<glyph name="d" format="1">
  <advance width="595"/>
  <unicode hex="0064"/>
  <outline>
    <contour>
      <point x="434" y="720" type="line"/>
      <point x="580" y="720" type="line"/>
      <point x="580" y="720"/>
      <point x="495" y="127"/>
      <point x="495" y="117" type="curve" smooth="yes"/>
      <point x="495" y="100"/>
      <point x="504" y="90"/>
      <point x="520" y="90" type="curve" smooth="yes"/>
      <point x="534" y="90"/>
      <point x="552" y="97"/>
      <point x="562" y="104" type="curve"/>
      <point x="548" y="11" type="line"/>
      <point x="527" y="0"/>
      <point x="492" y="-10"/>
      <point x="458" y="-10" type="curve" smooth="yes"/>
      <point x="393" y="-10"/>
      <point x="360" y="14"/>
      <point x="353" y="59" type="curve"/>
      <point x="315" y="19"/>
      <point x="267" y="-10"/>
      <point x="203" y="-10" type="curve" smooth="yes"/>
      <point x="100" y="-10"/>
      <point x="23" y="54"/>
      <point x="23" y="192" type="curve" smooth="yes"/>
      <point x="23" y="326"/>
      <point x="86" y="521"/>
      <point x="263" y="521" type="curve" smooth="yes"/>
      <point x="333" y="521"/>
      <point x="376" y="485"/>
      <point x="396" y="452" type="curve"/>
    </contour>
    <contour>
      <point x="362" y="211" type="curve" smooth="yes"/>
      <point x="375" y="304"/>
      <point x="376" y="313"/>
      <point x="376" y="322" type="curve" smooth="yes"/>
      <point x="376" y="384"/>
      <point x="342" y="415"/>
      <point x="295" y="415" type="curve" smooth="yes"/>
      <point x="240" y="415"/>
      <point x="194" y="375"/>
      <point x="182" y="294" type="curve" smooth="yes"/>
      <point x="169" y="201"/>
      <point x="168" y="192"/>
      <point x="168" y="183" type="curve" smooth="yes"/>
      <point x="168" y="121"/>
      <point x="201" y="90"/>
      <point x="249" y="90" type="curve" smooth="yes"/>
      <point x="303" y="90"/>
      <point x="350" y="130"/>
    </contour>
  </outline>
</glyph>
<glyph name="e" format="1">
  <advance width="584"/>
  <unicode hex="0065"/>
  <outline>
    <contour>
      <point x="390" y="191" type="curve"/>
      <point x="530" y="191" type="line"/>
      <point x="511" y="50"/>
      <point x="389" y="-10"/>
      <point x="271" y="-10" type="curve" smooth="yes"/>
      <point x="255" y="-10" type="line" smooth="yes"/>
      <point x="127" y="-10"/>
      <point x="37" y="65"/>
      <point x="37" y="197" type="curve" smooth="yes"/>
      <point x="37" y="385"/>
      <point x="148" y="521"/>
      <point x="330" y="521" type="curve" smooth="yes"/>
      <point x="346" y="521" type="line" smooth="yes"/>
      <point x="458" y="521"/>
      <point x="550" y="456"/>
      <point x="550" y="340" type="curve" smooth="yes"/>
      <point x="550" y="329"/>
      <point x="549" y="318"/>
      <point x="548" y="307" type="curve" smooth="yes"/>
      <point x="537" y="231" type="line"/>
      <point x="187" y="231" type="line"/>
      <point x="184" y="219"/>
      <point x="182" y="193"/>
      <point x="182" y="186" type="curve" smooth="yes"/>
      <point x="182" y="131"/>
      <point x="215" y="90"/>
      <point x="277" y="90" type="curve" smooth="yes"/>
      <point x="337" y="90"/>
      <point x="381" y="123"/>
    </contour>
    <contour>
      <point x="317" y="421" type="curve" smooth="yes"/>
      <point x="257" y="421"/>
      <point x="212" y="373"/>
      <point x="198" y="311" type="curve"/>
      <point x="400" y="311" type="line"/>
      <point x="401" y="320"/>
      <point x="402" y="329"/>
      <point x="402" y="338" type="curve" smooth="yes"/>
      <point x="402" y="387"/>
      <point x="379" y="421"/>
    </contour>
    <contour>
      <point x="256" y="0" type="move" name="Bottom"/>
    </contour>
  </outline>
</glyph>
<glyph name="g" format="1">
  <advance width="572"/>
  <unicode hex="0067"/>
  <outline>
    <contour>
      <point x="28" y="-19" type="curve"/>
      <point x="174" y="-19" type="line"/>
      <point x="174" y="-55"/>
      <point x="202" y="-87"/>
      <point x="257" y="-87" type="curve" smooth="yes"/>
      <point x="361" y="-87"/>
      <point x="361" y="24"/>
      <point x="369" y="88" type="curve"/>
      <point x="333" y="48"/>
      <point x="279" y="19"/>
      <point x="216" y="19" type="curve" smooth="yes"/>
      <point x="110" y="19"/>
      <point x="50" y="98"/>
      <point x="50" y="212" type="curve" smooth="yes"/>
      <point x="50" y="362"/>
      <point x="127" y="521"/>
      <point x="303" y="521" type="curve" smooth="yes"/>
      <point x="373" y="521"/>
      <point x="429" y="492"/>
      <point x="460" y="433" type="curve"/>
      <point x="480" y="459"/>
      <point x="501" y="485"/>
      <point x="522" y="511" type="curve"/>
      <point x="575" y="511" type="line"/>
      <point x="508" y="37" type="line" smooth="yes"/>
      <point x="489" y="-102"/>
      <point x="398" y="-186"/>
      <point x="248" y="-186" type="curve" smooth="yes"/>
      <point x="120" y="-186"/>
      <point x="28" y="-129"/>
    </contour>
    <contour>
      <point x="208" y="309" type="curve" smooth="yes"/>
      <point x="195" y="222"/>
      <point x="194" y="214"/>
      <point x="194" y="206" type="curve" smooth="yes"/>
      <point x="194" y="148"/>
      <point x="228" y="119"/>
      <point x="276" y="119" type="curve" smooth="yes"/>
      <point x="331" y="119"/>
      <point x="379" y="156"/>
      <point x="390" y="231" type="curve" smooth="yes"/>
      <point x="394" y="259"/>
      <point x="402" y="303"/>
      <point x="402" y="326" type="curve" smooth="yes"/>
      <point x="402" y="390"/>
      <point x="371" y="421"/>
      <point x="322" y="421" type="curve" smooth="yes"/>
      <point x="268" y="421"/>
      <point x="220" y="384"/>
    </contour>
  </outline>
</glyph>
<glyph name="h" format="1">
  <advance width="598"/>
  <unicode hex="0068"/>
  <outline>
    <contour>
      <point x="262" y="720" type="line"/>
      <point x="226" y="461" type="line"/>
      <point x="262" y="494"/>
      <point x="312" y="521"/>
      <point x="376" y="521" type="curve" smooth="yes"/>
      <point x="465" y="521"/>
      <point x="534" y="477"/>
      <point x="534" y="386" type="curve" smooth="yes"/>
      <point x="534" y="366"/>
      <point x="533" y="367"/>
      <point x="482" y="0" type="curve"/>
      <point x="336" y="0" type="line"/>
      <point x="383" y="330"/>
      <point x="383" y="335"/>
      <point x="383" y="340" type="curve" smooth="yes"/>
      <point x="383" y="384"/>
      <point x="356" y="415"/>
      <point x="314" y="415" type="curve" smooth="yes"/>
      <point x="263" y="415"/>
      <point x="213" y="371"/>
      <point x="205" y="314" type="curve" smooth="yes"/>
      <point x="161" y="0" type="line"/>
      <point x="15" y="0" type="line"/>
      <point x="116" y="720" type="line"/>
    </contour>
  </outline>
</glyph>
<glyph name="i" format="1">
  <advance width="278"/>
  <unicode hex="0069"/>
  <outline>
    <contour>
      <point x="263" y="720" type="line"/>
      <point x="247" y="605" type="line"/>
      <point x="99" y="605" type="line"/>
      <point x="115" y="720" type="line"/>
    </contour>
    <contour>
      <point x="87" y="511" type="line"/>
      <point x="233" y="511" type="line"/>
      <point x="161" y="0" type="line"/>
      <point x="15" y="0" type="line"/>
    </contour>
  </outline>
</glyph>
<glyph name="j" format="1">
  <advance width="280"/>
  <unicode hex="006A"/>
  <outline>
    <contour>
      <point x="277" y="720" type="line"/>
      <point x="261" y="605" type="line"/>
      <point x="113" y="605" type="line"/>
      <point x="129" y="720" type="line"/>
    </contour>
    <contour>
      <point x="247" y="510" type="line"/>
      <point x="172" y="-20" type="line" smooth="yes"/>
      <point x="156" y="-133"/>
      <point x="96" y="-186"/>
      <point x="-4" y="-186" type="curve" smooth="yes"/>
      <point x="-35" y="-186"/>
      <point x="-85" y="-179"/>
      <point x="-110" y="-166" type="curve"/>
      <point x="-97" y="-73" type="line"/>
      <point x="-83" y="-80"/>
      <point x="-53" y="-86"/>
      <point x="-38" y="-86" type="curve" smooth="yes"/>
      <point x="-10" y="-86"/>
      <point x="18" y="-77"/>
      <point x="26" y="-18" type="curve" smooth="yes"/>
      <point x="101" y="510" type="line"/>
    </contour>
  </outline>
</glyph>
<glyph name="k" format="1">
  <advance width="562"/>
  <unicode hex="006B"/>
  <outline>
    <contour>
      <point x="241" y="167" type="line"/>
      <point x="177" y="112" type="line"/>
      <point x="161" y="0" type="line"/>
      <point x="15" y="0" type="line"/>
      <point x="116" y="720" type="line"/>
      <point x="262" y="720" type="line"/>
      <point x="199" y="273" type="line"/>
      <point x="412" y="511" type="line"/>
      <point x="577" y="511" type="line"/>
      <point x="355" y="271" type="line"/>
      <point x="513" y="0" type="line"/>
      <point x="339" y="0" type="line"/>
    </contour>
    <contour>
      <point x="245" y="0" type="move" name="Bottom"/>
    </contour>
  </outline>
</glyph>
<glyph name="l" format="1">
  <advance width="279"/>
  <unicode hex="006C"/>
  <outline>
    <contour>
      <point x="116" y="720" type="line"/>
      <point x="262" y="720" type="line"/>
      <point x="161" y="0" type="line"/>
      <point x="15" y="0" type="line"/>
    </contour>
    <contour>
      <point x="104" y="0" type="move" name="Bottom"/>
    </contour>
  </outline>
</glyph>
<glyph name="m" format="1">
  <advance width="870"/>
  <unicode hex="006D"/>
  <outline>
    <contour>
      <point x="378" y="521" type="curve" smooth="yes"/>
      <point x="442" y="521"/>
      <point x="494" y="493"/>
      <point x="515" y="439" type="curve"/>
      <point x="560" y="497"/>
      <point x="615" y="521"/>
      <point x="675" y="521" type="curve" smooth="yes"/>
      <point x="758" y="521"/>
      <point x="821" y="474"/>
      <point x="821" y="386" type="curve" smooth="yes"/>
      <point x="821" y="354"/>
      <point x="820" y="367"/>
      <point x="769" y="0" type="curve"/>
      <point x="623" y="0" type="line"/>
      <point x="670" y="336"/>
      <point x="670" y="338"/>
      <point x="670" y="349" type="curve" smooth="yes"/>
      <point x="670" y="392"/>
      <point x="649" y="415"/>
      <point x="613" y="415" type="curve" smooth="yes"/>
      <point x="567" y="415"/>
      <point x="524" y="374"/>
      <point x="516" y="317" type="curve" smooth="yes"/>
      <point x="472" y="0" type="line"/>
      <point x="326" y="0" type="line"/>
      <point x="373" y="335"/>
      <point x="373" y="338"/>
      <point x="373" y="349" type="curve" smooth="yes"/>
      <point x="373" y="392"/>
      <point x="351" y="415"/>
      <point x="315" y="415" type="curve" smooth="yes"/>
      <point x="269" y="415"/>
      <point x="227" y="374"/>
      <point x="219" y="317" type="curve" smooth="yes"/>
      <point x="175" y="0" type="line"/>
      <point x="29" y="0" type="line"/>
      <point x="101" y="511" type="line"/>
      <point x="211" y="511" type="line"/>
      <point x="213" y="486"/>
      <point x="215" y="461"/>
      <point x="216" y="436" type="curve"/>
      <point x="261" y="494"/>
      <point x="318" y="521"/>
    </contour>
  </outline>
</glyph>
<glyph name="o" format="1">
  <advance width="602"/>
  <unicode hex="006F"/>
  <outline>
    <contour>
      <point x="564" y="314" type="curve" smooth="yes"/>
      <point x="564" y="129"/>
      <point x="461" y="-10"/>
      <point x="271" y="-10" type="curve" smooth="yes"/>
      <point x="255" y="-10" type="line" smooth="yes"/>
      <point x="127" y="-10"/>
      <point x="37" y="65"/>
      <point x="37" y="197" type="curve" smooth="yes"/>
      <point x="37" y="391"/>
      <point x="148" y="521"/>
      <point x="330" y="521" type="curve" smooth="yes"/>
      <point x="346" y="521" type="line" smooth="yes"/>
      <point x="473" y="521"/>
      <point x="564" y="446"/>
    </contour>
    <contour>
      <point x="405" y="215" type="curve" smooth="yes"/>
      <point x="417" y="306"/>
      <point x="418" y="315"/>
      <point x="418" y="323" type="curve" smooth="yes"/>
      <point x="418" y="389"/>
      <point x="379" y="421"/>
      <point x="324" y="421" type="curve" smooth="yes"/>
      <point x="262" y="421"/>
      <point x="207" y="380"/>
      <point x="196" y="296" type="curve" smooth="yes"/>
      <point x="184" y="205"/>
      <point x="183" y="196"/>
      <point x="183" y="188" type="curve" smooth="yes"/>
      <point x="183" y="122"/>
      <point x="222" y="90"/>
      <point x="277" y="90" type="curve" smooth="yes"/>
      <point x="337" y="90"/>
      <point x="393" y="131"/>
    </contour>
  </outline>
</glyph>
<glyph name="p" format="1">
  <advance width="595"/>
  <unicode hex="0070"/>
  <outline>
    <contour>
      <point x="113" y="511" type="line"/>
      <point x="228" y="511" type="line"/>
      <point x="230" y="490"/>
      <point x="233" y="469"/>
      <point x="234" y="447" type="curve"/>
      <point x="272" y="489"/>
      <point x="322" y="521"/>
      <point x="389" y="521" type="curve" smooth="yes"/>
      <point x="492" y="521"/>
      <point x="568" y="457"/>
      <point x="568" y="319" type="curve" smooth="yes"/>
      <point x="568" y="166"/>
      <point x="500" y="-10"/>
      <point x="329" y="-10" type="curve" smooth="yes"/>
      <point x="259" y="-10"/>
      <point x="216" y="26"/>
      <point x="196" y="59" type="curve"/>
      <point x="162" y="-181" type="line"/>
      <point x="16" y="-181" type="line"/>
    </contour>
    <contour>
      <point x="230" y="300" type="curve" smooth="yes"/>
      <point x="217" y="207"/>
      <point x="216" y="198"/>
      <point x="216" y="189" type="curve" smooth="yes"/>
      <point x="216" y="127"/>
      <point x="250" y="96"/>
      <point x="297" y="96" type="curve" smooth="yes"/>
      <point x="352" y="96"/>
      <point x="398" y="136"/>
      <point x="410" y="217" type="curve" smooth="yes"/>
      <point x="423" y="310"/>
      <point x="424" y="319"/>
      <point x="424" y="328" type="curve" smooth="yes"/>
      <point x="424" y="390"/>
      <point x="391" y="421"/>
      <point x="343" y="421" type="curve" smooth="yes"/>
      <point x="289" y="421"/>
      <point x="242" y="381"/>
    </contour>
  </outline>
</glyph>
<glyph name="q" format="1">
  <advance width="595"/>
  <unicode hex="0071"/>
  <outline>
    <contour>
      <point x="332" y="-180" type="line"/>
      <point x="366" y="59" type="line"/>
      <point x="336" y="26"/>
      <point x="283" y="-10"/>
      <point x="213" y="-10" type="curve" smooth="yes"/>
      <point x="118" y="-10"/>
      <point x="48" y="56"/>
      <point x="48" y="187" type="curve" smooth="yes"/>
      <point x="48" y="344"/>
      <point x="123" y="521"/>
      <point x="303" y="521" type="curve" smooth="yes"/>
      <point x="377" y="521"/>
      <point x="430" y="490"/>
      <point x="460" y="433" type="curve"/>
      <point x="522" y="511" type="line"/>
      <point x="575" y="511" type="line"/>
      <point x="478" y="-180" type="line"/>
    </contour>
    <contour>
      <point x="208" y="300" type="curve" smooth="yes"/>
      <point x="195" y="207"/>
      <point x="194" y="198"/>
      <point x="194" y="189" type="curve" smooth="yes"/>
      <point x="194" y="127"/>
      <point x="228" y="96"/>
      <point x="275" y="96" type="curve" smooth="yes"/>
      <point x="330" y="96"/>
      <point x="376" y="136"/>
      <point x="388" y="217" type="curve" smooth="yes"/>
      <point x="401" y="310"/>
      <point x="402" y="319"/>
      <point x="402" y="328" type="curve" smooth="yes"/>
      <point x="402" y="390"/>
      <point x="369" y="421"/>
      <point x="321" y="421" type="curve" smooth="yes"/>
      <point x="267" y="421"/>
      <point x="220" y="381"/>
    </contour>
  </outline>
</glyph>
<glyph name="r" format="1">
  <advance width="489"/>
  <unicode hex="0072"/>
  <outline>
    <contour>
      <point x="482" y="313" type="curve"/>
      <point x="360" y="313" type="line"/>
      <point x="364" y="341"/>
      <point x="364" y="346"/>
      <point x="364" y="351" type="curve" smooth="yes"/>
      <point x="364" y="382"/>
      <point x="349" y="412"/>
      <point x="303" y="412" type="curve" smooth="yes"/>
      <point x="253" y="412"/>
      <point x="224" y="367"/>
      <point x="217" y="316" type="curve" smooth="yes"/>
      <point x="173" y="0" type="line"/>
      <point x="29" y="0" type="line"/>
      <point x="101" y="511" type="line"/>
      <point x="209" y="511" type="line"/>
      <point x="216" y="436" type="line"/>
      <point x="222" y="447"/>
      <point x="275" y="521"/>
      <point x="371" y="521" type="curve" smooth="yes"/>
      <point x="454" y="521"/>
      <point x="495" y="470"/>
      <point x="495" y="396" type="curve" smooth="yes"/>
      <point x="495" y="376"/>
      <point x="486" y="323"/>
    </contour>
    <contour>
      <point x="101" y="0" type="move" name="Bottom"/>
    </contour>
  </outline>
</glyph>
<glyph name="u" format="1">
  <advance width="612"/>
  <unicode hex="0075"/>
  <outline>
    <contour>
      <point x="421" y="511" type="line"/>
      <point x="567" y="511" type="line"/>
      <point x="512" y="118"/>
      <point x="511" y="119"/>
      <point x="511" y="114" type="curve" smooth="yes"/>
      <point x="511" y="96"/>
      <point x="525" y="90"/>
      <point x="537" y="90" type="curve" smooth="yes"/>
      <point x="552" y="90"/>
      <point x="573" y="98"/>
      <point x="579" y="101" type="curve"/>
      <point x="567" y="11" type="line"/>
      <point x="559" y="7"/>
      <point x="526" y="-10"/>
      <point x="476" y="-10" type="curve" smooth="yes"/>
      <point x="406" y="-10"/>
      <point x="374" y="18"/>
      <point x="370" y="63" type="curve"/>
      <point x="332" y="25"/>
      <point x="278" y="-10"/>
      <point x="206" y="-10" type="curve" smooth="yes"/>
      <point x="117" y="-10"/>
      <point x="48" y="33"/>
      <point x="48" y="125" type="curve" smooth="yes"/>
      <point x="48" y="142"/>
      <point x="48" y="144"/>
      <point x="100" y="511" type="curve"/>
      <point x="246" y="511" type="line"/>
      <point x="199" y="181"/>
      <point x="199" y="179"/>
      <point x="199" y="170" type="curve" smooth="yes"/>
      <point x="199" y="119"/>
      <point x="226" y="96"/>
      <point x="268" y="96" type="curve" smooth="yes"/>
      <point x="319" y="96"/>
      <point x="369" y="140"/>
      <point x="377" y="197" type="curve" smooth="yes"/>
    </contour>
  </outline>
</glyph>
<glyph name="v" format="1">
  <advance width="536"/>
  <unicode hex="0076"/>
  <outline>
    <contour>
      <point x="149" y="0" type="line"/>
      <point x="41" y="511" type="line"/>
      <point x="196" y="511" type="line"/>
      <point x="259" y="169" type="line"/>
      <point x="264" y="169" type="line"/>
      <point x="423" y="511" type="line"/>
      <point x="565" y="511" type="line"/>
      <point x="314" y="0" type="line"/>
    </contour>
  </outline>
</glyph>
<glyph name="w" format="1">
  <advance width="820"/>
  <unicode hex="0077"/>
  <outline>
    <contour>
      <point x="289" y="0" type="line"/>
      <point x="126" y="0" type="line"/>
      <point x="41" y="511" type="line"/>
      <point x="192" y="511" type="line"/>
      <point x="208" y="405"/>
      <point x="222" y="300"/>
      <point x="236" y="195" type="curve"/>
      <point x="242" y="195" type="line"/>
      <point x="287" y="300"/>
      <point x="333" y="405"/>
      <point x="377" y="511" type="curve"/>
      <point x="523" y="511" type="line"/>
      <point x="539" y="405"/>
      <point x="553" y="300"/>
      <point x="568" y="195" type="curve"/>
      <point x="574" y="195" type="line"/>
      <point x="619" y="300"/>
      <point x="664" y="405"/>
      <point x="707" y="511" type="curve"/>
      <point x="849" y="511" type="line"/>
      <point x="622" y="0" type="line"/>
      <point x="461" y="0" type="line"/>
      <point x="417" y="285" type="line"/>
      <point x="411" y="285" type="line"/>
    </contour>
  </outline>
</glyph>
<glyph name="x" format="1">
  <advance width="553"/>
  <unicode hex="0078"/>
  <outline>
    <contour>
      <point x="186" y="264" type="line"/>
      <point x="55" y="511" type="line"/>
      <point x="225" y="511" type="line"/>
      <point x="250" y="462"/>
      <point x="272" y="413"/>
      <point x="296" y="365" type="curve"/>
      <point x="300" y="365" type="line"/>
      <point x="339" y="413"/>
      <point x="376" y="462"/>
      <point x="413" y="511" type="curve"/>
      <point x="571" y="511" type="line"/>
      <point x="370" y="265" type="line"/>
      <point x="510" y="0" type="line"/>
      <point x="341" y="0" type="line"/>
      <point x="260" y="165" type="line"/>
      <point x="256" y="165" type="line"/>
      <point x="128" y="0" type="line"/>
      <point x="-29" y="0" type="line"/>
    </contour>
  </outline>
</glyph>
<glyph name="y" format="1">
  <advance width="536"/>
  <unicode hex="0079"/>
  <outline>
    <contour>
      <point x="579" y="511" type="line"/>
      <point x="329" y="28" type="line" smooth="yes"/>
      <point x="267" y="-92"/>
      <point x="186" y="-187"/>
      <point x="77" y="-187" type="curve" smooth="yes"/>
      <point x="42" y="-187"/>
      <point x="14" y="-182"/>
      <point x="-5" y="-172" type="curve"/>
      <point x="8" y="-69" type="line"/>
      <point x="21" y="-75"/>
      <point x="49" y="-83"/>
      <point x="73" y="-83" type="curve" smooth="yes"/>
      <point x="116" y="-83"/>
      <point x="150" y="-53"/>
      <point x="177" y="10" type="curve"/>
      <point x="55" y="511" type="line"/>
      <point x="210" y="511" type="line"/>
      <point x="277" y="190" type="line"/>
      <point x="283" y="190" type="line"/>
      <point x="435" y="511" type="line"/>
    </contour>
  </outline>
</glyph>
<glyph name="z" format="1">
  <advance width="486"/>
  <unicode hex="007A"/>
  <outline>
    <contour>
      <point x="7" y="50" type="line"/>
      <point x="275" y="411" type="line"/>
      <point x="70" y="411" type="line"/>
      <point x="84" y="511" type="line"/>
      <point x="482" y="511" type="line"/>
      <point x="476" y="462" type="line"/>
      <point x="206" y="100" type="line"/>
      <point x="433" y="100" type="line"/>
      <point x="419" y="0" type="line"/>
      <point x="0" y="0" type="line"/>
    </contour>
  </outline>
</glyph>
<glyph name="braceleft" format="1">
  <advance width="347"/>
  <unicode hex="007B"/>
  <outline>
    <contour>
      <point x="34" y="224" type="curve"/>
      <point x="45" y="303" type="line"/>
      <point x="80" y="303"/>
      <point x="124" y="319"/>
      <point x="130" y="360" type="curve" smooth="yes"/>
      <point x="158" y="560" type="line" smooth="yes"/>
      <point x="174" y="678"/>
      <point x="283" y="686"/>
      <point x="366" y="686" type="curve"/>
      <point x="358" y="627" type="line"/>
      <point x="311" y="627"/>
      <point x="280" y="618"/>
      <point x="267" y="545" type="curve" smooth="yes"/>
      <point x="236" y="371" type="line" smooth="yes"/>
      <point x="224" y="306"/>
      <point x="192" y="268"/>
      <point x="126" y="268" type="curve"/>
      <point x="125" y="259" type="line"/>
      <point x="183" y="259"/>
      <point x="206" y="229"/>
      <point x="206" y="178" type="curve" smooth="yes"/>
      <point x="206" y="119"/>
      <point x="187" y="17"/>
      <point x="187" y="-39" type="curve" smooth="yes"/>
      <point x="187" y="-93"/>
      <point x="213" y="-100"/>
      <point x="255" y="-100" type="curve"/>
      <point x="247" y="-159" type="line"/>
      <point x="172" y="-159"/>
      <point x="73" y="-153"/>
      <point x="73" y="-57" type="curve" smooth="yes"/>
      <point x="73" y="-46"/>
      <point x="74" y="-42"/>
      <point x="103" y="168" type="curve"/>
      <point x="103" y="210"/>
      <point x="72" y="224"/>
    </contour>
  </outline>
</glyph>
<glyph name="braceright" format="1">
  <advance width="347"/>
  <unicode hex="007D"/>
  <outline>
    <contour>
      <point x="311" y="303" type="curve"/>
      <point x="300" y="224" type="line"/>
      <point x="265" y="224"/>
      <point x="221" y="208"/>
      <point x="215" y="167" type="curve" smooth="yes"/>
      <point x="187" y="-33" type="line" smooth="yes"/>
      <point x="171" y="-151"/>
      <point x="62" y="-159"/>
      <point x="-21" y="-159" type="curve"/>
      <point x="-13" y="-100" type="line"/>
      <point x="34" y="-100"/>
      <point x="65" y="-91"/>
      <point x="78" y="-18" type="curve" smooth="yes"/>
      <point x="109" y="156" type="line" smooth="yes"/>
      <point x="121" y="221"/>
      <point x="153" y="259"/>
      <point x="219" y="259" type="curve"/>
      <point x="220" y="268" type="line"/>
      <point x="162" y="268"/>
      <point x="139" y="298"/>
      <point x="139" y="349" type="curve" smooth="yes"/>
      <point x="139" y="408"/>
      <point x="158" y="510"/>
      <point x="158" y="566" type="curve" smooth="yes"/>
      <point x="158" y="620"/>
      <point x="132" y="627"/>
      <point x="90" y="627" type="curve"/>
      <point x="98" y="686" type="line"/>
      <point x="173" y="686"/>
      <point x="272" y="680"/>
      <point x="272" y="584" type="curve" smooth="yes"/>
      <point x="272" y="573"/>
      <point x="271" y="569"/>
      <point x="242" y="359" type="curve"/>
      <point x="242" y="317"/>
      <point x="273" y="303"/>
    </contour>
  </outline>
</glyph>
<glyph name="asciitilde" format="1">
  <advance width="714"/>
  <unicode hex="007E"/>
  <outline>
    <contour>
      <point x="652" y="396" type="curve"/>
      <point x="637" y="290" type="line"/>
      <point x="637" y="290"/>
      <point x="558" y="212"/>
      <point x="463" y="212" type="curve" smooth="yes"/>
      <point x="378" y="212"/>
      <point x="323" y="278"/>
      <point x="235" y="278" type="curve" smooth="yes"/>
      <point x="140" y="278"/>
      <point x="61" y="200"/>
      <point x="61" y="200" type="curve"/>
      <point x="76" y="306" type="line"/>
      <point x="76" y="306"/>
      <point x="155" y="384"/>
      <point x="250" y="384" type="curve" smooth="yes"/>
      <point x="335" y="384"/>
      <point x="390" y="318"/>
      <point x="478" y="318" type="curve" smooth="yes"/>
      <point x="573" y="318"/>
      <point x="652" y="396"/>
    </contour>
  </outline>
</glyph>
<glyph name="exclamdown" format="1">
  <advance width="290"/>
  <unicode hex="00A1"/>
  <outline>
    <contour>
      <point x="99" y="364" type="line"/>
      <point x="120" y="511" type="line"/>
      <point x="266" y="511" type="line"/>
      <point x="245" y="364" type="line"/>
    </contour>
    <contour>
      <point x="8" y="-175" type="line"/>
      <point x="117" y="309" type="line"/>
      <point x="214" y="309" type="line"/>
      <point x="185" y="-175" type="line"/>
    </contour>
  </outline>
</glyph>
<glyph name="cent" format="1">
  <advance width="571"/>
  <unicode hex="00A2"/>
  <outline>
    <contour>
      <point x="198" y="382" type="curve" smooth="yes"/>
      <point x="185" y="285"/>
      <point x="184" y="277"/>
      <point x="184" y="269" type="curve" smooth="yes"/>
      <point x="184" y="216"/>
      <point x="212" y="176"/>
      <point x="265" y="176" type="curve" smooth="yes"/>
      <point x="325" y="176"/>
      <point x="369" y="213"/>
      <point x="380" y="289" type="curve"/>
      <point x="518" y="289" type="line"/>
      <point x="498" y="152"/>
      <point x="399" y="86"/>
      <point x="293" y="77" type="curve"/>
      <point x="293" y="-8" type="line"/>
      <point x="192" y="-8" type="line"/>
      <point x="216" y="77" type="line"/>
      <point x="105" y="89"/>
      <point x="38" y="160"/>
      <point x="38" y="278" type="curve" smooth="yes"/>
      <point x="38" y="431"/>
      <point x="114" y="587"/>
      <point x="291" y="605" type="curve"/>
      <point x="291" y="693" type="line"/>
      <point x="392" y="693" type="line"/>
      <point x="366" y="606" type="line"/>
      <point x="461" y="597"/>
      <point x="535" y="534"/>
      <point x="535" y="427" type="curve" smooth="yes"/>
      <point x="535" y="416"/>
      <point x="535" y="405"/>
      <point x="533" y="393" type="curve"/>
      <point x="388" y="393" type="line"/>
      <point x="389" y="402"/>
      <point x="390" y="411"/>
      <point x="390" y="420" type="curve" smooth="yes"/>
      <point x="390" y="472"/>
      <point x="366" y="507"/>
      <point x="313" y="507" type="curve" smooth="yes"/>
      <point x="251" y="507"/>
      <point x="207" y="451"/>
    </contour>
  </outline>
</glyph>
<glyph name="sterling" format="1">
  <advance width="654"/>
  <unicode hex="00A3"/>
  <outline>
    <contour>
      <point x="122" y="397" type="line"/>
      <point x="133" y="476" type="line" smooth="yes"/>
      <point x="152" y="613"/>
      <point x="259" y="698"/>
      <point x="397" y="698" type="curve" smooth="yes"/>
      <point x="515" y="698"/>
      <point x="600" y="633"/>
      <point x="600" y="527" type="curve" smooth="yes"/>
      <point x="600" y="509"/>
      <point x="600" y="507"/>
      <point x="596" y="478" type="curve"/>
      <point x="447" y="478" type="line"/>
      <point x="450" y="502"/>
      <point x="450" y="503"/>
      <point x="450" y="508" type="curve" smooth="yes"/>
      <point x="450" y="546"/>
      <point x="422" y="579"/>
      <point x="380" y="579" type="curve" smooth="yes"/>
      <point x="330" y="579"/>
      <point x="292" y="546"/>
      <point x="285" y="499" type="curve" smooth="yes"/>
      <point x="270" y="397" type="line"/>
      <point x="412" y="397" type="line"/>
      <point x="396" y="279" type="line"/>
      <point x="254" y="279" type="line"/>
      <point x="212" y="118" type="line"/>
      <point x="505" y="118" type="line"/>
      <point x="488" y="0" type="line"/>
      <point x="-10" y="0" type="line"/>
      <point x="6" y="118" type="line"/>
      <point x="83" y="118" type="line"/>
      <point x="106" y="279" type="line"/>
      <point x="-3" y="279" type="line"/>
      <point x="12" y="397" type="line"/>
    </contour>
  </outline>
</glyph>
<glyph name="currency" format="1">
  <advance width="663"/>
  <unicode hex="00A4"/>
  <outline>
    <contour>
      <point x="78" y="302" type="curve" smooth="yes"/>
      <point x="78" y="367"/>
      <point x="103" y="433"/>
      <point x="150" y="483" type="curve"/>
      <point x="104" y="538" type="line"/>
      <point x="166" y="593" type="line"/>
      <point x="213" y="539" type="line"/>
      <point x="253" y="567"/>
      <point x="310" y="586"/>
      <point x="364" y="586" type="curve" smooth="yes"/>
      <point x="421" y="586"/>
      <point x="472" y="567"/>
      <point x="502" y="539" type="curve"/>
      <point x="566" y="595" type="line"/>
      <point x="582" y="575"/>
      <point x="598" y="556"/>
      <point x="615" y="537" type="curve"/>
      <point x="553" y="482" type="line"/>
      <point x="570" y="455"/>
      <point x="580" y="418"/>
      <point x="580" y="377" type="curve" smooth="yes"/>
      <point x="580" y="308"/>
      <point x="554" y="239"/>
      <point x="510" y="192" type="curve"/>
      <point x="525" y="173"/>
      <point x="542" y="155"/>
      <point x="557" y="137" type="curve"/>
      <point x="496" y="83" type="line"/>
      <point x="476" y="104"/>
      <point x="461" y="122"/>
      <point x="447" y="139" type="curve"/>
      <point x="407" y="108"/>
      <point x="352" y="90"/>
      <point x="295" y="90" type="curve" smooth="yes"/>
      <point x="239" y="90"/>
      <point x="189" y="107"/>
      <point x="156" y="137" type="curve"/>
      <point x="135" y="119"/>
      <point x="114" y="101"/>
      <point x="93" y="82" type="curve"/>
      <point x="46" y="137" type="line"/>
      <point x="110" y="192" type="line"/>
      <point x="89" y="222"/>
      <point x="78" y="259"/>
    </contour>
    <contour>
      <point x="352" y="496" type="curve" smooth="yes"/>
      <point x="260" y="496"/>
      <point x="174" y="411"/>
      <point x="174" y="315" type="curve" smooth="yes"/>
      <point x="174" y="238"/>
      <point x="229" y="179"/>
      <point x="307" y="179" type="curve" smooth="yes"/>
      <point x="403" y="179"/>
      <point x="485" y="265"/>
      <point x="485" y="362" type="curve" smooth="yes"/>
      <point x="485" y="437"/>
      <point x="431" y="496"/>
    </contour>
  </outline>
</glyph>
<glyph name="yen" format="1">
  <advance width="642"/>
  <unicode hex="00A5"/>
  <outline>
    <contour>
      <point x="156" y="448" type="line"/>
      <point x="58" y="686" type="line"/>
      <point x="232" y="686" type="line"/>
      <point x="266" y="595"/>
      <point x="301" y="504"/>
      <point x="336" y="414" type="curve"/>
      <point x="340" y="414" type="line"/>
      <point x="401" y="504"/>
      <point x="462" y="595"/>
      <point x="522" y="686" type="curve"/>
      <point x="680" y="686" type="line"/>
      <point x="514" y="448" type="line"/>
      <point x="612" y="448" type="line"/>
      <point x="601" y="370" type="line"/>
      <point x="460" y="370" type="line"/>
      <point x="419" y="310" type="line"/>
      <point x="593" y="310" type="line"/>
      <point x="582" y="231" type="line"/>
      <point x="382" y="231" type="line"/>
      <point x="349" y="0" type="line"/>
      <point x="196" y="0" type="line"/>
      <point x="229" y="231" type="line"/>
      <point x="33" y="231" type="line"/>
      <point x="44" y="310" type="line"/>
      <point x="214" y="310" type="line"/>
      <point x="206" y="330"/>
      <point x="197" y="350"/>
      <point x="188" y="370" type="curve"/>
      <point x="52" y="370" type="line"/>
      <point x="63" y="448" type="line"/>
    </contour>
  </outline>
</glyph>
<glyph name="brokenbar" format="1">
  <advance width="277"/>
  <unicode hex="00A6"/>
  <outline>
    <contour>
      <point x="246" y="686" type="line"/>
      <point x="208" y="415" type="line"/>
      <point x="88" y="415" type="line"/>
      <point x="126" y="686" type="line"/>
    </contour>
    <contour>
      <point x="187" y="270" type="line"/>
      <point x="149" y="0" type="line"/>
      <point x="29" y="0" type="line"/>
      <point x="67" y="270" type="line"/>
    </contour>
  </outline>
</glyph>
<glyph name="section" format="1">
  <advance width="550"/>
  <unicode hex="00A7"/>
  <outline>
    <contour>
      <point x="89" y="513" type="curve" smooth="yes"/>
      <point x="89" y="644"/>
      <point x="220" y="696"/>
      <point x="337" y="696" type="curve" smooth="yes"/>
      <point x="447" y="696"/>
      <point x="536" y="652"/>
      <point x="536" y="567" type="curve" smooth="yes"/>
      <point x="536" y="562"/>
      <point x="536" y="556"/>
      <point x="533" y="536" type="curve"/>
      <point x="404" y="536" type="line"/>
      <point x="404" y="545" type="line" smooth="yes"/>
      <point x="404" y="579"/>
      <point x="377" y="599"/>
      <point x="325" y="599" type="curve" smooth="yes"/>
      <point x="261" y="599"/>
      <point x="226" y="573"/>
      <point x="226" y="540" type="curve" smooth="yes"/>
      <point x="226" y="439"/>
      <point x="511" y="439"/>
      <point x="511" y="274" type="curve" smooth="yes"/>
      <point x="511" y="195"/>
      <point x="458" y="129"/>
      <point x="406" y="103" type="curve"/>
      <point x="439" y="80"/>
      <point x="460" y="41"/>
      <point x="460" y="-4" type="curve" smooth="yes"/>
      <point x="460" y="-128"/>
      <point x="336" y="-185"/>
      <point x="211" y="-185" type="curve" smooth="yes"/>
      <point x="102" y="-185"/>
      <point x="12" y="-143"/>
      <point x="12" y="-58" type="curve" smooth="yes"/>
      <point x="12" y="-49"/>
      <point x="13" y="-39"/>
      <point x="16" y="-27" type="curve"/>
      <point x="144" y="-27" type="line"/>
      <point x="144" y="-35" type="line" smooth="yes"/>
      <point x="144" y="-66"/>
      <point x="171" y="-89"/>
      <point x="224" y="-89" type="curve" smooth="yes"/>
      <point x="287" y="-89"/>
      <point x="322" y="-63"/>
      <point x="322" y="-29" type="curve" smooth="yes"/>
      <point x="322" y="71"/>
      <point x="37" y="71"/>
      <point x="37" y="236" type="curve" smooth="yes"/>
      <point x="37" y="315"/>
      <point x="90" y="381"/>
      <point x="142" y="407" type="curve"/>
      <point x="109" y="430"/>
      <point x="89" y="469"/>
    </contour>
    <contour>
      <point x="332" y="149" type="curve"/>
      <point x="360" y="164"/>
      <point x="386" y="192"/>
      <point x="386" y="227" type="curve" smooth="yes"/>
      <point x="386" y="296"/>
      <point x="283" y="326"/>
      <point x="220" y="359" type="curve"/>
      <point x="195" y="347"/>
      <point x="165" y="318"/>
      <point x="165" y="281" type="curve" smooth="yes"/>
      <point x="165" y="212"/>
      <point x="267" y="181"/>
    </contour>
  </outline>
</glyph>
<glyph name="dieresis" format="1">
  <advance width="440"/>
  <unicode hex="00A8"/>
  <outline>
    <contour>
      <point x="188" y="740" type="line"/>
      <point x="171" y="618" type="line"/>
      <point x="50" y="618" type="line"/>
      <point x="67" y="740" type="line"/>
    </contour>
    <contour>
      <point x="392" y="740" type="line"/>
      <point x="375" y="618" type="line"/>
      <point x="254" y="618" type="line"/>
      <point x="271" y="740" type="line"/>
    </contour>
  </outline>
</glyph>
<glyph name="copyright" format="1">
  <advance width="740"/>
  <unicode hex="00A9"/>
  <outline>
    <contour>
      <point x="724" y="344" type="curve" smooth="yes"/>
      <point x="724" y="147"/>
      <point x="565" y="-10"/>
      <point x="370" y="-10" type="curve" smooth="yes"/>
      <point x="174" y="-10"/>
      <point x="16" y="147"/>
      <point x="16" y="344" type="curve" smooth="yes"/>
      <point x="16" y="539"/>
      <point x="174" y="696"/>
      <point x="370" y="696" type="curve" smooth="yes"/>
      <point x="565" y="696"/>
      <point x="724" y="539"/>
    </contour>
    <contour>
      <point x="665" y="344" type="curve" smooth="yes"/>
      <point x="665" y="519"/>
      <point x="542" y="643"/>
      <point x="370" y="643" type="curve" smooth="yes"/>
      <point x="195" y="643"/>
      <point x="74" y="519"/>
      <point x="74" y="344" type="curve" smooth="yes"/>
      <point x="74" y="165"/>
      <point x="195" y="42"/>
      <point x="370" y="42" type="curve" smooth="yes"/>
      <point x="542" y="42"/>
      <point x="665" y="165"/>
    </contour>
    <contour>
      <point x="287" y="386" type="curve" smooth="yes"/>
      <point x="287" y="300" type="line" smooth="yes"/>
      <point x="287" y="237"/>
      <point x="326" y="204"/>
      <point x="374" y="204" type="curve" smooth="yes"/>
      <point x="432" y="204"/>
      <point x="458" y="234"/>
      <point x="458" y="299" type="curve"/>
      <point x="543" y="299" type="line"/>
      <point x="543" y="189"/>
      <point x="471" y="130"/>
      <point x="379" y="130" type="curve" smooth="yes"/>
      <point x="370" y="130" type="line" smooth="yes"/>
      <point x="267" y="130"/>
      <point x="189" y="193"/>
      <point x="189" y="314" type="curve" smooth="yes"/>
      <point x="189" y="373" type="line" smooth="yes"/>
      <point x="189" y="490"/>
      <point x="269" y="556"/>
      <point x="368" y="556" type="curve" smooth="yes"/>
      <point x="376" y="556" type="line" smooth="yes"/>
      <point x="470" y="556"/>
      <point x="543" y="500"/>
      <point x="543" y="386" type="curve"/>
      <point x="455" y="386" type="line"/>
      <point x="455" y="449"/>
      <point x="426" y="482"/>
      <point x="374" y="482" type="curve" smooth="yes"/>
      <point x="325" y="482"/>
      <point x="287" y="449"/>
    </contour>
  </outline>
</glyph>
<glyph name="ordfeminine" format="1">
  <advance width="389"/>
  <unicode hex="00AA"/>
  <outline>
    <contour>
      <point x="276" y="690" type="line"/>
      <point x="341" y="690" type="line"/>
      <point x="333" y="635"/>
      <point x="308" y="460"/>
      <point x="308" y="451" type="curve" smooth="yes"/>
      <point x="308" y="441"/>
      <point x="314" y="435"/>
      <point x="324" y="435" type="curve" smooth="yes"/>
      <point x="332" y="435"/>
      <point x="343" y="439"/>
      <point x="349" y="443" type="curve"/>
      <point x="341" y="387" type="line"/>
      <point x="328" y="380"/>
      <point x="307" y="374"/>
      <point x="286" y="374" type="curve" smooth="yes"/>
      <point x="245" y="374"/>
      <point x="225" y="390"/>
      <point x="222" y="420" type="curve"/>
      <point x="198" y="393"/>
      <point x="165" y="374"/>
      <point x="126" y="374" type="curve" smooth="yes"/>
      <point x="58" y="374"/>
      <point x="22" y="420"/>
      <point x="22" y="496" type="curve" smooth="yes"/>
      <point x="22" y="605"/>
      <point x="77" y="696"/>
      <point x="168" y="696" type="curve" smooth="yes"/>
      <point x="205" y="696"/>
      <point x="236" y="679"/>
      <point x="252" y="652" type="curve"/>
      <point x="256" y="652" type="line"/>
    </contour>
    <contour>
      <point x="227" y="508" type="curve" smooth="yes"/>
      <point x="235" y="564"/>
      <point x="236" y="570"/>
      <point x="236" y="575" type="curve" smooth="yes"/>
      <point x="236" y="613"/>
      <point x="215" y="632"/>
      <point x="186" y="632" type="curve" smooth="yes"/>
      <point x="153" y="632"/>
      <point x="125" y="607"/>
      <point x="118" y="558" type="curve" smooth="yes"/>
      <point x="110" y="502"/>
      <point x="109" y="496"/>
      <point x="109" y="491" type="curve" smooth="yes"/>
      <point x="109" y="453"/>
      <point x="129" y="435"/>
      <point x="159" y="435" type="curve" smooth="yes"/>
      <point x="191" y="435"/>
      <point x="220" y="459"/>
    </contour>
  </outline>
</glyph>
<glyph name="guillemetleft" format="1">
  <advance width="459"/>
  <unicode hex="00AB"/>
  <outline>
    <contour>
      <point x="47" y="337" type="line"/>
      <point x="192" y="511" type="line"/>
      <point x="254" y="511" type="line"/>
      <point x="141" y="337" type="line"/>
      <point x="205" y="163" type="line"/>
      <point x="143" y="163" type="line"/>
    </contour>
    <contour>
      <point x="228" y="337" type="line"/>
      <point x="374" y="511" type="line"/>
      <point x="436" y="511" type="line"/>
      <point x="323" y="337" type="line"/>
      <point x="387" y="163" type="line"/>
      <point x="325" y="163" type="line"/>
    </contour>
  </outline>
</glyph>
<glyph name="logicalnot" format="1">
  <advance width="600"/>
  <unicode hex="00AC"/>
  <outline>
    <contour>
      <point x="425" y="166" type="line"/>
      <point x="451" y="347" type="line"/>
      <point x="39" y="347" type="line"/>
      <point x="56" y="468" type="line"/>
      <point x="585" y="468" type="line"/>
      <point x="542" y="166" type="line"/>
    </contour>
  </outline>
</glyph>
<glyph name="softhyphen" format="1">
  <advance width="260"/>
  <unicode hex="00AD"/>
  <outline>
    <contour>
      <point x="261" y="336" type="line"/>
      <point x="244" y="208" type="line"/>
      <point x="-8" y="208" type="line"/>
      <point x="8" y="336" type="line"/>
    </contour>
  </outline>
</glyph>
<glyph name="registered" format="1">
  <advance width="740"/>
  <unicode hex="00AE"/>
  <outline>
    <contour>
      <point x="724" y="344" type="curve" smooth="yes"/>
      <point x="724" y="147"/>
      <point x="565" y="-10"/>
      <point x="370" y="-10" type="curve" smooth="yes"/>
      <point x="174" y="-10"/>
      <point x="16" y="147"/>
      <point x="16" y="344" type="curve" smooth="yes"/>
      <point x="16" y="539"/>
      <point x="174" y="696"/>
      <point x="370" y="696" type="curve" smooth="yes"/>
      <point x="565" y="696"/>
      <point x="724" y="539"/>
    </contour>
    <contour>
      <point x="666" y="344" type="curve" smooth="yes"/>
      <point x="666" y="520"/>
      <point x="542" y="644"/>
      <point x="370" y="644" type="curve" smooth="yes"/>
      <point x="195" y="644"/>
      <point x="74" y="520"/>
      <point x="74" y="344" type="curve" smooth="yes"/>
      <point x="74" y="165"/>
      <point x="195" y="42"/>
      <point x="370" y="42" type="curve" smooth="yes"/>
      <point x="542" y="42"/>
      <point x="666" y="165"/>
    </contour>
    <contour>
      <point x="562" y="161" type="curve"/>
      <point x="562" y="140" type="line"/>
      <point x="548" y="135"/>
      <point x="527" y="132"/>
      <point x="510" y="132" type="curve" smooth="yes"/>
      <point x="474" y="132"/>
      <point x="441" y="147"/>
      <point x="441" y="198" type="curve" smooth="yes"/>
      <point x="441" y="258"/>
      <point x="430" y="308"/>
      <point x="376" y="308" type="curve" smooth="yes"/>
      <point x="306" y="308" type="line"/>
      <point x="306" y="137" type="line"/>
      <point x="214" y="137" type="line"/>
      <point x="214" y="551" type="line"/>
      <point x="399" y="551" type="line" smooth="yes"/>
      <point x="468" y="551"/>
      <point x="539" y="527"/>
      <point x="539" y="448" type="curve" smooth="yes"/>
      <point x="539" y="404"/>
      <point x="507" y="359"/>
      <point x="465" y="351" type="curve"/>
      <point x="465" y="346" type="line"/>
      <point x="494" y="337"/>
      <point x="531" y="305"/>
      <point x="531" y="237" type="curve" smooth="yes"/>
      <point x="531" y="210"/>
      <point x="535" y="169"/>
    </contour>
    <contour>
      <point x="306" y="381" type="line"/>
      <point x="396" y="381" type="line" smooth="yes"/>
      <point x="423" y="381"/>
      <point x="445" y="401"/>
      <point x="445" y="426" type="curve" smooth="yes"/>
      <point x="445" y="431" type="line" smooth="yes"/>
      <point x="445" y="457"/>
      <point x="425" y="476"/>
      <point x="396" y="476" type="curve" smooth="yes"/>
      <point x="306" y="476" type="line"/>
    </contour>
  </outline>
</glyph>
<glyph name="degree" format="1">
  <advance width="400"/>
  <unicode hex="00B0"/>
  <outline>
    <contour>
      <point x="352" y="561" type="curve" smooth="yes"/>
      <point x="352" y="466"/>
      <point x="272" y="396"/>
      <point x="184" y="396" type="curve" smooth="yes"/>
      <point x="100" y="396"/>
      <point x="47" y="453"/>
      <point x="47" y="530" type="curve" smooth="yes"/>
      <point x="47" y="627"/>
      <point x="129" y="696"/>
      <point x="214" y="696" type="curve" smooth="yes"/>
      <point x="299" y="696"/>
      <point x="352" y="637"/>
    </contour>
    <contour>
      <point x="193" y="467" type="curve" smooth="yes"/>
      <point x="236" y="467"/>
      <point x="274" y="502"/>
      <point x="274" y="553" type="curve" smooth="yes"/>
      <point x="274" y="585"/>
      <point x="254" y="623"/>
      <point x="204" y="623" type="curve" smooth="yes"/>
      <point x="163" y="623"/>
      <point x="124" y="588"/>
      <point x="124" y="539" type="curve" smooth="yes"/>
      <point x="124" y="497"/>
      <point x="151" y="467"/>
    </contour>
  </outline>
</glyph>
<glyph name="plusminus" format="1">
  <advance width="600"/>
  <unicode hex="00B1"/>
  <outline>
    <contour>
      <point x="573" y="382" type="line"/>
      <point x="558" y="276" type="line"/>
      <point x="354" y="276" type="line"/>
      <point x="336" y="147" type="line"/>
      <point x="231" y="147" type="line"/>
      <point x="249" y="276" type="line"/>
      <point x="46" y="276" type="line"/>
      <point x="61" y="382" type="line"/>
      <point x="264" y="382" type="line"/>
      <point x="282" y="511" type="line"/>
      <point x="387" y="511" type="line"/>
      <point x="369" y="382" type="line"/>
    </contour>
    <contour>
      <point x="24" y="105" type="line"/>
      <point x="531" y="105" type="line"/>
      <point x="517" y="0" type="line"/>
      <point x="10" y="0" type="line"/>
    </contour>
  </outline>
</glyph>
<glyph name="threesuperior" format="1">
  <advance width="506"/>
  <unicode hex="00B3"/>
  <outline>
    <contour>
      <point x="25" y="530" type="curve"/>
      <point x="99" y="530" type="line"/>
      <point x="98" y="524"/>
      <point x="98" y="521"/>
      <point x="98" y="519" type="curve" smooth="yes"/>
      <point x="98" y="492"/>
      <point x="118" y="477"/>
      <point x="157" y="477" type="curve" smooth="yes"/>
      <point x="201" y="477"/>
      <point x="232" y="497"/>
      <point x="232" y="539" type="curve" smooth="yes"/>
      <point x="232" y="576"/>
      <point x="199" y="580"/>
      <point x="167" y="580" type="curve" smooth="yes"/>
      <point x="128" y="580" type="line"/>
      <point x="136" y="639" type="line"/>
      <point x="181" y="639" type="line" smooth="yes"/>
      <point x="214" y="639"/>
      <point x="245" y="658"/>
      <point x="245" y="695" type="curve" smooth="yes"/>
      <point x="245" y="722"/>
      <point x="223" y="735"/>
      <point x="193" y="735" type="curve" smooth="yes"/>
      <point x="162" y="735"/>
      <point x="134" y="718"/>
      <point x="129" y="686" type="curve"/>
      <point x="56" y="686" type="line"/>
      <point x="60" y="756"/>
      <point x="125" y="800"/>
      <point x="203" y="800" type="curve" smooth="yes"/>
      <point x="214" y="800" type="line" smooth="yes"/>
      <point x="282" y="800"/>
      <point x="328" y="763"/>
      <point x="328" y="711" type="curve" smooth="yes"/>
      <point x="328" y="663"/>
      <point x="297" y="632"/>
      <point x="259" y="616" type="curve"/>
      <point x="259" y="611" type="line"/>
      <point x="292" y="600"/>
      <point x="313" y="576"/>
      <point x="313" y="537" type="curve" smooth="yes"/>
      <point x="313" y="459"/>
      <point x="243" y="412"/>
      <point x="159" y="412" type="curve" smooth="yes"/>
      <point x="145" y="412" type="line" smooth="yes"/>
      <point x="64" y="412"/>
      <point x="22" y="451"/>
      <point x="22" y="505" type="curve" smooth="yes"/>
      <point x="22" y="514"/>
      <point x="24" y="525"/>
    </contour>
  </outline>
</glyph>
<glyph name="acute" format="1">
  <advance width="333"/>
  <unicode hex="00B4"/>
  <outline>
    <contour>
      <point x="153" y="720" type="line"/>
      <point x="282" y="720" type="line"/>
      <point x="282" y="716" type="line"/>
      <point x="141" y="575" type="line"/>
      <point x="40" y="575" type="line"/>
    </contour>
  </outline>
</glyph>
<glyph name="micro" format="1">
  <advance width="610"/>
  <unicode hex="00B5"/>
  <outline>
    <contour>
      <point x="432" y="511" type="line"/>
      <point x="578" y="511" type="line"/>
      <point x="523" y="118"/>
      <point x="522" y="116"/>
      <point x="522" y="114" type="curve" smooth="yes"/>
      <point x="522" y="96"/>
      <point x="536" y="90"/>
      <point x="548" y="90" type="curve" smooth="yes"/>
      <point x="563" y="90"/>
      <point x="584" y="98"/>
      <point x="590" y="101" type="curve"/>
      <point x="577" y="11" type="line"/>
      <point x="570" y="7"/>
      <point x="536" y="-10"/>
      <point x="486" y="-10" type="curve" smooth="yes"/>
      <point x="416" y="-10"/>
      <point x="384" y="18"/>
      <point x="381" y="63" type="curve"/>
      <point x="342" y="25"/>
      <point x="288" y="-10"/>
      <point x="216" y="-10" type="curve" smooth="yes"/>
      <point x="202" y="-10"/>
      <point x="188" y="-8"/>
      <point x="175" y="-3" type="curve"/>
      <point x="177" y="-12"/>
      <point x="178" y="-23"/>
      <point x="178" y="-35" type="curve" smooth="yes"/>
      <point x="178" y="-42"/>
      <point x="178" y="-49"/>
      <point x="177" y="-57" type="curve" smooth="yes"/>
      <point x="162" y="-161" type="line"/>
      <point x="16" y="-161" type="line"/>
      <point x="111" y="511" type="line"/>
      <point x="257" y="511" type="line"/>
      <point x="210" y="180"/>
      <point x="210" y="179"/>
      <point x="210" y="170" type="curve" smooth="yes"/>
      <point x="210" y="126"/>
      <point x="236" y="96"/>
      <point x="278" y="96" type="curve" smooth="yes"/>
      <point x="329" y="96"/>
      <point x="380" y="140"/>
      <point x="388" y="197" type="curve" smooth="yes"/>
    </contour>
  </outline>
</glyph>
<glyph name="paragraph" format="1">
  <advance width="526"/>
  <unicode hex="00B6"/>
  <outline>
    <contour>
      <point x="165" y="-165" type="line"/>
      <point x="223" y="251" type="line"/>
      <point x="122" y="259"/>
      <point x="53" y="336"/>
      <point x="53" y="437" type="curve" smooth="yes"/>
      <point x="53" y="583"/>
      <point x="171" y="686"/>
      <point x="302" y="686" type="curve" smooth="yes"/>
      <point x="575" y="686" type="line"/>
      <point x="565" y="616" type="line"/>
      <point x="499" y="616" type="line"/>
      <point x="390" y="-165" type="line"/>
      <point x="315" y="-165" type="line"/>
      <point x="424" y="616" type="line"/>
      <point x="350" y="616" type="line"/>
      <point x="241" y="-165" type="line"/>
    </contour>
  </outline>
</glyph>
<glyph name="periodcentered" format="1">
  <advance width="277"/>
  <unicode hex="00B7"/>
  <outline>
    <contour>
      <point x="221" y="362" type="line"/>
      <point x="200" y="214" type="line"/>
      <point x="54" y="214" type="line"/>
      <point x="75" y="362" type="line"/>
    </contour>
  </outline>
</glyph>
<glyph name="cedilla" format="1">
  <advance width="342"/>
  <unicode hex="00B8"/>
  <outline>
    <contour>
      <point x="49" y="-168" type="curve"/>
      <point x="77" y="-116" type="line"/>
      <point x="83" y="-119"/>
      <point x="110" y="-142"/>
      <point x="157" y="-142" type="curve" smooth="yes"/>
      <point x="184" y="-142"/>
      <point x="211" y="-130"/>
      <point x="211" y="-99" type="curve" smooth="yes"/>
      <point x="211" y="-79"/>
      <point x="197" y="-68"/>
      <point x="171" y="-68" type="curve" smooth="yes"/>
      <point x="151" y="-68" type="line"/>
      <point x="158" y="-17" type="line"/>
      <point x="181" y="-17" type="line" smooth="yes"/>
      <point x="233" y="-17"/>
      <point x="286" y="-32"/>
      <point x="286" y="-91" type="curve" smooth="yes"/>
      <point x="286" y="-180"/>
      <point x="199" y="-197"/>
      <point x="153" y="-197" type="curve" smooth="yes"/>
      <point x="116" y="-197"/>
      <point x="73" y="-187"/>
    </contour>
  </outline>
</glyph>
<glyph name="onesuperior" format="1">
  <advance width="319"/>
  <unicode hex="00B9"/>
  <outline>
    <contour>
      <point x="22" y="487" type="line"/>
      <point x="112" y="487" type="line"/>
      <point x="142" y="700" type="line"/>
      <point x="52" y="700" type="line"/>
      <point x="59" y="748" type="line"/>
      <point x="101" y="751"/>
      <point x="159" y="772"/>
      <point x="207" y="796" type="curve"/>
      <point x="236" y="796" type="line"/>
      <point x="192" y="487" type="line"/>
      <point x="271" y="487" type="line"/>
      <point x="262" y="422" type="line"/>
      <point x="13" y="422" type="line"/>
    </contour>
  </outline>
</glyph>
<glyph name="ordmasculine" format="1">
  <advance width="367"/>
  <unicode hex="00BA"/>
  <outline>
    <contour>
      <point x="344" y="570" type="curve" smooth="yes"/>
      <point x="344" y="458"/>
      <point x="282" y="373"/>
      <point x="167" y="373" type="curve" smooth="yes"/>
      <point x="157" y="373" type="line" smooth="yes"/>
      <point x="79" y="373"/>
      <point x="25" y="419"/>
      <point x="25" y="499" type="curve" smooth="yes"/>
      <point x="25" y="617"/>
      <point x="92" y="696"/>
      <point x="202" y="696" type="curve" smooth="yes"/>
      <point x="212" y="696" type="line" smooth="yes"/>
      <point x="289" y="696"/>
      <point x="344" y="650"/>
    </contour>
    <contour>
      <point x="248" y="510" type="curve" smooth="yes"/>
      <point x="255" y="565"/>
      <point x="256" y="571"/>
      <point x="256" y="575" type="curve" smooth="yes"/>
      <point x="256" y="615"/>
      <point x="232" y="635"/>
      <point x="199" y="635" type="curve" smooth="yes"/>
      <point x="161" y="635"/>
      <point x="128" y="610"/>
      <point x="121" y="559" type="curve" smooth="yes"/>
      <point x="114" y="504"/>
      <point x="113" y="498"/>
      <point x="113" y="494" type="curve" smooth="yes"/>
      <point x="113" y="454"/>
      <point x="137" y="434"/>
      <point x="170" y="434" type="curve" smooth="yes"/>
      <point x="207" y="434"/>
      <point x="241" y="459"/>
    </contour>
  </outline>
</glyph>
<glyph name="guillemetright" format="1">
  <advance width="459"/>
  <unicode hex="00BB"/>
  <outline>
    <contour>
      <point x="136" y="337" type="line"/>
      <point x="71" y="511" type="line"/>
      <point x="133" y="511" type="line"/>
      <point x="231" y="337" type="line"/>
      <point x="84" y="163" type="line"/>
      <point x="22" y="163" type="line"/>
    </contour>
    <contour>
      <point x="318" y="337" type="line"/>
      <point x="253" y="511" type="line"/>
      <point x="315" y="511" type="line"/>
      <point x="412" y="337" type="line"/>
      <point x="266" y="163" type="line"/>
      <point x="204" y="163" type="line"/>
    </contour>
  </outline>
</glyph>
<glyph name="onequarter" format="1">
  <advance width="745"/>
  <unicode hex="00BC"/>
  <outline>
    <contour>
      <point x="98" y="0" type="line"/>
      <point x="615" y="686" type="line"/>
      <point x="684" y="686" type="line"/>
      <point x="170" y="0" type="line"/>
    </contour>
    <contour>
      <point x="32" y="372" type="line"/>
      <point x="123" y="372" type="line"/>
      <point x="153" y="588" type="line"/>
      <point x="61" y="588" type="line"/>
      <point x="68" y="637" type="line"/>
      <point x="111" y="640"/>
      <point x="170" y="661"/>
      <point x="219" y="685" type="curve"/>
      <point x="248" y="685" type="line"/>
      <point x="204" y="372" type="line"/>
      <point x="294" y="372" type="line"/>
      <point x="284" y="306" type="line"/>
      <point x="22" y="306" type="line"/>
    </contour>
    <contour>
      <point x="559" y="153" type="line"/>
      <point x="570" y="235" type="line"/>
      <point x="593" y="264"/>
      <point x="616" y="307"/>
      <point x="628" y="336" type="curve"/>
      <point x="663" y="336" type="line"/>
      <point x="637" y="153" type="line"/>
      <point x="688" y="153" type="line"/>
      <point x="679" y="88" type="line"/>
      <point x="628" y="88" type="line"/>
      <point x="615" y="0" type="line"/>
      <point x="537" y="0" type="line"/>
      <point x="550" y="88" type="line"/>
      <point x="384" y="88" type="line"/>
      <point x="393" y="153" type="line"/>
      <point x="439" y="213"/>
      <point x="497" y="313"/>
      <point x="527" y="382" type="curve"/>
      <point x="604" y="382" type="line"/>
      <point x="575" y="303"/>
      <point x="492" y="190"/>
      <point x="455" y="153" type="curve"/>
    </contour>
  </outline>
</glyph>
<glyph name="onehalf" format="1">
  <advance width="765"/>
  <unicode hex="00BD"/>
  <outline>
    <contour>
      <point x="90" y="0" type="line"/>
      <point x="607" y="686" type="line"/>
      <point x="676" y="686" type="line"/>
      <point x="162" y="0" type="line"/>
    </contour>
    <contour>
      <point x="32" y="372" type="line"/>
      <point x="123" y="372" type="line"/>
      <point x="153" y="588" type="line"/>
      <point x="61" y="588" type="line"/>
      <point x="68" y="637" type="line"/>
      <point x="111" y="640"/>
      <point x="170" y="661"/>
      <point x="219" y="685" type="curve"/>
      <point x="248" y="685" type="line"/>
      <point x="204" y="372" type="line"/>
      <point x="294" y="372" type="line"/>
      <point x="284" y="306" type="line"/>
      <point x="22" y="306" type="line"/>
    </contour>
    <contour>
      <point x="713" y="275" type="curve" smooth="yes"/>
      <point x="713" y="157"/>
      <point x="545" y="108"/>
      <point x="520" y="70" type="curve"/>
      <point x="687" y="70" type="line"/>
      <point x="678" y="-1" type="line"/>
      <point x="401" y="-1" type="line"/>
      <point x="401" y="150"/>
      <point x="630" y="172"/>
      <point x="630" y="270" type="curve" smooth="yes"/>
      <point x="630" y="295"/>
      <point x="613" y="315"/>
      <point x="580" y="315" type="curve" smooth="yes"/>
      <point x="539" y="315"/>
      <point x="512" y="285"/>
      <point x="512" y="244" type="curve"/>
      <point x="436" y="244" type="line"/>
      <point x="436" y="254"/>
      <point x="439" y="382"/>
      <point x="593" y="382" type="curve" smooth="yes"/>
      <point x="677" y="382"/>
      <point x="713" y="331"/>
    </contour>
  </outline>
</glyph>
<glyph name="threequarters" format="1">
  <advance width="755"/>
  <unicode hex="00BE"/>
  <outline>
    <contour>
      <point x="48" y="419" type="curve"/>
      <point x="122" y="419" type="line"/>
      <point x="121" y="413"/>
      <point x="121" y="410"/>
      <point x="121" y="408" type="curve" smooth="yes"/>
      <point x="121" y="381"/>
      <point x="141" y="366"/>
      <point x="180" y="366" type="curve" smooth="yes"/>
      <point x="224" y="366"/>
      <point x="255" y="386"/>
      <point x="255" y="428" type="curve" smooth="yes"/>
      <point x="255" y="465"/>
      <point x="222" y="469"/>
      <point x="190" y="469" type="curve" smooth="yes"/>
      <point x="151" y="469" type="line"/>
      <point x="159" y="528" type="line"/>
      <point x="204" y="528" type="line" smooth="yes"/>
      <point x="237" y="528"/>
      <point x="268" y="547"/>
      <point x="268" y="584" type="curve" smooth="yes"/>
      <point x="268" y="611"/>
      <point x="246" y="624"/>
      <point x="216" y="624" type="curve" smooth="yes"/>
      <point x="185" y="624"/>
      <point x="157" y="607"/>
      <point x="152" y="575" type="curve"/>
      <point x="79" y="575" type="line"/>
      <point x="83" y="645"/>
      <point x="148" y="689"/>
      <point x="226" y="689" type="curve" smooth="yes"/>
      <point x="237" y="689" type="line" smooth="yes"/>
      <point x="305" y="689"/>
      <point x="351" y="652"/>
      <point x="351" y="600" type="curve" smooth="yes"/>
      <point x="351" y="552"/>
      <point x="320" y="521"/>
      <point x="282" y="505" type="curve"/>
      <point x="282" y="500" type="line"/>
      <point x="315" y="489"/>
      <point x="336" y="465"/>
      <point x="336" y="426" type="curve" smooth="yes"/>
      <point x="336" y="348"/>
      <point x="266" y="301"/>
      <point x="182" y="301" type="curve" smooth="yes"/>
      <point x="168" y="301" type="line" smooth="yes"/>
      <point x="87" y="301"/>
      <point x="45" y="340"/>
      <point x="45" y="394" type="curve" smooth="yes"/>
      <point x="45" y="403"/>
      <point x="47" y="414"/>
    </contour>
    <contour>
      <point x="101" y="0" type="line"/>
      <point x="617" y="686" type="line"/>
      <point x="686" y="686" type="line"/>
      <point x="173" y="0" type="line"/>
    </contour>
    <contour>
      <point x="559" y="153" type="line"/>
      <point x="570" y="235" type="line"/>
      <point x="593" y="264"/>
      <point x="616" y="307"/>
      <point x="627" y="336" type="curve"/>
      <point x="662" y="336" type="line"/>
      <point x="637" y="153" type="line"/>
      <point x="688" y="153" type="line"/>
      <point x="678" y="88" type="line"/>
      <point x="627" y="88" type="line"/>
      <point x="615" y="0" type="line"/>
      <point x="537" y="0" type="line"/>
      <point x="549" y="88" type="line"/>
      <point x="383" y="88" type="line"/>
      <point x="393" y="153" type="line"/>
      <point x="439" y="213"/>
      <point x="497" y="313"/>
      <point x="527" y="382" type="curve"/>
      <point x="604" y="382" type="line"/>
      <point x="575" y="303"/>
      <point x="492" y="190"/>
      <point x="455" y="153" type="curve"/>
    </contour>
  </outline>
</glyph>
<glyph name="questiondown" format="1">
  <advance width="572"/>
  <unicode hex="00BF"/>
  <outline>
    <contour>
      <point x="255" y="511" type="curve"/>
      <point x="403" y="511" type="line"/>
      <point x="396" y="462"/>
      <point x="389" y="413"/>
      <point x="383" y="364" type="curve"/>
      <point x="235" y="364" type="line"/>
      <point x="242" y="413"/>
      <point x="249" y="462"/>
    </contour>
    <contour>
      <point x="371" y="310" type="line"/>
      <point x="362" y="248" type="line" smooth="yes"/>
      <point x="348" y="149"/>
      <point x="187" y="118"/>
      <point x="186" y="7" type="curve" smooth="yes"/>
      <point x="186" y="-31"/>
      <point x="213" y="-71"/>
      <point x="267" y="-71" type="curve" smooth="yes"/>
      <point x="352" y="-71"/>
      <point x="374" y="-4"/>
      <point x="376" y="59" type="curve"/>
      <point x="517" y="59" type="line"/>
      <point x="517" y="-88"/>
      <point x="404" y="-185"/>
      <point x="251" y="-185" type="curve" smooth="yes"/>
      <point x="239" y="-185" type="line" smooth="yes"/>
      <point x="106" y="-185"/>
      <point x="31" y="-94"/>
      <point x="31" y="-5" type="curve" smooth="yes"/>
      <point x="31" y="174"/>
      <point x="221" y="201"/>
      <point x="231" y="274" type="curve" smooth="yes"/>
      <point x="236" y="310" type="line"/>
    </contour>
  </outline>
</glyph>
<glyph name="Agrave" format="1">
  <advance width="686"/>
  <unicode hex="00C0"/>
  <outline>
    <contour>
      <point x="261" y="892" type="line"/>
      <point x="263" y="895" type="line"/>
      <point x="391" y="895" type="line"/>
      <point x="463" y="750" type="line"/>
      <point x="361" y="750" type="line"/>
    </contour>
    <contour>
      <point x="169" y="135" type="line"/>
      <point x="102" y="0" type="line"/>
      <point x="-46" y="0" type="line"/>
      <point x="299" y="686" type="line"/>
      <point x="483" y="686" type="line"/>
      <point x="635" y="0" type="line"/>
      <point x="473" y="0" type="line"/>
      <point x="442" y="135" type="line"/>
    </contour>
    <contour>
      <point x="364" y="521" type="line"/>
      <point x="359" y="521" type="line"/>
      <point x="315" y="432"/>
      <point x="271" y="342"/>
      <point x="228" y="252" type="curve"/>
      <point x="418" y="252" type="line"/>
    </contour>
  </outline>
</glyph>
<glyph name="Acircumflex" format="1">
  <advance width="686"/>
  <unicode hex="00C2"/>
  <outline>
    <contour>
      <point x="365" y="895" type="line"/>
      <point x="468" y="895" type="line"/>
      <point x="506" y="847"/>
      <point x="545" y="798"/>
      <point x="584" y="750" type="curve"/>
      <point x="479" y="750" type="line"/>
      <point x="407" y="833" type="line"/>
      <point x="310" y="750" type="line"/>
      <point x="206" y="750" type="line"/>
    </contour>
    <contour>
      <point x="169" y="135" type="line"/>
      <point x="102" y="0" type="line"/>
      <point x="-46" y="0" type="line"/>
      <point x="299" y="686" type="line"/>
      <point x="483" y="686" type="line"/>
      <point x="635" y="0" type="line"/>
      <point x="473" y="0" type="line"/>
      <point x="442" y="135" type="line"/>
    </contour>
    <contour>
      <point x="364" y="521" type="line"/>
      <point x="359" y="521" type="line"/>
      <point x="315" y="432"/>
      <point x="271" y="342"/>
      <point x="228" y="252" type="curve"/>
      <point x="418" y="252" type="line"/>
    </contour>
  </outline>
</glyph>
<glyph name="Atilde" format="1">
  <advance width="686"/>
  <unicode hex="00C3"/>
  <outline>
    <contour>
      <point x="540" y="873" type="curve"/>
      <point x="605" y="873" type="line"/>
      <point x="597" y="813"/>
      <point x="540" y="749"/>
      <point x="462" y="749" type="curve" smooth="yes"/>
      <point x="398" y="749"/>
      <point x="350" y="786"/>
      <point x="296" y="786" type="curve" smooth="yes"/>
      <point x="268" y="786"/>
      <point x="249" y="772"/>
      <point x="239" y="749" type="curve"/>
      <point x="174" y="749" type="line"/>
      <point x="182" y="808"/>
      <point x="239" y="873"/>
      <point x="317" y="873" type="curve" smooth="yes"/>
      <point x="381" y="873"/>
      <point x="428" y="835"/>
      <point x="482" y="835" type="curve" smooth="yes"/>
      <point x="510" y="835"/>
      <point x="530" y="850"/>
    </contour>
    <contour>
      <point x="169" y="135" type="line"/>
      <point x="102" y="0" type="line"/>
      <point x="-46" y="0" type="line"/>
      <point x="299" y="686" type="line"/>
      <point x="483" y="686" type="line"/>
      <point x="635" y="0" type="line"/>
      <point x="473" y="0" type="line"/>
      <point x="442" y="135" type="line"/>
    </contour>
    <contour>
      <point x="364" y="521" type="line"/>
      <point x="359" y="521" type="line"/>
      <point x="315" y="432"/>
      <point x="271" y="342"/>
      <point x="228" y="252" type="curve"/>
      <point x="418" y="252" type="line"/>
    </contour>
  </outline>
</glyph>
<glyph name="Adieresis" format="1">
  <advance width="686"/>
  <unicode hex="00C4"/>
  <outline>
    <contour>
      <point x="368" y="872" type="line"/>
      <point x="351" y="750" type="line"/>
      <point x="230" y="750" type="line"/>
      <point x="247" y="872" type="line"/>
    </contour>
    <contour>
      <point x="572" y="872" type="line"/>
      <point x="555" y="750" type="line"/>
      <point x="434" y="750" type="line"/>
      <point x="451" y="872" type="line"/>
    </contour>
    <contour>
      <point x="169" y="135" type="line"/>
      <point x="102" y="0" type="line"/>
      <point x="-46" y="0" type="line"/>
      <point x="299" y="686" type="line"/>
      <point x="483" y="686" type="line"/>
      <point x="635" y="0" type="line"/>
      <point x="473" y="0" type="line"/>
      <point x="442" y="135" type="line"/>
    </contour>
    <contour>
      <point x="364" y="521" type="line"/>
      <point x="359" y="521" type="line"/>
      <point x="315" y="432"/>
      <point x="271" y="342"/>
      <point x="228" y="252" type="curve"/>
      <point x="418" y="252" type="line"/>
    </contour>
  </outline>
</glyph>
<glyph name="Aring" format="1">
  <advance width="686"/>
  <unicode hex="00C5"/>
  <outline>
    <contour>
      <point x="512" y="841" type="curve" smooth="yes"/>
      <point x="512" y="779"/>
      <point x="460" y="730"/>
      <point x="400" y="730" type="curve" smooth="yes"/>
      <point x="347" y="730"/>
      <point x="308" y="768"/>
      <point x="308" y="820" type="curve" smooth="yes"/>
      <point x="308" y="883"/>
      <point x="362" y="931"/>
      <point x="421" y="931" type="curve" smooth="yes"/>
      <point x="473" y="931"/>
      <point x="512" y="893"/>
    </contour>
    <contour>
      <point x="406" y="783" type="curve" smooth="yes"/>
      <point x="431" y="783"/>
      <point x="457" y="803"/>
      <point x="457" y="834" type="curve" smooth="yes"/>
      <point x="457" y="859"/>
      <point x="439" y="878"/>
      <point x="414" y="878" type="curve" smooth="yes"/>
      <point x="387" y="878"/>
      <point x="364" y="856"/>
      <point x="364" y="826" type="curve" smooth="yes"/>
      <point x="364" y="802"/>
      <point x="381" y="783"/>
    </contour>
    <contour>
      <point x="169" y="135" type="line"/>
      <point x="102" y="0" type="line"/>
      <point x="-46" y="0" type="line"/>
      <point x="299" y="686" type="line"/>
      <point x="483" y="686" type="line"/>
      <point x="635" y="0" type="line"/>
      <point x="473" y="0" type="line"/>
      <point x="442" y="135" type="line"/>
    </contour>
    <contour>
      <point x="364" y="521" type="line"/>
      <point x="359" y="521" type="line"/>
      <point x="315" y="432"/>
      <point x="271" y="342"/>
      <point x="228" y="252" type="curve"/>
      <point x="418" y="252" type="line"/>
    </contour>
  </outline>
</glyph>
<glyph name="AE" format="1">
  <advance width="1004"/>
  <unicode hex="00C6"/>
  <outline>
    <contour>
      <point x="185" y="135" type="line"/>
      <point x="98" y="0" type="line"/>
      <point x="-48" y="0" type="line"/>
      <point x="392" y="686" type="line"/>
      <point x="1008" y="686" type="line"/>
      <point x="974" y="563" type="line"/>
      <point x="585" y="563" type="line"/>
      <point x="598" y="411" type="line"/>
      <point x="931" y="411" type="line"/>
      <point x="914" y="290" type="line"/>
      <point x="607" y="290" type="line"/>
      <point x="612" y="236"/>
      <point x="618" y="178"/>
      <point x="622" y="123" type="curve"/>
      <point x="915" y="123" type="line"/>
      <point x="915" y="0" type="line"/>
      <point x="469" y="0" type="line"/>
      <point x="458" y="135" type="line"/>
    </contour>
    <contour>
      <point x="434" y="521" type="curve"/>
      <point x="429" y="521" type="line"/>
      <point x="372" y="432"/>
      <point x="316" y="342"/>
      <point x="260" y="252" type="curve"/>
      <point x="451" y="252" type="line"/>
      <point x="444" y="342"/>
      <point x="440" y="432"/>
    </contour>
  </outline>
</glyph>
<glyph name="Ccedilla" format="1">
  <advance width="683"/>
  <unicode hex="00C7"/>
  <outline>
    <contour>
      <point x="483" y="270" type="curve"/>
      <point x="624" y="270" type="line"/>
      <point x="598" y="88"/>
      <point x="480" y="-10"/>
      <point x="311" y="-10" type="curve" smooth="yes"/>
      <point x="297" y="-10" type="line" smooth="yes"/>
      <point x="144" y="-10"/>
      <point x="35" y="75"/>
      <point x="35" y="237" type="curve" smooth="yes"/>
      <point x="35" y="255"/>
      <point x="38" y="277"/>
      <point x="54" y="392" type="curve" smooth="yes"/>
      <point x="81" y="586"/>
      <point x="214" y="696"/>
      <point x="392" y="696" type="curve" smooth="yes"/>
      <point x="406" y="696" type="line" smooth="yes"/>
      <point x="546" y="696"/>
      <point x="648" y="620"/>
      <point x="648" y="468" type="curve" smooth="yes"/>
      <point x="648" y="451"/>
      <point x="647" y="433"/>
      <point x="644" y="414" type="curve"/>
      <point x="497" y="414" type="line"/>
      <point x="499" y="427"/>
      <point x="500" y="440"/>
      <point x="501" y="453" type="curve" smooth="yes"/>
      <point x="501" y="457" type="line" smooth="yes"/>
      <point x="501" y="531"/>
      <point x="454" y="573"/>
      <point x="384" y="573" type="curve" smooth="yes"/>
      <point x="269" y="573"/>
      <point x="231" y="498"/>
      <point x="214" y="382" type="curve" smooth="yes"/>
      <point x="202" y="303"/>
      <point x="196" y="270"/>
      <point x="196" y="240" type="curve" smooth="yes"/>
      <point x="196" y="151"/>
      <point x="247" y="113"/>
      <point x="325" y="113" type="curve" smooth="yes"/>
      <point x="416" y="113"/>
      <point x="468" y="165"/>
    </contour>
    <contour>
      <point x="153" y="-168" type="curve"/>
      <point x="181" y="-116" type="line"/>
      <point x="187" y="-119"/>
      <point x="214" y="-142"/>
      <point x="261" y="-142" type="curve" smooth="yes"/>
      <point x="288" y="-142"/>
      <point x="315" y="-130"/>
      <point x="315" y="-99" type="curve" smooth="yes"/>
      <point x="315" y="-79"/>
      <point x="301" y="-68"/>
      <point x="275" y="-68" type="curve" smooth="yes"/>
      <point x="255" y="-68" type="line"/>
      <point x="262" y="-17" type="line"/>
      <point x="285" y="-17" type="line" smooth="yes"/>
      <point x="337" y="-17"/>
      <point x="390" y="-32"/>
      <point x="390" y="-91" type="curve" smooth="yes"/>
      <point x="390" y="-180"/>
      <point x="303" y="-197"/>
      <point x="257" y="-197" type="curve" smooth="yes"/>
      <point x="220" y="-197"/>
      <point x="177" y="-187"/>
    </contour>
  </outline>
</glyph>
<glyph name="Eacute" format="1">
  <advance width="598"/>
  <unicode hex="00C9"/>
  <outline>
    <contour>
      <point x="429" y="895" type="line"/>
      <point x="558" y="895" type="line"/>
      <point x="558" y="891" type="line"/>
      <point x="417" y="750" type="line"/>
      <point x="316" y="750" type="line"/>
    </contour>
    <contour>
      <point x="120" y="686" type="line"/>
      <point x="603" y="686" type="line"/>
      <point x="568" y="563" type="line"/>
      <point x="254" y="563" type="line"/>
      <point x="233" y="413" type="line"/>
      <point x="526" y="413" type="line"/>
      <point x="509" y="290" type="line"/>
      <point x="216" y="290" type="line"/>
      <point x="193" y="123" type="line"/>
      <point x="509" y="123" type="line"/>
      <point x="509" y="0" type="line"/>
      <point x="23" y="0" type="line"/>
    </contour>
  </outline>
</glyph>
<glyph name="Ecircumflex" format="1">
  <advance width="598"/>
  <unicode hex="00CA"/>
  <outline>
    <contour>
      <point x="333" y="895" type="line"/>
      <point x="436" y="895" type="line"/>
      <point x="474" y="847"/>
      <point x="513" y="798"/>
      <point x="552" y="750" type="curve"/>
      <point x="447" y="750" type="line"/>
      <point x="375" y="833" type="line"/>
      <point x="278" y="750" type="line"/>
      <point x="174" y="750" type="line"/>
    </contour>
    <contour>
      <point x="120" y="686" type="line"/>
      <point x="603" y="686" type="line"/>
      <point x="568" y="563" type="line"/>
      <point x="254" y="563" type="line"/>
      <point x="233" y="413" type="line"/>
      <point x="526" y="413" type="line"/>
      <point x="509" y="290" type="line"/>
      <point x="216" y="290" type="line"/>
      <point x="193" y="123" type="line"/>
      <point x="509" y="123" type="line"/>
      <point x="509" y="0" type="line"/>
      <point x="23" y="0" type="line"/>
    </contour>
  </outline>
</glyph>
<glyph name="Iacute" format="1">
  <advance width="461"/>
  <unicode hex="00CD"/>
  <outline>
    <contour>
      <point x="337" y="895" type="line"/>
      <point x="466" y="895" type="line"/>
      <point x="466" y="891" type="line"/>
      <point x="325" y="750" type="line"/>
      <point x="224" y="750" type="line"/>
    </contour>
    <contour>
      <point x="436" y="686" type="line"/>
      <point x="418" y="563" type="line"/>
      <point x="338" y="563" type="line"/>
      <point x="277" y="123" type="line"/>
      <point x="357" y="123" type="line"/>
      <point x="339" y="0" type="line"/>
      <point x="23" y="0" type="line"/>
      <point x="41" y="123" type="line"/>
      <point x="122" y="123" type="line"/>
      <point x="183" y="563" type="line"/>
      <point x="102" y="563" type="line"/>
      <point x="120" y="686" type="line"/>
    </contour>
  </outline>
</glyph>
<glyph name="Icircumflex" format="1">
  <advance width="461"/>
  <unicode hex="00CE"/>
  <outline>
    <contour>
      <point x="256" y="895" type="line"/>
      <point x="359" y="895" type="line"/>
      <point x="397" y="847"/>
      <point x="436" y="798"/>
      <point x="475" y="750" type="curve"/>
      <point x="370" y="750" type="line"/>
      <point x="298" y="833" type="line"/>
      <point x="201" y="750" type="line"/>
      <point x="97" y="750" type="line"/>
    </contour>
    <contour>
      <point x="436" y="686" type="line"/>
      <point x="418" y="563" type="line"/>
      <point x="338" y="563" type="line"/>
      <point x="277" y="123" type="line"/>
      <point x="357" y="123" type="line"/>
      <point x="339" y="0" type="line"/>
      <point x="23" y="0" type="line"/>
      <point x="41" y="123" type="line"/>
      <point x="122" y="123" type="line"/>
      <point x="183" y="563" type="line"/>
      <point x="102" y="563" type="line"/>
      <point x="120" y="686" type="line"/>
    </contour>
  </outline>
</glyph>
<glyph name="Idieresis" format="1">
  <advance width="461"/>
  <unicode hex="00CF"/>
  <outline>
    <contour>
      <point x="263" y="872" type="line"/>
      <point x="246" y="750" type="line"/>
      <point x="125" y="750" type="line"/>
      <point x="142" y="872" type="line"/>
    </contour>
    <contour>
      <point x="467" y="872" type="line"/>
      <point x="450" y="750" type="line"/>
      <point x="329" y="750" type="line"/>
      <point x="346" y="872" type="line"/>
    </contour>
    <contour>
      <point x="436" y="686" type="line"/>
      <point x="418" y="563" type="line"/>
      <point x="338" y="563" type="line"/>
      <point x="277" y="123" type="line"/>
      <point x="357" y="123" type="line"/>
      <point x="339" y="0" type="line"/>
      <point x="23" y="0" type="line"/>
      <point x="41" y="123" type="line"/>
      <point x="122" y="123" type="line"/>
      <point x="183" y="563" type="line"/>
      <point x="102" y="563" type="line"/>
      <point x="120" y="686" type="line"/>
    </contour>
  </outline>
</glyph>
<glyph name="Ntilde" format="1">
  <advance width="691"/>
  <unicode hex="00D1"/>
  <outline>
    <contour>
      <point x="550" y="873" type="curve"/>
      <point x="615" y="873" type="line"/>
      <point x="607" y="813"/>
      <point x="550" y="749"/>
      <point x="472" y="749" type="curve" smooth="yes"/>
      <point x="408" y="749"/>
      <point x="360" y="786"/>
      <point x="306" y="786" type="curve" smooth="yes"/>
      <point x="278" y="786"/>
      <point x="259" y="772"/>
      <point x="249" y="749" type="curve"/>
      <point x="184" y="749" type="line"/>
      <point x="192" y="808"/>
      <point x="249" y="873"/>
      <point x="327" y="873" type="curve" smooth="yes"/>
      <point x="391" y="873"/>
      <point x="438" y="835"/>
      <point x="492" y="835" type="curve" smooth="yes"/>
      <point x="520" y="835"/>
      <point x="540" y="850"/>
    </contour>
    <contour>
      <point x="438" y="0" type="line"/>
      <point x="268" y="316" type="line" smooth="yes"/>
      <point x="254" y="342"/>
      <point x="225" y="405"/>
      <point x="225" y="405" type="curve"/>
      <point x="221" y="402" type="line"/>
      <point x="164" y="0" type="line"/>
      <point x="23" y="0" type="line"/>
      <point x="120" y="686" type="line"/>
      <point x="251" y="686" type="line"/>
      <point x="422" y="368" type="line" smooth="yes"/>
      <point x="437" y="340"/>
      <point x="450" y="309"/>
      <point x="465" y="280" type="curve"/>
      <point x="468" y="283" type="line"/>
      <point x="525" y="686" type="line"/>
      <point x="666" y="686" type="line"/>
      <point x="569" y="0" type="line"/>
    </contour>
  </outline>
</glyph>
<glyph name="Odieresis" format="1">
  <advance width="708"/>
  <unicode hex="00D6"/>
  <outline>
    <contour>
      <point x="398" y="872" type="line"/>
      <point x="381" y="750" type="line"/>
      <point x="260" y="750" type="line"/>
      <point x="277" y="872" type="line"/>
    </contour>
    <contour>
      <point x="602" y="872" type="line"/>
      <point x="585" y="750" type="line"/>
      <point x="464" y="750" type="line"/>
      <point x="481" y="872" type="line"/>
    </contour>
    <contour>
      <point x="652" y="294" type="curve" smooth="yes"/>
      <point x="623" y="91"/>
      <point x="484" y="-10"/>
      <point x="289" y="-10" type="curve" smooth="yes"/>
      <point x="143" y="-10"/>
      <point x="36" y="86"/>
      <point x="36" y="241" type="curve" smooth="yes"/>
      <point x="36" y="271"/>
      <point x="38" y="276"/>
      <point x="54" y="391" type="curve" smooth="yes"/>
      <point x="82" y="592"/>
      <point x="221" y="695"/>
      <point x="416" y="695" type="curve" smooth="yes"/>
      <point x="562" y="695"/>
      <point x="669" y="599"/>
      <point x="669" y="443" type="curve" smooth="yes"/>
      <point x="669" y="416"/>
      <point x="668" y="409"/>
    </contour>
    <contour>
      <point x="487" y="272" type="curve" smooth="yes"/>
      <point x="501" y="364"/>
      <point x="509" y="406"/>
      <point x="509" y="449" type="curve" smooth="yes"/>
      <point x="509" y="526"/>
      <point x="458" y="573"/>
      <point x="384" y="573" type="curve" smooth="yes"/>
      <point x="284" y="573"/>
      <point x="230" y="506"/>
      <point x="215" y="390" type="curve" smooth="yes"/>
      <point x="203" y="304"/>
      <point x="197" y="271"/>
      <point x="197" y="236" type="curve" smooth="yes"/>
      <point x="197" y="159"/>
      <point x="247" y="113"/>
      <point x="322" y="113" type="curve" smooth="yes"/>
      <point x="409" y="113"/>
      <point x="472" y="167"/>
    </contour>
  </outline>
</glyph>
<glyph name="multiply" format="1">
  <advance width="600"/>
  <unicode hex="00D7"/>
  <outline>
    <contour>
      <point x="310" y="330" type="line"/>
      <point x="474" y="474" type="line"/>
      <point x="496" y="449"/>
      <point x="516" y="424"/>
      <point x="537" y="399" type="curve"/>
      <point x="372" y="255" type="line"/>
      <point x="496" y="112" type="line"/>
      <point x="468" y="87"/>
      <point x="440" y="62"/>
      <point x="413" y="37" type="curve"/>
      <point x="372" y="85"/>
      <point x="329" y="132"/>
      <point x="289" y="180" type="curve"/>
      <point x="124" y="37" type="line"/>
      <point x="103" y="62"/>
      <point x="83" y="87"/>
      <point x="61" y="112" type="curve"/>
      <point x="225" y="255" type="line"/>
      <point x="102" y="399" type="line"/>
      <point x="130" y="424"/>
      <point x="158" y="449"/>
      <point x="185" y="474" type="curve"/>
    </contour>
  </outline>
</glyph>
<glyph name="Oslash" format="1">
  <advance width="708"/>
  <unicode hex="00D8"/>
  <outline>
    <contour>
      <point x="652" y="294" type="curve" smooth="yes"/>
      <point x="623" y="91"/>
      <point x="484" y="-10"/>
      <point x="289" y="-10" type="curve" smooth="yes"/>
      <point x="239" y="-10"/>
      <point x="194" y="1"/>
      <point x="156" y="22" type="curve"/>
      <point x="91" y="-65" type="line"/>
      <point x="5" y="-65" type="line"/>
      <point x="101" y="64" type="line"/>
      <point x="60" y="107"/>
      <point x="36" y="167"/>
      <point x="36" y="241" type="curve" smooth="yes"/>
      <point x="36" y="271"/>
      <point x="38" y="276"/>
      <point x="54" y="391" type="curve" smooth="yes"/>
      <point x="82" y="592"/>
      <point x="221" y="695"/>
      <point x="416" y="695" type="curve" smooth="yes"/>
      <point x="465" y="695"/>
      <point x="510" y="684"/>
      <point x="547" y="664" type="curve"/>
      <point x="615" y="754" type="line"/>
      <point x="701" y="754" type="line"/>
      <point x="603" y="622" type="line"/>
      <point x="644" y="579"/>
      <point x="669" y="517"/>
      <point x="669" y="443" type="curve" smooth="yes"/>
      <point x="669" y="416"/>
      <point x="668" y="409"/>
    </contour>
    <contour>
      <point x="197" y="236" type="curve" smooth="yes"/>
      <point x="197" y="222"/>
      <point x="198" y="210"/>
      <point x="201" y="199" type="curve"/>
      <point x="462" y="549" type="line"/>
      <point x="441" y="564"/>
      <point x="415" y="573"/>
      <point x="384" y="573" type="curve" smooth="yes"/>
      <point x="284" y="573"/>
      <point x="230" y="506"/>
      <point x="215" y="390" type="curve" smooth="yes"/>
      <point x="203" y="304"/>
      <point x="197" y="271"/>
    </contour>
    <contour>
      <point x="487" y="272" type="curve" smooth="yes"/>
      <point x="501" y="364"/>
      <point x="509" y="406"/>
      <point x="509" y="449" type="curve" smooth="yes"/>
      <point x="509" y="463"/>
      <point x="507" y="477"/>
      <point x="503" y="489" type="curve"/>
      <point x="241" y="137" type="line"/>
      <point x="262" y="121"/>
      <point x="290" y="113"/>
      <point x="322" y="113" type="curve" smooth="yes"/>
      <point x="409" y="113"/>
      <point x="472" y="167"/>
    </contour>
  </outline>
</glyph>
<glyph name="Yacute" format="1">
  <advance width="637"/>
  <unicode hex="00DD"/>
  <outline>
    <contour>
      <point x="445" y="895" type="line"/>
      <point x="574" y="895" type="line"/>
      <point x="574" y="891" type="line"/>
      <point x="433" y="750" type="line"/>
      <point x="332" y="750" type="line"/>
    </contour>
    <contour>
      <point x="347" y="0" type="line"/>
      <point x="193" y="0" type="line"/>
      <point x="230" y="263" type="line"/>
      <point x="55" y="686" type="line"/>
      <point x="229" y="686" type="line"/>
      <point x="333" y="414" type="line"/>
      <point x="338" y="414" type="line"/>
      <point x="520" y="686" type="line"/>
      <point x="678" y="686" type="line"/>
      <point x="384" y="263" type="line"/>
    </contour>
  </outline>
</glyph>
<glyph name="Thorn" format="1">
  <advance width="634"/>
  <unicode hex="00DE"/>
  <outline>
    <contour>
      <point x="177" y="0" type="line"/>
      <point x="23" y="0" type="line"/>
      <point x="120" y="686" type="line"/>
      <point x="274" y="686" type="line"/>
      <point x="258" y="572" type="line"/>
      <point x="435" y="572" type="line" smooth="yes"/>
      <point x="539" y="572"/>
      <point x="615" y="500"/>
      <point x="615" y="398" type="curve" smooth="yes"/>
      <point x="615" y="275"/>
      <point x="519" y="154"/>
      <point x="376" y="154" type="curve" smooth="yes"/>
      <point x="199" y="154" type="line"/>
    </contour>
    <contour>
      <point x="216" y="272" type="line"/>
      <point x="362" y="272" type="line" smooth="yes"/>
      <point x="418" y="272"/>
      <point x="459" y="325"/>
      <point x="459" y="380" type="curve" smooth="yes"/>
      <point x="459" y="420"/>
      <point x="429" y="450"/>
      <point x="387" y="450" type="curve" smooth="yes"/>
      <point x="241" y="450" type="line"/>
    </contour>
  </outline>
</glyph>
<glyph name="germandbls" format="1">
  <advance width="622"/>
  <unicode hex="00DF"/>
  <outline>
    <contour>
      <point x="570" y="239" type="curve" smooth="yes"/>
      <point x="570" y="102"/>
      <point x="456" y="0"/>
      <point x="305" y="0" type="curve" smooth="yes"/>
      <point x="232" y="0" type="line"/>
      <point x="246" y="100" type="line"/>
      <point x="297" y="100" type="line" smooth="yes"/>
      <point x="359" y="100"/>
      <point x="425" y="152"/>
      <point x="425" y="242" type="curve" smooth="yes"/>
      <point x="425" y="297"/>
      <point x="385" y="331"/>
      <point x="330" y="331" type="curve" smooth="yes"/>
      <point x="279" y="331" type="line"/>
      <point x="293" y="431" type="line"/>
      <point x="339" y="431" type="line" smooth="yes"/>
      <point x="394" y="431"/>
      <point x="448" y="480"/>
      <point x="448" y="549" type="curve" smooth="yes"/>
      <point x="448" y="598"/>
      <point x="414" y="628"/>
      <point x="366" y="628" type="curve" smooth="yes"/>
      <point x="308" y="628"/>
      <point x="266" y="584"/>
      <point x="258" y="526" type="curve" smooth="yes"/>
      <point x="175" y="-66" type="line"/>
      <point x="29" y="-66" type="line"/>
      <point x="96" y="411" type="line"/>
      <point x="36" y="411" type="line"/>
      <point x="50" y="511" type="line"/>
      <point x="110" y="511" type="line"/>
      <point x="133" y="648"/>
      <point x="258" y="728"/>
      <point x="384" y="728" type="curve" smooth="yes"/>
      <point x="492" y="728"/>
      <point x="593" y="679"/>
      <point x="593" y="574" type="curve" smooth="yes"/>
      <point x="593" y="497"/>
      <point x="541" y="420"/>
      <point x="472" y="393" type="curve"/>
      <point x="473" y="388" type="line"/>
      <point x="532" y="366"/>
      <point x="570" y="306"/>
    </contour>
  </outline>
</glyph>
<glyph name="aacute" format="1">
  <advance width="598"/>
  <unicode hex="00E1"/>
  <outline>
    <contour>
      <point x="376" y="720" type="line"/>
      <point x="505" y="720" type="line"/>
      <point x="505" y="716" type="line"/>
      <point x="364" y="575" type="line"/>
      <point x="263" y="575" type="line"/>
    </contour>
    <contour>
      <point x="450" y="511" type="line"/>
      <point x="557" y="511" type="line"/>
      <point x="544" y="421"/>
      <point x="503" y="132"/>
      <point x="503" y="117" type="curve" smooth="yes"/>
      <point x="503" y="100"/>
      <point x="512" y="90"/>
      <point x="528" y="90" type="curve" smooth="yes"/>
      <point x="542" y="90"/>
      <point x="560" y="97"/>
      <point x="570" y="104" type="curve"/>
      <point x="556" y="11" type="line"/>
      <point x="535" y="0"/>
      <point x="500" y="-10"/>
      <point x="466" y="-10" type="curve" smooth="yes"/>
      <point x="398" y="-10"/>
      <point x="365" y="17"/>
      <point x="360" y="66" type="curve"/>
      <point x="321" y="21"/>
      <point x="266" y="-10"/>
      <point x="203" y="-10" type="curve" smooth="yes"/>
      <point x="91" y="-10"/>
      <point x="31" y="66"/>
      <point x="31" y="191" type="curve" smooth="yes"/>
      <point x="31" y="371"/>
      <point x="122" y="521"/>
      <point x="272" y="521" type="curve" smooth="yes"/>
      <point x="333" y="521"/>
      <point x="385" y="493"/>
      <point x="411" y="448" type="curve"/>
      <point x="417" y="448" type="line"/>
    </contour>
    <contour>
      <point x="369" y="211" type="curve" smooth="yes"/>
      <point x="382" y="304"/>
      <point x="383" y="313"/>
      <point x="383" y="322" type="curve" smooth="yes"/>
      <point x="383" y="384"/>
      <point x="349" y="415"/>
      <point x="302" y="415" type="curve" smooth="yes"/>
      <point x="247" y="415"/>
      <point x="201" y="375"/>
      <point x="189" y="294" type="curve" smooth="yes"/>
      <point x="176" y="201"/>
      <point x="175" y="192"/>
      <point x="175" y="183" type="curve" smooth="yes"/>
      <point x="175" y="121"/>
      <point x="208" y="90"/>
      <point x="256" y="90" type="curve" smooth="yes"/>
      <point x="310" y="90"/>
      <point x="357" y="130"/>
    </contour>
  </outline>
</glyph>
<glyph name="atilde" format="1">
  <advance width="598"/>
  <unicode hex="00E3"/>
  <outline>
    <contour>
      <point x="483" y="720" type="curve"/>
      <point x="548" y="720" type="line"/>
      <point x="540" y="660"/>
      <point x="483" y="596"/>
      <point x="405" y="596" type="curve" smooth="yes"/>
      <point x="341" y="596"/>
      <point x="293" y="633"/>
      <point x="239" y="633" type="curve" smooth="yes"/>
      <point x="211" y="633"/>
      <point x="192" y="619"/>
      <point x="182" y="596" type="curve"/>
      <point x="117" y="596" type="line"/>
      <point x="125" y="655"/>
      <point x="182" y="720"/>
      <point x="260" y="720" type="curve" smooth="yes"/>
      <point x="324" y="720"/>
      <point x="371" y="682"/>
      <point x="425" y="682" type="curve" smooth="yes"/>
      <point x="453" y="682"/>
      <point x="473" y="697"/>
    </contour>
    <contour>
      <point x="450" y="511" type="line"/>
      <point x="557" y="511" type="line"/>
      <point x="544" y="421"/>
      <point x="503" y="132"/>
      <point x="503" y="117" type="curve" smooth="yes"/>
      <point x="503" y="100"/>
      <point x="512" y="90"/>
      <point x="528" y="90" type="curve" smooth="yes"/>
      <point x="542" y="90"/>
      <point x="560" y="97"/>
      <point x="570" y="104" type="curve"/>
      <point x="556" y="11" type="line"/>
      <point x="535" y="0"/>
      <point x="500" y="-10"/>
      <point x="466" y="-10" type="curve" smooth="yes"/>
      <point x="398" y="-10"/>
      <point x="365" y="17"/>
      <point x="360" y="66" type="curve"/>
      <point x="321" y="21"/>
      <point x="266" y="-10"/>
      <point x="203" y="-10" type="curve" smooth="yes"/>
      <point x="91" y="-10"/>
      <point x="31" y="66"/>
      <point x="31" y="191" type="curve" smooth="yes"/>
      <point x="31" y="371"/>
      <point x="122" y="521"/>
      <point x="272" y="521" type="curve" smooth="yes"/>
      <point x="333" y="521"/>
      <point x="385" y="493"/>
      <point x="411" y="448" type="curve"/>
      <point x="417" y="448" type="line"/>
    </contour>
    <contour>
      <point x="369" y="211" type="curve" smooth="yes"/>
      <point x="382" y="304"/>
      <point x="383" y="313"/>
      <point x="383" y="322" type="curve" smooth="yes"/>
      <point x="383" y="384"/>
      <point x="349" y="415"/>
      <point x="302" y="415" type="curve" smooth="yes"/>
      <point x="247" y="415"/>
      <point x="201" y="375"/>
      <point x="189" y="294" type="curve" smooth="yes"/>
      <point x="176" y="201"/>
      <point x="175" y="192"/>
      <point x="175" y="183" type="curve" smooth="yes"/>
      <point x="175" y="121"/>
      <point x="208" y="90"/>
      <point x="256" y="90" type="curve" smooth="yes"/>
      <point x="310" y="90"/>
      <point x="357" y="130"/>
    </contour>
  </outline>
</glyph>
<glyph name="aring" format="1">
  <advance width="598"/>
  <unicode hex="00E5"/>
  <outline>
    <contour>
      <point x="442" y="668" type="curve" smooth="yes"/>
      <point x="442" y="606"/>
      <point x="390" y="557"/>
      <point x="330" y="557" type="curve" smooth="yes"/>
      <point x="277" y="557"/>
      <point x="238" y="595"/>
      <point x="238" y="647" type="curve" smooth="yes"/>
      <point x="238" y="710"/>
      <point x="292" y="758"/>
      <point x="351" y="758" type="curve" smooth="yes"/>
      <point x="403" y="758"/>
      <point x="442" y="720"/>
    </contour>
    <contour>
      <point x="336" y="610" type="curve" smooth="yes"/>
      <point x="361" y="610"/>
      <point x="387" y="630"/>
      <point x="387" y="661" type="curve" smooth="yes"/>
      <point x="387" y="686"/>
      <point x="369" y="705"/>
      <point x="344" y="705" type="curve" smooth="yes"/>
      <point x="317" y="705"/>
      <point x="294" y="683"/>
      <point x="294" y="653" type="curve" smooth="yes"/>
      <point x="294" y="629"/>
      <point x="311" y="610"/>
    </contour>
    <contour>
      <point x="450" y="511" type="line"/>
      <point x="557" y="511" type="line"/>
      <point x="544" y="421"/>
      <point x="503" y="132"/>
      <point x="503" y="117" type="curve" smooth="yes"/>
      <point x="503" y="100"/>
      <point x="512" y="90"/>
      <point x="528" y="90" type="curve" smooth="yes"/>
      <point x="542" y="90"/>
      <point x="560" y="97"/>
      <point x="570" y="104" type="curve"/>
      <point x="556" y="11" type="line"/>
      <point x="535" y="0"/>
      <point x="500" y="-10"/>
      <point x="466" y="-10" type="curve" smooth="yes"/>
      <point x="398" y="-10"/>
      <point x="365" y="17"/>
      <point x="360" y="66" type="curve"/>
      <point x="321" y="21"/>
      <point x="266" y="-10"/>
      <point x="203" y="-10" type="curve" smooth="yes"/>
      <point x="91" y="-10"/>
      <point x="31" y="66"/>
      <point x="31" y="191" type="curve" smooth="yes"/>
      <point x="31" y="371"/>
      <point x="122" y="521"/>
      <point x="272" y="521" type="curve" smooth="yes"/>
      <point x="333" y="521"/>
      <point x="385" y="493"/>
      <point x="411" y="448" type="curve"/>
      <point x="417" y="448" type="line"/>
    </contour>
    <contour>
      <point x="369" y="211" type="curve" smooth="yes"/>
      <point x="382" y="304"/>
      <point x="383" y="313"/>
      <point x="383" y="322" type="curve" smooth="yes"/>
      <point x="383" y="384"/>
      <point x="349" y="415"/>
      <point x="302" y="415" type="curve" smooth="yes"/>
      <point x="247" y="415"/>
      <point x="201" y="375"/>
      <point x="189" y="294" type="curve" smooth="yes"/>
      <point x="176" y="201"/>
      <point x="175" y="192"/>
      <point x="175" y="183" type="curve" smooth="yes"/>
      <point x="175" y="121"/>
      <point x="208" y="90"/>
      <point x="256" y="90" type="curve" smooth="yes"/>
      <point x="310" y="90"/>
      <point x="357" y="130"/>
    </contour>
  </outline>
</glyph>
<glyph name="ae" format="1">
  <advance width="918"/>
  <unicode hex="00E6"/>
  <outline>
    <contour>
      <point x="869" y="231" type="line"/>
      <point x="524" y="231" type="line"/>
      <point x="522" y="216"/>
      <point x="521" y="202"/>
      <point x="521" y="188" type="curve" smooth="yes"/>
      <point x="521" y="127"/>
      <point x="545" y="88"/>
      <point x="613" y="88" type="curve" smooth="yes"/>
      <point x="693" y="88"/>
      <point x="721" y="150"/>
      <point x="726" y="191" type="curve"/>
      <point x="862" y="191" type="line"/>
      <point x="846" y="73"/>
      <point x="744" y="-10"/>
      <point x="603" y="-10" type="curve" smooth="yes"/>
      <point x="593" y="-10" type="line" smooth="yes"/>
      <point x="508" y="-10"/>
      <point x="442" y="21"/>
      <point x="405" y="79" type="curve"/>
      <point x="352" y="23"/>
      <point x="266" y="-10"/>
      <point x="183" y="-10" type="curve" smooth="yes"/>
      <point x="108" y="-10"/>
      <point x="21" y="7"/>
      <point x="21" y="109" type="curve" smooth="yes"/>
      <point x="21" y="282"/>
      <point x="172" y="311"/>
      <point x="386" y="311" type="curve"/>
      <point x="393" y="353"/>
      <point x="393" y="358"/>
      <point x="393" y="362" type="curve" smooth="yes"/>
      <point x="393" y="395"/>
      <point x="374" y="425"/>
      <point x="311" y="425" type="curve" smooth="yes"/>
      <point x="242" y="425"/>
      <point x="216" y="383"/>
      <point x="213" y="362" type="curve" smooth="yes"/>
      <point x="212" y="354" type="line"/>
      <point x="71" y="354" type="line"/>
      <point x="71" y="449"/>
      <point x="174" y="521"/>
      <point x="318" y="521" type="curve" smooth="yes"/>
      <point x="339" y="521" type="line" smooth="yes"/>
      <point x="416" y="521"/>
      <point x="468" y="503"/>
      <point x="499" y="472" type="curve"/>
      <point x="544" y="504"/>
      <point x="602" y="521"/>
      <point x="663" y="521" type="curve" smooth="yes"/>
      <point x="679" y="521" type="line" smooth="yes"/>
      <point x="806" y="521"/>
      <point x="881" y="448"/>
      <point x="881" y="337" type="curve" smooth="yes"/>
      <point x="881" y="325"/>
      <point x="880" y="311"/>
      <point x="878" y="298" type="curve" smooth="yes"/>
    </contour>
    <contour>
      <point x="655" y="423" type="curve" smooth="yes"/>
      <point x="592" y="423"/>
      <point x="551" y="378"/>
      <point x="536" y="311" type="curve"/>
      <point x="736" y="311" type="line"/>
      <point x="739" y="330"/>
      <point x="739" y="335"/>
      <point x="739" y="341" type="curve" smooth="yes"/>
      <point x="739" y="392"/>
      <point x="703" y="423"/>
    </contour>
    <contour>
      <point x="370" y="197" type="curve" smooth="yes"/>
      <point x="375" y="229" type="line"/>
      <point x="243" y="229"/>
      <point x="175" y="205"/>
      <point x="175" y="137" type="curve" smooth="yes"/>
      <point x="175" y="99"/>
      <point x="205" y="88"/>
      <point x="249" y="88" type="curve" smooth="yes"/>
      <point x="304" y="88"/>
      <point x="359" y="129"/>
    </contour>
  </outline>
</glyph>
<glyph name="ccedilla" format="1">
  <advance width="571"/>
  <unicode hex="00E7"/>
  <outline>
    <contour>
      <point x="198" y="296" type="curve" smooth="yes"/>
      <point x="185" y="199"/>
      <point x="184" y="191"/>
      <point x="184" y="183" type="curve" smooth="yes"/>
      <point x="184" y="130"/>
      <point x="212" y="90"/>
      <point x="265" y="90" type="curve" smooth="yes"/>
      <point x="325" y="90"/>
      <point x="369" y="127"/>
      <point x="380" y="203" type="curve"/>
      <point x="518" y="203" type="line"/>
      <point x="497" y="55"/>
      <point x="382" y="-10"/>
      <point x="267" y="-10" type="curve" smooth="yes"/>
      <point x="251" y="-10" type="line" smooth="yes"/>
      <point x="119" y="-10"/>
      <point x="38" y="63"/>
      <point x="38" y="192" type="curve" smooth="yes"/>
      <point x="38" y="355"/>
      <point x="125" y="521"/>
      <point x="326" y="521" type="curve" smooth="yes"/>
      <point x="342" y="521" type="line" smooth="yes"/>
      <point x="448" y="521"/>
      <point x="535" y="457"/>
      <point x="535" y="341" type="curve" smooth="yes"/>
      <point x="535" y="330"/>
      <point x="535" y="319"/>
      <point x="533" y="307" type="curve"/>
      <point x="388" y="307" type="line"/>
      <point x="389" y="316"/>
      <point x="390" y="325"/>
      <point x="390" y="334" type="curve" smooth="yes"/>
      <point x="390" y="386"/>
      <point x="366" y="421"/>
      <point x="313" y="421" type="curve" smooth="yes"/>
      <point x="251" y="421"/>
      <point x="207" y="365"/>
    </contour>
    <contour>
      <point x="107" y="-168" type="curve"/>
      <point x="135" y="-116" type="line"/>
      <point x="141" y="-119"/>
      <point x="168" y="-142"/>
      <point x="215" y="-142" type="curve" smooth="yes"/>
      <point x="242" y="-142"/>
      <point x="269" y="-130"/>
      <point x="269" y="-99" type="curve" smooth="yes"/>
      <point x="269" y="-79"/>
      <point x="255" y="-68"/>
      <point x="229" y="-68" type="curve" smooth="yes"/>
      <point x="209" y="-68" type="line"/>
      <point x="216" y="-17" type="line"/>
      <point x="239" y="-17" type="line" smooth="yes"/>
      <point x="291" y="-17"/>
      <point x="344" y="-32"/>
      <point x="344" y="-91" type="curve" smooth="yes"/>
      <point x="344" y="-180"/>
      <point x="257" y="-197"/>
      <point x="211" y="-197" type="curve" smooth="yes"/>
      <point x="174" y="-197"/>
      <point x="131" y="-187"/>
    </contour>
  </outline>
</glyph>
<glyph name="egrave" format="1">
  <advance width="588"/>
  <unicode hex="00E8"/>
  <outline>
    <contour>
      <point x="200" y="717" type="line"/>
      <point x="202" y="720" type="line"/>
      <point x="330" y="720" type="line"/>
      <point x="402" y="575" type="line"/>
      <point x="300" y="575" type="line"/>
    </contour>
    <contour>
      <point x="392" y="191" type="curve"/>
      <point x="532" y="191" type="line"/>
      <point x="513" y="50"/>
      <point x="391" y="-10"/>
      <point x="273" y="-10" type="curve" smooth="yes"/>
      <point x="257" y="-10" type="line" smooth="yes"/>
      <point x="129" y="-10"/>
      <point x="39" y="65"/>
      <point x="39" y="197" type="curve" smooth="yes"/>
      <point x="39" y="385"/>
      <point x="150" y="521"/>
      <point x="332" y="521" type="curve" smooth="yes"/>
      <point x="348" y="521" type="line" smooth="yes"/>
      <point x="460" y="521"/>
      <point x="552" y="456"/>
      <point x="552" y="340" type="curve" smooth="yes"/>
      <point x="552" y="329"/>
      <point x="551" y="318"/>
      <point x="550" y="307" type="curve" smooth="yes"/>
      <point x="539" y="231" type="line"/>
      <point x="189" y="231" type="line"/>
      <point x="186" y="219"/>
      <point x="184" y="193"/>
      <point x="184" y="186" type="curve" smooth="yes"/>
      <point x="184" y="131"/>
      <point x="217" y="90"/>
      <point x="279" y="90" type="curve" smooth="yes"/>
      <point x="339" y="90"/>
      <point x="383" y="123"/>
    </contour>
    <contour>
      <point x="319" y="421" type="curve" smooth="yes"/>
      <point x="259" y="421"/>
      <point x="214" y="373"/>
      <point x="200" y="311" type="curve"/>
      <point x="402" y="311" type="line"/>
      <point x="403" y="320"/>
      <point x="404" y="329"/>
      <point x="404" y="338" type="curve" smooth="yes"/>
      <point x="404" y="387"/>
      <point x="381" y="421"/>
    </contour>
  </outline>
</glyph>
<glyph name="igrave" format="1">
  <advance width="278"/>
  <unicode hex="00EC"/>
  <outline>
    <contour>
      <point x="42" y="717" type="line"/>
      <point x="44" y="720" type="line"/>
      <point x="172" y="720" type="line"/>
      <point x="244" y="575" type="line"/>
      <point x="142" y="575" type="line"/>
    </contour>
    <contour>
      <point x="101" y="511" type="line"/>
      <point x="247" y="511" type="line"/>
      <point x="176" y="0" type="line"/>
      <point x="30" y="0" type="line"/>
    </contour>
  </outline>
</glyph>
<glyph name="iacute" format="1">
  <advance width="278"/>
  <unicode hex="00ED"/>
  <outline>
    <contour>
      <point x="224" y="720" type="line"/>
      <point x="353" y="720" type="line"/>
      <point x="353" y="716" type="line"/>
      <point x="212" y="575" type="line"/>
      <point x="111" y="575" type="line"/>
    </contour>
    <contour>
      <point x="101" y="511" type="line"/>
      <point x="247" y="511" type="line"/>
      <point x="176" y="0" type="line"/>
      <point x="30" y="0" type="line"/>
    </contour>
  </outline>
</glyph>
<glyph name="icircumflex" format="1">
  <advance width="278"/>
  <unicode hex="00EE"/>
  <outline>
    <contour>
      <point x="146" y="720" type="line"/>
      <point x="249" y="720" type="line"/>
      <point x="287" y="672"/>
      <point x="326" y="623"/>
      <point x="365" y="575" type="curve"/>
      <point x="260" y="575" type="line"/>
      <point x="188" y="658" type="line"/>
      <point x="91" y="575" type="line"/>
      <point x="-13" y="575" type="line"/>
    </contour>
    <contour>
      <point x="101" y="511" type="line"/>
      <point x="247" y="511" type="line"/>
      <point x="176" y="0" type="line"/>
      <point x="30" y="0" type="line"/>
    </contour>
  </outline>
</glyph>
<glyph name="idieresis" format="1">
  <advance width="278"/>
  <unicode hex="00EF"/>
  <outline>
    <contour>
      <point x="162" y="720" type="line"/>
      <point x="145" y="598" type="line"/>
      <point x="24" y="598" type="line"/>
      <point x="41" y="720" type="line"/>
    </contour>
    <contour>
      <point x="366" y="720" type="line"/>
      <point x="349" y="598" type="line"/>
      <point x="228" y="598" type="line"/>
      <point x="245" y="720" type="line"/>
    </contour>
    <contour>
      <point x="101" y="511" type="line"/>
      <point x="247" y="511" type="line"/>
      <point x="176" y="0" type="line"/>
      <point x="30" y="0" type="line"/>
    </contour>
  </outline>
</glyph>
<glyph name="eth" format="1">
  <advance width="614"/>
  <unicode hex="00F0"/>
  <outline>
    <contour>
      <point x="144" y="597" type="line"/>
      <point x="235" y="637" type="line"/>
      <point x="210" y="657"/>
      <point x="191" y="671"/>
      <point x="156" y="692" type="curve"/>
      <point x="249" y="734" type="line"/>
      <point x="278" y="720"/>
      <point x="307" y="703"/>
      <point x="336" y="684" type="curve"/>
      <point x="424" y="722" type="line"/>
      <point x="461" y="680" type="line"/>
      <point x="436" y="669"/>
      <point x="410" y="657"/>
      <point x="383" y="646" type="curve"/>
      <point x="477" y="562"/>
      <point x="551" y="444"/>
      <point x="551" y="315" type="curve" smooth="yes"/>
      <point x="551" y="139"/>
      <point x="449" y="-10"/>
      <point x="258" y="-10" type="curve" smooth="yes"/>
      <point x="242" y="-10" type="line" smooth="yes"/>
      <point x="114" y="-10"/>
      <point x="24" y="65"/>
      <point x="24" y="197" type="curve" smooth="yes"/>
      <point x="24" y="381"/>
      <point x="124" y="514"/>
      <point x="336" y="514" type="curve" smooth="yes"/>
      <point x="343" y="514" type="line"/>
      <point x="324" y="546"/>
      <point x="302" y="573"/>
      <point x="280" y="596" type="curve"/>
      <point x="185" y="555" type="line"/>
    </contour>
    <contour>
      <point x="392" y="215" type="curve" smooth="yes"/>
      <point x="404" y="306"/>
      <point x="405" y="315"/>
      <point x="405" y="323" type="curve" smooth="yes"/>
      <point x="405" y="389"/>
      <point x="366" y="421"/>
      <point x="311" y="421" type="curve" smooth="yes"/>
      <point x="248" y="421"/>
      <point x="194" y="380"/>
      <point x="183" y="296" type="curve" smooth="yes"/>
      <point x="170" y="205"/>
      <point x="170" y="196"/>
      <point x="170" y="188" type="curve" smooth="yes"/>
      <point x="170" y="122"/>
      <point x="209" y="90"/>
      <point x="264" y="90" type="curve" smooth="yes"/>
      <point x="325" y="90"/>
      <point x="380" y="131"/>
    </contour>
  </outline>
</glyph>
<glyph name="ntilde" format="1">
  <advance width="598"/>
  <unicode hex="00F1"/>
  <outline>
    <contour>
      <point x="499" y="720" type="curve"/>
      <point x="564" y="720" type="line"/>
      <point x="556" y="660"/>
      <point x="499" y="596"/>
      <point x="421" y="596" type="curve" smooth="yes"/>
      <point x="357" y="596"/>
      <point x="309" y="633"/>
      <point x="255" y="633" type="curve" smooth="yes"/>
      <point x="227" y="633"/>
      <point x="208" y="619"/>
      <point x="198" y="596" type="curve"/>
      <point x="133" y="596" type="line"/>
      <point x="141" y="655"/>
      <point x="198" y="720"/>
      <point x="276" y="720" type="curve" smooth="yes"/>
      <point x="340" y="720"/>
      <point x="387" y="682"/>
      <point x="441" y="682" type="curve" smooth="yes"/>
      <point x="469" y="682"/>
      <point x="489" y="697"/>
    </contour>
    <contour>
      <point x="210" y="511" type="line"/>
      <point x="215" y="436" type="line"/>
      <point x="253" y="479"/>
      <point x="311" y="521"/>
      <point x="390" y="521" type="curve" smooth="yes"/>
      <point x="479" y="521"/>
      <point x="548" y="477"/>
      <point x="548" y="386" type="curve" smooth="yes"/>
      <point x="548" y="362"/>
      <point x="547" y="367"/>
      <point x="496" y="0" type="curve"/>
      <point x="350" y="0" type="line"/>
      <point x="397" y="330"/>
      <point x="397" y="331"/>
      <point x="397" y="340" type="curve" smooth="yes"/>
      <point x="397" y="384"/>
      <point x="370" y="415"/>
      <point x="328" y="415" type="curve" smooth="yes"/>
      <point x="277" y="415"/>
      <point x="227" y="371"/>
      <point x="219" y="314" type="curve" smooth="yes"/>
      <point x="175" y="0" type="line"/>
      <point x="29" y="0" type="line"/>
      <point x="101" y="511" type="line"/>
    </contour>
  </outline>
</glyph>
<glyph name="divide" format="1">
  <advance width="600"/>
  <unicode hex="00F7"/>
  <outline>
    <contour>
      <point x="384" y="478" type="line"/>
      <point x="368" y="369" type="line"/>
      <point x="263" y="369" type="line"/>
      <point x="279" y="478" type="line"/>
    </contour>
    <contour>
      <point x="51" y="309" type="line"/>
      <point x="563" y="309" type="line"/>
      <point x="548" y="203" type="line"/>
      <point x="36" y="203" type="line"/>
    </contour>
    <contour>
      <point x="336" y="142" type="line"/>
      <point x="321" y="34" type="line"/>
      <point x="216" y="34" type="line"/>
      <point x="231" y="142" type="line"/>
    </contour>
  </outline>
</glyph>
<glyph name="oslash" format="1">
  <advance width="606"/>
  <unicode hex="00F8"/>
  <outline>
    <contour>
      <point x="564" y="314" type="curve" smooth="yes"/>
      <point x="564" y="129"/>
      <point x="461" y="-10"/>
      <point x="271" y="-10" type="curve" smooth="yes"/>
      <point x="255" y="-10" type="line" smooth="yes"/>
      <point x="216" y="-10"/>
      <point x="181" y="-3"/>
      <point x="150" y="10" type="curve"/>
      <point x="100" y="-55" type="line"/>
      <point x="25" y="-55" type="line"/>
      <point x="35" y="-42"/>
      <point x="62" y="-6"/>
      <point x="100" y="42" type="curve"/>
      <point x="60" y="78"/>
      <point x="37" y="130"/>
      <point x="37" y="197" type="curve" smooth="yes"/>
      <point x="37" y="391"/>
      <point x="148" y="521"/>
      <point x="330" y="521" type="curve" smooth="yes"/>
      <point x="346" y="521" type="line" smooth="yes"/>
      <point x="386" y="521"/>
      <point x="422" y="513"/>
      <point x="453" y="499" type="curve"/>
      <point x="478" y="532"/>
      <point x="496" y="557"/>
      <point x="505" y="568" type="curve"/>
      <point x="580" y="568" type="line"/>
      <point x="502" y="467" type="line"/>
      <point x="541" y="431"/>
      <point x="564" y="380"/>
    </contour>
    <contour>
      <point x="187" y="154" type="curve"/>
      <point x="380" y="405" type="line"/>
      <point x="365" y="415"/>
      <point x="346" y="421"/>
      <point x="324" y="421" type="curve" smooth="yes"/>
      <point x="262" y="421"/>
      <point x="207" y="380"/>
      <point x="196" y="296" type="curve" smooth="yes"/>
      <point x="184" y="205"/>
      <point x="183" y="196"/>
      <point x="183" y="188" type="curve" smooth="yes"/>
      <point x="183" y="175"/>
      <point x="184" y="164"/>
    </contour>
    <contour>
      <point x="405" y="215" type="curve" smooth="yes"/>
      <point x="417" y="306"/>
      <point x="418" y="315"/>
      <point x="418" y="323" type="curve" smooth="yes"/>
      <point x="418" y="334"/>
      <point x="416" y="344"/>
      <point x="414" y="353" type="curve"/>
      <point x="222" y="104" type="line"/>
      <point x="237" y="94"/>
      <point x="256" y="90"/>
      <point x="277" y="90" type="curve" smooth="yes"/>
      <point x="337" y="90"/>
      <point x="393" y="131"/>
    </contour>
  </outline>
</glyph>
<glyph name="yacute" format="1">
  <advance width="545"/>
  <unicode hex="00FD"/>
  <outline>
    <contour>
      <point x="393" y="720" type="line"/>
      <point x="522" y="720" type="line"/>
      <point x="522" y="716" type="line"/>
      <point x="381" y="575" type="line"/>
      <point x="280" y="575" type="line"/>
    </contour>
    <contour>
      <point x="583" y="511" type="line"/>
      <point x="333" y="28" type="line" smooth="yes"/>
      <point x="271" y="-92"/>
      <point x="190" y="-187"/>
      <point x="81" y="-187" type="curve" smooth="yes"/>
      <point x="46" y="-187"/>
      <point x="18" y="-182"/>
      <point x="-1" y="-172" type="curve"/>
      <point x="12" y="-69" type="line"/>
      <point x="25" y="-75"/>
      <point x="53" y="-83"/>
      <point x="77" y="-83" type="curve" smooth="yes"/>
      <point x="120" y="-83"/>
      <point x="154" y="-53"/>
      <point x="181" y="10" type="curve"/>
      <point x="59" y="511" type="line"/>
      <point x="214" y="511" type="line"/>
      <point x="281" y="190" type="line"/>
      <point x="287" y="190" type="line"/>
      <point x="439" y="511" type="line"/>
    </contour>
  </outline>
</glyph>
<glyph name="thorn" format="1">
  <advance width="597"/>
  <unicode hex="00FE"/>
  <outline>
    <contour>
      <point x="275" y="720" type="line"/>
      <point x="239" y="466" type="line"/>
      <point x="274" y="498"/>
      <point x="318" y="521"/>
      <point x="375" y="521" type="curve" smooth="yes"/>
      <point x="478" y="521"/>
      <point x="554" y="457"/>
      <point x="554" y="319" type="curve" smooth="yes"/>
      <point x="554" y="168"/>
      <point x="486" y="-10"/>
      <point x="315" y="-10" type="curve" smooth="yes"/>
      <point x="245" y="-10"/>
      <point x="202" y="26"/>
      <point x="182" y="59" type="curve"/>
      <point x="148" y="-181" type="line"/>
      <point x="2" y="-181" type="line"/>
      <point x="129" y="720" type="line"/>
    </contour>
    <contour>
      <point x="396" y="217" type="curve" smooth="yes"/>
      <point x="409" y="310"/>
      <point x="410" y="319"/>
      <point x="410" y="328" type="curve" smooth="yes"/>
      <point x="410" y="390"/>
      <point x="376" y="421"/>
      <point x="329" y="421" type="curve" smooth="yes"/>
      <point x="274" y="421"/>
      <point x="228" y="381"/>
      <point x="216" y="300" type="curve" smooth="yes"/>
      <point x="203" y="207"/>
      <point x="202" y="198"/>
      <point x="202" y="189" type="curve" smooth="yes"/>
      <point x="202" y="127"/>
      <point x="235" y="96"/>
      <point x="283" y="96" type="curve" smooth="yes"/>
      <point x="337" y="96"/>
      <point x="384" y="136"/>
    </contour>
  </outline>
</glyph>
<glyph name="ydieresis" format="1">
  <advance width="545"/>
  <unicode hex="00FF"/>
  <outline>
    <contour>
      <point x="301" y="720" type="line"/>
      <point x="284" y="598" type="line"/>
      <point x="163" y="598" type="line"/>
      <point x="180" y="720" type="line"/>
    </contour>
    <contour>
      <point x="505" y="720" type="line"/>
      <point x="488" y="598" type="line"/>
      <point x="367" y="598" type="line"/>
      <point x="384" y="720" type="line"/>
    </contour>
    <contour>
      <point x="583" y="511" type="line"/>
      <point x="333" y="28" type="line" smooth="yes"/>
      <point x="271" y="-92"/>
      <point x="190" y="-187"/>
      <point x="81" y="-187" type="curve" smooth="yes"/>
      <point x="46" y="-187"/>
      <point x="18" y="-182"/>
      <point x="-1" y="-172" type="curve"/>
      <point x="12" y="-69" type="line"/>
      <point x="25" y="-75"/>
      <point x="53" y="-83"/>
      <point x="77" y="-83" type="curve" smooth="yes"/>
      <point x="120" y="-83"/>
      <point x="154" y="-53"/>
      <point x="181" y="10" type="curve"/>
      <point x="59" y="511" type="line"/>
      <point x="214" y="511" type="line"/>
      <point x="281" y="190" type="line"/>
      <point x="287" y="190" type="line"/>
      <point x="439" y="511" type="line"/>
    </contour>
  </outline>
</glyph>
<glyph name="Abreve" format="1">
  <advance width="686"/>
  <unicode hex="0102"/>
  <outline>
    <contour>
      <point x="410" y="788" type="curve" smooth="yes"/>
      <point x="309" y="788"/>
      <point x="234" y="849"/>
      <point x="234" y="904" type="curve" smooth="yes"/>
      <point x="234" y="906"/>
      <point x="234" y="909"/>
      <point x="235" y="912" type="curve" smooth="yes"/>
      <point x="316" y="912" type="line"/>
      <point x="319" y="888"/>
      <point x="362" y="862"/>
      <point x="420" y="862" type="curve" smooth="yes"/>
      <point x="476" y="862"/>
      <point x="530" y="890"/>
      <point x="538" y="912" type="curve"/>
      <point x="620" y="912" type="line"/>
      <point x="612" y="855"/>
      <point x="517" y="788"/>
    </contour>
    <contour>
      <point x="169" y="135" type="line"/>
      <point x="102" y="0" type="line"/>
      <point x="-46" y="0" type="line"/>
      <point x="299" y="686" type="line"/>
      <point x="483" y="686" type="line"/>
      <point x="635" y="0" type="line"/>
      <point x="473" y="0" type="line"/>
      <point x="442" y="135" type="line"/>
    </contour>
    <contour>
      <point x="364" y="521" type="line"/>
      <point x="359" y="521" type="line"/>
      <point x="315" y="432"/>
      <point x="271" y="342"/>
      <point x="228" y="252" type="curve"/>
      <point x="418" y="252" type="line"/>
    </contour>
  </outline>
</glyph>
<glyph name="abreve" format="1">
  <advance width="598"/>
  <unicode hex="0103"/>
  <outline>
    <contour>
      <point x="341" y="613" type="curve" smooth="yes"/>
      <point x="240" y="613"/>
      <point x="165" y="674"/>
      <point x="165" y="729" type="curve" smooth="yes"/>
      <point x="165" y="731"/>
      <point x="165" y="734"/>
      <point x="166" y="737" type="curve" smooth="yes"/>
      <point x="247" y="737" type="line"/>
      <point x="250" y="713"/>
      <point x="293" y="687"/>
      <point x="351" y="687" type="curve" smooth="yes"/>
      <point x="407" y="687"/>
      <point x="461" y="715"/>
      <point x="469" y="737" type="curve"/>
      <point x="551" y="737" type="line"/>
      <point x="543" y="680"/>
      <point x="448" y="613"/>
    </contour>
    <contour>
      <point x="450" y="511" type="line"/>
      <point x="557" y="511" type="line"/>
      <point x="544" y="421"/>
      <point x="503" y="132"/>
      <point x="503" y="117" type="curve" smooth="yes"/>
      <point x="503" y="100"/>
      <point x="512" y="90"/>
      <point x="528" y="90" type="curve" smooth="yes"/>
      <point x="542" y="90"/>
      <point x="560" y="97"/>
      <point x="570" y="104" type="curve"/>
      <point x="556" y="11" type="line"/>
      <point x="535" y="0"/>
      <point x="500" y="-10"/>
      <point x="466" y="-10" type="curve" smooth="yes"/>
      <point x="398" y="-10"/>
      <point x="365" y="17"/>
      <point x="360" y="66" type="curve"/>
      <point x="321" y="21"/>
      <point x="266" y="-10"/>
      <point x="203" y="-10" type="curve" smooth="yes"/>
      <point x="91" y="-10"/>
      <point x="31" y="66"/>
      <point x="31" y="191" type="curve" smooth="yes"/>
      <point x="31" y="371"/>
      <point x="122" y="521"/>
      <point x="272" y="521" type="curve" smooth="yes"/>
      <point x="333" y="521"/>
      <point x="385" y="493"/>
      <point x="411" y="448" type="curve"/>
      <point x="417" y="448" type="line"/>
    </contour>
    <contour>
      <point x="369" y="211" type="curve" smooth="yes"/>
      <point x="382" y="304"/>
      <point x="383" y="313"/>
      <point x="383" y="322" type="curve" smooth="yes"/>
      <point x="383" y="384"/>
      <point x="349" y="415"/>
      <point x="302" y="415" type="curve" smooth="yes"/>
      <point x="247" y="415"/>
      <point x="201" y="375"/>
      <point x="189" y="294" type="curve" smooth="yes"/>
      <point x="176" y="201"/>
      <point x="175" y="192"/>
      <point x="175" y="183" type="curve" smooth="yes"/>
      <point x="175" y="121"/>
      <point x="208" y="90"/>
      <point x="256" y="90" type="curve" smooth="yes"/>
      <point x="310" y="90"/>
      <point x="357" y="130"/>
    </contour>
  </outline>
</glyph>
<glyph name="Aogonek" format="1">
  <advance width="686"/>
  <unicode hex="0104"/>
  <outline>
    <contour>
      <point x="661" y="-79" type="curve"/>
      <point x="669" y="-119" type="line"/>
      <point x="638" y="-135"/>
      <point x="602" y="-143"/>
      <point x="569" y="-143" type="curve" smooth="yes"/>
      <point x="526" y="-143"/>
      <point x="482" y="-129"/>
      <point x="482" y="-83" type="curve" smooth="yes"/>
      <point x="482" y="-44"/>
      <point x="515" y="-19"/>
      <point x="547" y="0" type="curve"/>
      <point x="473" y="0" type="line"/>
      <point x="442" y="135" type="line"/>
      <point x="169" y="135" type="line"/>
      <point x="102" y="0" type="line"/>
      <point x="-46" y="0" type="line"/>
      <point x="299" y="686" type="line"/>
      <point x="483" y="686" type="line"/>
      <point x="635" y="0" type="line"/>
      <point x="609" y="0" type="line"/>
      <point x="584" y="-13"/>
      <point x="553" y="-35"/>
      <point x="553" y="-64" type="curve" smooth="yes"/>
      <point x="553" y="-86"/>
      <point x="573" y="-93"/>
      <point x="592" y="-93" type="curve" smooth="yes"/>
      <point x="616" y="-93"/>
      <point x="639" y="-87"/>
    </contour>
    <contour>
      <point x="418" y="252" type="line"/>
      <point x="364" y="521" type="line"/>
      <point x="359" y="521" type="line"/>
      <point x="315" y="432"/>
      <point x="271" y="342"/>
      <point x="228" y="252" type="curve"/>
    </contour>
  </outline>
</glyph>
<glyph name="aogonek" format="1">
  <advance width="598"/>
  <unicode hex="0105"/>
  <outline>
    <contour>
      <point x="483" y="-93" type="curve" smooth="yes"/>
      <point x="507" y="-93"/>
      <point x="530" y="-87"/>
      <point x="552" y="-79" type="curve"/>
      <point x="560" y="-119" type="line"/>
      <point x="529" y="-135"/>
      <point x="493" y="-143"/>
      <point x="460" y="-143" type="curve" smooth="yes"/>
      <point x="417" y="-143"/>
      <point x="373" y="-129"/>
      <point x="373" y="-83" type="curve" smooth="yes"/>
      <point x="373" y="-48"/>
      <point x="399" y="-25"/>
      <point x="428" y="-6" type="curve"/>
      <point x="385" y="2"/>
      <point x="364" y="27"/>
      <point x="360" y="66" type="curve"/>
      <point x="321" y="21"/>
      <point x="266" y="-10"/>
      <point x="203" y="-10" type="curve" smooth="yes"/>
      <point x="91" y="-10"/>
      <point x="31" y="66"/>
      <point x="31" y="191" type="curve" smooth="yes"/>
      <point x="31" y="371"/>
      <point x="122" y="521"/>
      <point x="272" y="521" type="curve" smooth="yes"/>
      <point x="333" y="521"/>
      <point x="385" y="493"/>
      <point x="411" y="448" type="curve"/>
      <point x="417" y="448" type="line"/>
      <point x="450" y="511" type="line"/>
      <point x="557" y="511" type="line"/>
      <point x="544" y="421"/>
      <point x="503" y="132"/>
      <point x="503" y="117" type="curve" smooth="yes"/>
      <point x="503" y="100"/>
      <point x="512" y="90"/>
      <point x="528" y="90" type="curve" smooth="yes"/>
      <point x="542" y="90"/>
      <point x="560" y="97"/>
      <point x="570" y="104" type="curve"/>
      <point x="556" y="11" type="line"/>
      <point x="539" y="2"/>
      <point x="512" y="-6"/>
      <point x="484" y="-9" type="curve"/>
      <point x="464" y="-22"/>
      <point x="444" y="-41"/>
      <point x="444" y="-64" type="curve" smooth="yes"/>
      <point x="444" y="-86"/>
      <point x="464" y="-93"/>
    </contour>
    <contour>
      <point x="369" y="211" type="curve" smooth="yes"/>
      <point x="382" y="304"/>
      <point x="383" y="313"/>
      <point x="383" y="322" type="curve" smooth="yes"/>
      <point x="383" y="384"/>
      <point x="349" y="415"/>
      <point x="302" y="415" type="curve" smooth="yes"/>
      <point x="247" y="415"/>
      <point x="201" y="375"/>
      <point x="189" y="294" type="curve" smooth="yes"/>
      <point x="176" y="201"/>
      <point x="175" y="192"/>
      <point x="175" y="183" type="curve" smooth="yes"/>
      <point x="175" y="121"/>
      <point x="208" y="90"/>
      <point x="256" y="90" type="curve" smooth="yes"/>
      <point x="310" y="90"/>
      <point x="357" y="130"/>
    </contour>
  </outline>
</glyph>
<glyph name="Ccaron" format="1">
  <advance width="683"/>
  <unicode hex="010C"/>
  <outline>
    <contour>
      <point x="338" y="895" type="line"/>
      <point x="411" y="812" type="line"/>
      <point x="507" y="895" type="line"/>
      <point x="611" y="895" type="line"/>
      <point x="562" y="850"/>
      <point x="512" y="805"/>
      <point x="453" y="750" type="curve"/>
      <point x="350" y="750" type="line"/>
      <point x="233" y="895" type="line"/>
    </contour>
    <contour>
      <point x="483" y="270" type="curve"/>
      <point x="624" y="270" type="line"/>
      <point x="598" y="88"/>
      <point x="480" y="-10"/>
      <point x="311" y="-10" type="curve" smooth="yes"/>
      <point x="297" y="-10" type="line" smooth="yes"/>
      <point x="144" y="-10"/>
      <point x="35" y="75"/>
      <point x="35" y="237" type="curve" smooth="yes"/>
      <point x="35" y="255"/>
      <point x="38" y="277"/>
      <point x="54" y="392" type="curve" smooth="yes"/>
      <point x="81" y="586"/>
      <point x="214" y="696"/>
      <point x="392" y="696" type="curve" smooth="yes"/>
      <point x="406" y="696" type="line" smooth="yes"/>
      <point x="546" y="696"/>
      <point x="648" y="620"/>
      <point x="648" y="468" type="curve" smooth="yes"/>
      <point x="648" y="451"/>
      <point x="647" y="433"/>
      <point x="644" y="414" type="curve"/>
      <point x="497" y="414" type="line"/>
      <point x="499" y="427"/>
      <point x="500" y="440"/>
      <point x="501" y="453" type="curve" smooth="yes"/>
      <point x="501" y="457" type="line" smooth="yes"/>
      <point x="501" y="531"/>
      <point x="454" y="573"/>
      <point x="384" y="573" type="curve" smooth="yes"/>
      <point x="269" y="573"/>
      <point x="231" y="498"/>
      <point x="214" y="382" type="curve" smooth="yes"/>
      <point x="202" y="303"/>
      <point x="196" y="270"/>
      <point x="196" y="240" type="curve" smooth="yes"/>
      <point x="196" y="151"/>
      <point x="247" y="113"/>
      <point x="325" y="113" type="curve" smooth="yes"/>
      <point x="416" y="113"/>
      <point x="468" y="165"/>
    </contour>
    <contour>
      <point x="306" y="0" type="move" name="Bottom"/>
    </contour>
  </outline>
</glyph>
<glyph name="ccaron" format="1">
  <advance width="567"/>
  <unicode hex="010D"/>
  <outline>
    <contour>
      <point x="255" y="720" type="line"/>
      <point x="328" y="637" type="line"/>
      <point x="424" y="720" type="line"/>
      <point x="528" y="720" type="line"/>
      <point x="479" y="675"/>
      <point x="429" y="630"/>
      <point x="370" y="575" type="curve"/>
      <point x="267" y="575" type="line"/>
      <point x="150" y="720" type="line"/>
    </contour>
    <contour>
      <point x="196" y="296" type="curve" smooth="yes"/>
      <point x="183" y="199"/>
      <point x="182" y="191"/>
      <point x="182" y="183" type="curve" smooth="yes"/>
      <point x="182" y="130"/>
      <point x="210" y="90"/>
      <point x="263" y="90" type="curve" smooth="yes"/>
      <point x="323" y="90"/>
      <point x="367" y="127"/>
      <point x="378" y="203" type="curve"/>
      <point x="516" y="203" type="line"/>
      <point x="495" y="55"/>
      <point x="380" y="-10"/>
      <point x="265" y="-10" type="curve" smooth="yes"/>
      <point x="249" y="-10" type="line" smooth="yes"/>
      <point x="117" y="-10"/>
      <point x="36" y="63"/>
      <point x="36" y="192" type="curve" smooth="yes"/>
      <point x="36" y="355"/>
      <point x="123" y="521"/>
      <point x="324" y="521" type="curve" smooth="yes"/>
      <point x="340" y="521" type="line" smooth="yes"/>
      <point x="446" y="521"/>
      <point x="533" y="457"/>
      <point x="533" y="341" type="curve" smooth="yes"/>
      <point x="533" y="330"/>
      <point x="533" y="319"/>
      <point x="531" y="307" type="curve"/>
      <point x="386" y="307" type="line"/>
      <point x="387" y="316"/>
      <point x="388" y="325"/>
      <point x="388" y="334" type="curve" smooth="yes"/>
      <point x="388" y="386"/>
      <point x="364" y="421"/>
      <point x="311" y="421" type="curve" smooth="yes"/>
      <point x="249" y="421"/>
      <point x="205" y="365"/>
    </contour>
    <contour>
      <point x="248" y="0" type="move" name="Bottom"/>
    </contour>
  </outline>
</glyph>
<glyph name="Edotaccent" format="1">
  <advance width="598"/>
  <unicode hex="0116"/>
  <outline>
    <contour>
      <point x="449" y="853" type="curve" smooth="yes"/>
      <point x="449" y="814"/>
      <point x="414" y="779"/>
      <point x="371" y="779" type="curve" smooth="yes"/>
      <point x="340" y="779"/>
      <point x="316" y="803"/>
      <point x="316" y="834" type="curve" smooth="yes"/>
      <point x="316" y="875"/>
      <point x="348" y="911"/>
      <point x="391" y="911" type="curve" smooth="yes"/>
      <point x="425" y="911"/>
      <point x="449" y="885"/>
    </contour>
    <contour>
      <point x="120" y="686" type="line"/>
      <point x="603" y="686" type="line"/>
      <point x="568" y="563" type="line"/>
      <point x="254" y="563" type="line"/>
      <point x="233" y="413" type="line"/>
      <point x="526" y="413" type="line"/>
      <point x="509" y="290" type="line"/>
      <point x="216" y="290" type="line"/>
      <point x="193" y="123" type="line"/>
      <point x="509" y="123" type="line"/>
      <point x="509" y="0" type="line"/>
      <point x="23" y="0" type="line"/>
    </contour>
    <contour>
      <point x="263" y="0" type="move" name="Bottom"/>
    </contour>
  </outline>
</glyph>
<glyph name="Eogonek" format="1">
  <advance width="598"/>
  <unicode hex="0118"/>
  <outline>
    <contour>
      <point x="254" y="563" type="line"/>
      <point x="233" y="413" type="line"/>
      <point x="526" y="413" type="line"/>
      <point x="509" y="290" type="line"/>
      <point x="216" y="290" type="line"/>
      <point x="193" y="123" type="line"/>
      <point x="509" y="123" type="line"/>
      <point x="509" y="0" type="line"/>
      <point x="500" y="0" type="line"/>
      <point x="475" y="-13"/>
      <point x="444" y="-35"/>
      <point x="444" y="-64" type="curve" smooth="yes"/>
      <point x="444" y="-86"/>
      <point x="464" y="-93"/>
      <point x="483" y="-93" type="curve" smooth="yes"/>
      <point x="507" y="-93"/>
      <point x="530" y="-87"/>
      <point x="552" y="-79" type="curve"/>
      <point x="560" y="-119" type="line"/>
      <point x="529" y="-135"/>
      <point x="493" y="-143"/>
      <point x="460" y="-143" type="curve" smooth="yes"/>
      <point x="417" y="-143"/>
      <point x="373" y="-129"/>
      <point x="373" y="-83" type="curve" smooth="yes"/>
      <point x="373" y="-44"/>
      <point x="406" y="-19"/>
      <point x="438" y="0" type="curve"/>
      <point x="23" y="0" type="line"/>
      <point x="120" y="686" type="line"/>
      <point x="603" y="686" type="line"/>
      <point x="568" y="563" type="line"/>
    </contour>
    <contour>
      <point x="263" y="0" type="move" name="Bottom"/>
    </contour>
  </outline>
</glyph>
<glyph name="Ecaron" format="1">
  <advance width="598"/>
  <unicode hex="011A"/>
  <outline>
    <contour>
      <point x="295" y="895" type="line"/>
      <point x="368" y="812" type="line"/>
      <point x="464" y="895" type="line"/>
      <point x="568" y="895" type="line"/>
      <point x="519" y="850"/>
      <point x="469" y="805"/>
      <point x="410" y="750" type="curve"/>
      <point x="307" y="750" type="line"/>
      <point x="190" y="895" type="line"/>
    </contour>
    <contour>
      <point x="120" y="686" type="line"/>
      <point x="603" y="686" type="line"/>
      <point x="568" y="563" type="line"/>
      <point x="254" y="563" type="line"/>
      <point x="233" y="413" type="line"/>
      <point x="526" y="413" type="line"/>
      <point x="509" y="290" type="line"/>
      <point x="216" y="290" type="line"/>
      <point x="193" y="123" type="line"/>
      <point x="509" y="123" type="line"/>
      <point x="509" y="0" type="line"/>
      <point x="23" y="0" type="line"/>
    </contour>
    <contour>
      <point x="263" y="0" type="move" name="Bottom"/>
    </contour>
  </outline>
</glyph>
<glyph name="Gcommaaccent" format="1">
  <advance width="699"/>
  <unicode hex="0122"/>
  <outline>
    <contour>
      <point x="590" y="0" type="curve"/>
      <point x="505" y="0" type="line"/>
      <point x="501" y="16"/>
      <point x="496" y="42"/>
      <point x="492" y="77" type="curve"/>
      <point x="441" y="23"/>
      <point x="377" y="-10"/>
      <point x="286" y="-10" type="curve" smooth="yes"/>
      <point x="281" y="-10" type="line" smooth="yes"/>
      <point x="134" y="-10"/>
      <point x="36" y="84"/>
      <point x="36" y="238" type="curve" smooth="yes"/>
      <point x="36" y="261"/>
      <point x="44" y="321"/>
      <point x="54" y="392" type="curve" smooth="yes"/>
      <point x="80" y="579"/>
      <point x="205" y="696"/>
      <point x="397" y="696" type="curve" smooth="yes"/>
      <point x="411" y="696" type="line" smooth="yes"/>
      <point x="545" y="696"/>
      <point x="649" y="617"/>
      <point x="649" y="484" type="curve" smooth="yes"/>
      <point x="649" y="470"/>
      <point x="647" y="453"/>
      <point x="646" y="442" type="curve"/>
      <point x="500" y="442" type="line"/>
      <point x="501" y="451"/>
      <point x="501" y="460"/>
      <point x="501" y="468" type="curve" smooth="yes"/>
      <point x="501" y="544"/>
      <point x="448" y="573"/>
      <point x="383" y="573" type="curve" smooth="yes"/>
      <point x="318" y="573"/>
      <point x="270" y="539"/>
      <point x="246" y="486" type="curve" smooth="yes"/>
      <point x="212" y="412"/>
      <point x="196" y="269"/>
      <point x="196" y="240" type="curve" smooth="yes"/>
      <point x="196" y="160"/>
      <point x="243" y="113"/>
      <point x="318" y="113" type="curve" smooth="yes"/>
      <point x="396" y="113"/>
      <point x="459" y="157"/>
      <point x="475" y="261" type="curve"/>
      <point x="320" y="261" type="line"/>
      <point x="336" y="373" type="line"/>
      <point x="636" y="373" type="line"/>
      <point x="603" y="136" type="line" smooth="yes"/>
      <point x="597" y="92"/>
      <point x="590" y="47"/>
    </contour>
    <contour>
      <point x="286" y="-167" type="line"/>
      <point x="223" y="-167" type="line"/>
      <point x="242" y="-30" type="line"/>
      <point x="388" y="-30" type="line"/>
      <point x="372" y="-143" type="line"/>
      <point x="332" y="-250" type="line"/>
      <point x="258" y="-250" type="line"/>
    </contour>
    <contour>
      <point x="314" y="0" type="move" name="Bottom"/>
    </contour>
  </outline>
</glyph>
<glyph name="Imacron" format="1">
  <advance width="461"/>
  <unicode hex="012A"/>
  <outline>
    <contour>
      <point x="155" y="911" type="line"/>
      <point x="473" y="911" type="line"/>
      <point x="462" y="837" type="line"/>
      <point x="144" y="837" type="line"/>
    </contour>
    <contour>
      <point x="436" y="686" type="line"/>
      <point x="418" y="563" type="line"/>
      <point x="338" y="563" type="line"/>
      <point x="277" y="123" type="line"/>
      <point x="357" y="123" type="line"/>
      <point x="339" y="0" type="line"/>
      <point x="23" y="0" type="line"/>
      <point x="41" y="123" type="line"/>
      <point x="122" y="123" type="line"/>
      <point x="183" y="563" type="line"/>
      <point x="102" y="563" type="line"/>
      <point x="120" y="686" type="line"/>
    </contour>
  </outline>
</glyph>
<glyph name="imacron" format="1">
  <advance width="278"/>
  <unicode hex="012B"/>
  <outline>
    <contour>
      <point x="48" y="736" type="line"/>
      <point x="366" y="736" type="line"/>
      <point x="355" y="662" type="line"/>
      <point x="37" y="662" type="line"/>
    </contour>
    <contour>
      <point x="101" y="511" type="line"/>
      <point x="247" y="511" type="line"/>
      <point x="176" y="0" type="line"/>
      <point x="30" y="0" type="line"/>
    </contour>
  </outline>
</glyph>
<glyph name="Iogonek" format="1">
  <advance width="461"/>
  <unicode hex="012E"/>
  <outline>
    <contour>
      <point x="338" y="563" type="line"/>
      <point x="277" y="123" type="line"/>
      <point x="357" y="123" type="line"/>
      <point x="339" y="0" type="line"/>
      <point x="317" y="0" type="line"/>
      <point x="292" y="-13"/>
      <point x="261" y="-35"/>
      <point x="261" y="-64" type="curve" smooth="yes"/>
      <point x="261" y="-86"/>
      <point x="281" y="-93"/>
      <point x="300" y="-93" type="curve" smooth="yes"/>
      <point x="324" y="-93"/>
      <point x="347" y="-87"/>
      <point x="369" y="-79" type="curve"/>
      <point x="377" y="-119" type="line"/>
      <point x="346" y="-135"/>
      <point x="310" y="-143"/>
      <point x="277" y="-143" type="curve" smooth="yes"/>
      <point x="234" y="-143"/>
      <point x="190" y="-129"/>
      <point x="190" y="-83" type="curve" smooth="yes"/>
      <point x="190" y="-44"/>
      <point x="223" y="-19"/>
      <point x="255" y="0" type="curve"/>
      <point x="23" y="0" type="line"/>
      <point x="41" y="123" type="line"/>
      <point x="122" y="123" type="line"/>
      <point x="183" y="563" type="line"/>
      <point x="102" y="563" type="line"/>
      <point x="120" y="686" type="line"/>
      <point x="436" y="686" type="line"/>
      <point x="418" y="563" type="line"/>
    </contour>
  </outline>
</glyph>
<glyph name="iogonek" format="1">
  <advance width="278"/>
  <unicode hex="012F"/>
  <outline>
    <contour>
      <point x="283" y="720" type="line"/>
      <point x="267" y="605" type="line"/>
      <point x="119" y="605" type="line"/>
      <point x="135" y="720" type="line"/>
    </contour>
    <contour>
      <point x="176" y="0" type="line"/>
      <point x="172" y="0" type="line"/>
      <point x="147" y="-13"/>
      <point x="116" y="-35"/>
      <point x="116" y="-64" type="curve" smooth="yes"/>
      <point x="116" y="-86"/>
      <point x="136" y="-93"/>
      <point x="155" y="-93" type="curve" smooth="yes"/>
      <point x="179" y="-93"/>
      <point x="202" y="-87"/>
      <point x="224" y="-79" type="curve"/>
      <point x="232" y="-119" type="line"/>
      <point x="201" y="-135"/>
      <point x="165" y="-143"/>
      <point x="132" y="-143" type="curve" smooth="yes"/>
      <point x="89" y="-143"/>
      <point x="45" y="-129"/>
      <point x="45" y="-83" type="curve" smooth="yes"/>
      <point x="45" y="-44"/>
      <point x="78" y="-19"/>
      <point x="110" y="0" type="curve"/>
      <point x="30" y="0" type="line"/>
      <point x="101" y="511" type="line"/>
      <point x="247" y="511" type="line"/>
    </contour>
  </outline>
</glyph>
